<svg aria-hidden="true" style="width:0;height:0;position:absolute;overflow:hidden" xmlns="http://www.w3.org/2000/svg"><defs><symbol id="icon-menu" viewBox="0 0 32 32"><path stroke-linejoin="round" stroke-linecap="round" stroke-width="2.286" d="M22.667 13.333H4M28 8H4M28 18.667H4M22.667 24H4"/></symbol><symbol id="icon-arrow" viewBox="0 0 32 32"><path fill="none" stroke="#eac645" style="stroke:var(--color1,#eac645)" stroke-linejoin="round" stroke-linecap="round" stroke-width="3.2" d="M5.333 16h21.333m.001 0-8-8m8 8-8 8"/></symbol><symbol id="icon-dump" viewBox="0 0 32 32"><path d="M32 16c0 8.837-7.163 16-16 16S0 24.837 0 16 7.163 0 16 0s16 7.163 16 16z"/><path fill="none" stroke="#fff" style="stroke:var(--color3,#fff)" stroke-linejoin="round" stroke-linecap="round" stroke-width="1.684" d="M13.684 9.053h4.632m-9.263 2.315h13.895m-1.544 0-.541 8.12c-.081 1.218-.122 1.827-.385 2.289a2.322 2.322 0 0 1-1.002.938c-.478.232-1.089.232-2.31.232h-2.33c-1.221 0-1.832 0-2.31-.232a2.31 2.31 0 0 1-1.002-.938c-.263-.462-.304-1.071-.385-2.289l-.541-8.12m3.858 3.474v3.86m3.088-3.86v3.86"/></symbol><symbol id="icon-next" viewBox="0 0 32 32"><path d="M17.867 16.946a1.334 1.334 0 0 0 0-1.894l-6.12-6.107a1.334 1.334 0 1 1 1.88-1.894l6.12 6.12a4.001 4.001 0 0 1 0 5.654l-6.12 6.12a1.337 1.337 0 0 1-2.172-.434 1.331 1.331 0 0 1 .292-1.46l6.12-6.107z"/></symbol><symbol id="icon-down" viewBox="0 0 28 32"><path fill="#fff" style="fill:var(--color3,#fff)" d="M5.898 12h16.513l-7.423 8.391c-.221.25-.521.39-.834.39s-.613-.14-.834-.39L5.897 12z"/></symbol><symbol id="icon-lock" viewBox="0 0 32 32"><path stroke-linejoin="round" stroke-linecap="round" stroke-width="2.286" d="M22.667 14.667v-4a6.667 6.667 0 0 0-13.334 0v4M10.4 28h11.2c2.24 0 3.36 0 4.216-.436a3.991 3.991 0 0 0 1.748-1.748C28 24.96 28 23.84 28 21.6v-.533c0-2.24 0-3.36-.436-4.216a3.991 3.991 0 0 0-1.748-1.748c-.856-.436-1.976-.436-4.216-.436H10.4c-2.24 0-3.36 0-4.216.436a3.996 3.996 0 0 0-1.748 1.748C4 17.707 4 18.827 4 21.067v.533c0 2.24 0 3.36.436 4.216a3.991 3.991 0 0 0 1.748 1.748C7.04 28 8.16 28 10.4 28z"/></symbol><symbol id="icon-mail" viewBox="0 0 32 32"><path stroke-linejoin="round" stroke-linecap="round" stroke-width="2.286" d="m28.666 24-8.857-8m-7.619 0-8.857 8M2.667 9.333l10.887 7.621c.882.617 1.322.926 1.802 1.045.423.106.866.106 1.29 0 .479-.12.92-.428 1.802-1.045l10.887-7.621M9.067 26.667h13.867c2.24 0 3.36 0 4.216-.436a3.996 3.996 0 0 0 1.748-1.748c.436-.856.436-1.976.436-4.216v-8.533c0-2.24 0-3.36-.436-4.216A3.991 3.991 0 0 0 27.15 5.77c-.856-.436-1.976-.436-4.216-.436H9.067c-2.24 0-3.36 0-4.216.436a3.991 3.991 0 0 0-1.748 1.748c-.436.856-.436 1.976-.436 4.216v8.533c0 2.24 0 3.36.436 4.216a3.996 3.996 0 0 0 1.748 1.748c.856.436 1.976.436 4.216.436z"/></symbol><symbol id="icon-up" viewBox="0 0 32 32"><path fill="#fff" style="fill:var(--color3,#fff)" d="M4.5 19.6 15.7 8.367c.133-.133.278-.228.433-.283s.322-.084.5-.084.345.028.5.084.3.149.433.283L28.799 19.6c.311.311.467.7.467 1.167s-.167.867-.5 1.2c-.333.333-.722.5-1.167.5s-.833-.167-1.167-.5l-9.8-9.8-9.8 9.8c-.311.311-.694.467-1.149.467s-.851-.167-1.184-.5-.5-.722-.5-1.167c0-.444.167-.833.5-1.167z"/></symbol><symbol id="icon-user" viewBox="0 0 32 32"><path fill="#f6f6f6" style="fill:var(--color4,#f6f6f6)" d="M32 16c0 8.837-7.163 16-16 16S0 24.837 0 16 7.163 0 16 0s16 7.163 16 16z"/><path fill="#4f2ee8" style="fill:var(--color2,#4f2ee8)" d="M10.523 22.847a5.477 5.477 0 1 1 10.954 0H10.522zM16 16.685c-2.27 0-4.108-1.838-4.108-4.108S13.73 8.469 16 8.469c2.27 0 4.108 1.838 4.108 4.108S18.27 16.685 16 16.685z"/></symbol><symbol id="icon-close" viewBox="0 0 32 32"><path stroke-linejoin="round" stroke-linecap="round" stroke-width="3.429" d="M24 8 8 24M8 8l16 16"/></symbol><symbol id="icon-ukraine" viewBox="0 0 20 32"><path fill="#fff" style="fill:var(--color1,#fff)" d="M9.005 30.888a8.64 8.64 0 0 1-3.414-5.351H0V2.42c2.991 1.443 5.153 4.599 5.388 7.876l.846 6.493-.407-.045c-.893 0-1.676.812-1.676 1.608 0 .752.595 1.383 1.378 1.548l1.018.226c1.676-3.051 2.631-6.042 2.631-8.973 0-2.645-.36-5.291-.423-7.996 0-1.202.486-2.3 1.253-3.156.783.857 1.253 1.954 1.253 3.156 0 2.705-.423 5.351-.423 7.996 0 2.931.955 5.922 2.631 8.973l1.018-.226c.783-.165 1.378-.812 1.378-1.548 0-.812-.783-1.608-1.676-1.608l-.423.06.846-6.493c.423-3.277 2.396-6.448 5.388-7.876v23.117h-5.576c-.423 2.179-1.613 4.148-3.414 5.351-.423.286-.783.631-1.018 1.097-.219-.466-.579-.812-.987-1.112zM2.647 17.556c.235-.857.893-1.608 1.738-2.074l-.658-5.351a8.288 8.288 0 0 0-2.036-4.374v11.784h.955v.015zm2.819 6.373c0-.812.125-1.548.298-2.3l-.783-.18c-1.143-.346-2.036-1.203-2.334-2.3h-.955v4.78h3.774zm3.712 0c0-.977-.783-1.834-1.801-1.954-.172.631-.298 1.263-.298 1.954h2.099zm0 1.623H7.314c.298 1.263.955 2.42 1.864 3.397v-3.397zm2.631-5.005c-.72-1.262-1.378-2.585-1.801-3.968-.423 1.383-1.081 2.706-1.801 3.968.72.165 1.316.631 1.801 1.157.486-.526 1.081-.992 1.801-1.157zm1.143 3.382c0-.691-.125-1.323-.297-1.954-1.018.12-1.801.977-1.801 1.954h2.099zm-.235 1.623h-1.864v3.397c.908-.992 1.566-2.134 1.864-3.397zm5.623-1.623v-4.78h-.955c-.298 1.097-1.206 1.954-2.334 2.3l-.783.18c.172.752.298 1.488.298 2.3h3.774zm0-6.373V5.757c-1.081 1.202-1.864 2.706-2.036 4.374l-.658 5.351c.846.466 1.504 1.203 1.739 2.074h.955z"/></symbol><symbol id="icon-arrow-down" viewBox="0 0 32 32"><path fill="#4f2ee8" style="fill:var(--color1,#4f2ee8)" d="M15.053 17.867a1.334 1.334 0 0 0 1.894 0l6.107-6.12a1.334 1.334 0 1 1 1.894 1.88l-6.12 6.12a4.001 4.001 0 0 1-5.654 0l-6.12-6.12a1.337 1.337 0 0 1 .434-2.172 1.331 1.331 0 0 1 1.46.292l6.107 6.12z"/></symbol><symbol id="icon-mail-new" viewBox="0 0 38 32"><path d="M27.782 30.982H10.037c-3.055 0-4.655 0-5.964-.727-1.309-.582-2.182-1.6-2.909-2.909-.727-1.455-.727-2.909-.727-5.964V7.127c.145-1.018.291-1.745.582-2.473.582-1.309 1.6-2.182 2.909-2.909 1.455-.727 2.909-.727 5.964-.727h17.6c3.055 0 4.655 0 5.964.727 1.309.582 2.182 1.6 2.909 2.909.436.727.582 1.455.582 2.473.145.291.145.582 0 .727v13.673c0 3.055 0 4.655-.727 5.964-.582 1.164-1.6 2.182-2.909 2.909-1.018.582-2.473.582-5.527.582zM4.218 26.764c.291.436.727.727 1.164.873.727.436 2.182.436 4.655.436h17.6c2.473 0 3.927 0 4.655-.436.436-.291.873-.582 1.164-.873l-9.891-9.018-.727.582c-1.164.873-1.891 1.309-2.764 1.6-.727.145-1.6.145-2.327 0-.873-.145-1.6-.727-2.764-1.6l-.727-.582L4.22 26.764zm-.873-16.437v13.382l8.291-7.564-8.291-5.818zm22.691 5.818 8.291 7.564V10.327l-8.291 5.818zm-11.054-1.309L16.727 16c.873.727 1.455 1.018 1.745 1.164s.582.145.873 0c.291-.145.873-.436 1.745-1.164l13.091-9.164c0-.436-.145-.727-.291-1.018a2.883 2.883 0 0 0-1.6-1.6c-.727-.436-2.182-.436-4.655-.436h-17.6c-2.473 0-3.927 0-4.655.436s-1.309 1.018-1.6 1.6c-.145.291-.145.582-.291 1.018l11.491 8c-.145 0-.145 0 0 0z"/></symbol><symbol id="icon-lock-new" viewBox="0 0 32 32"><path d="M22.533 31.333H9.466c-2.8 0-4.267 0-5.467-.667-1.2-.533-2-1.467-2.667-2.667-.667-1.333-.667-2.667-.667-5.467v-.667c0-2.8 0-4.267.667-5.467.533-1.2 1.467-2 2.667-2.667.8-.4 1.6-.533 2.933-.533V9.731c0-5.067 4.133-9.067 9.067-9.067 5.067 0 9.067 4.133 9.067 9.067v3.333c1.2 0 2.133.267 2.933.667 1.2.533 2 1.467 2.667 2.667.667 1.333.667 2.667.667 5.467v.667c0 2.8 0 4.267-.667 5.467-.533 1.2-1.467 2-2.667 2.667s-2.667.667-5.467.667zm-13.066-15.6c-2.267 0-3.6 0-4.267.4-.667.267-1.2.8-1.467 1.467-.4.667-.4 2-.4 4.267v.667c0 2.267 0 3.6.4 4.267.267.667.8 1.2 1.467 1.467.667.4 2 .4 4.267.4h13.067c2.267 0 3.6 0 4.267-.4.667-.267 1.2-.8 1.467-1.467.4-.667.4-2 .4-4.267v-.667c0-2.267 0-3.6-.4-4.267-.267-.667-.8-1.2-1.467-1.467-.667-.4-2-.4-4.267-.4H9.467zm.133-2.666h12.933V9.734c0-3.6-2.933-6.4-6.4-6.4S9.6 6.267 9.6 9.734v3.333z"/></symbol><symbol id="icon-close-new" viewBox="0 0 32 32"><path d="M28.444 31.111c-.711 0-1.422-.178-1.956-.711L15.999 19.733 5.51 30.222c-1.067 1.067-2.667 1.067-3.733 0s-1.067-2.667 0-3.733L12.266 16 1.599 5.511c-1.067-1.067-1.067-2.667 0-3.733s2.667-1.067 3.733 0l10.667 10.489L26.488 1.778c1.067-1.067 2.667-1.067 3.733 0s1.067 2.667 0 3.733L19.732 16l10.489 10.489c1.067 1.067 1.067 2.667 0 3.733-.356.711-1.067.889-1.778.889z"/></symbol><symbol id="icon-login-arrow" viewBox="0 0 43 32"><path d="M25.867 32c-.8 0-1.333-.267-1.867-.8-1.067-1.067-1.067-2.667 0-3.733l8.8-8.8H3.467C1.867 18.667.8 17.6.8 16s1.067-2.667 2.667-2.667h29.067l-8.533-8.8c-1.067-1.067-1.067-2.667 0-3.733s2.667-1.067 3.733 0l13.333 13.333c.267.267.533.533.533.8s.267.533.267 1.067c0 .267 0 .8-.267 1.067 0 .267-.267.533-.533.8L27.734 31.2c-.533.533-1.333.8-1.867.8z"/></symbol><symbol id="icon-mobile-menu" viewBox="0 0 32 32"><path d="M19.833 11.667H3.5M24.5 7h-21M24.5 16.333h-21M19.833 21H3.5" stroke-width="2" stroke-linecap="round" stroke-linejoin="round"/></symbol><symbol id="icon-mobile-close" viewBox="0 0 32 32"><path d="M21 7 7 21M7 7l14 14" stroke-width="3" stroke-linecap="round" stroke-linejoin="round"/></symbol><symbol id="icon-mobile-close" viewBox="0 0 32 32"><path d="M21 7 7 21M7 7l14 14" stroke-width="3" stroke-linecap="round" stroke-linejoin="round"/></symbol><symbol id="icon-Group-60team" viewBox="0 0 59 32"><path fill="#eac645" style="fill:var(--color-logo)" d="M16.01 17.097v-5.039h1.67a2.51 2.51 0 0 1 1.778.741c.233.23.414.498.544.803.132.302.198.627.198.975s-.066.674-.198.979a2.553 2.553 0 0 1-1.347 1.347c-.302.13-.627.194-.975.194h-1.67zm.878-.879h.792c.223 0 .433-.042.63-.126a1.686 1.686 0 0 0 .882-.875c.086-.199.13-.413.13-.641s-.043-.44-.13-.637a1.686 1.686 0 0 0-.878-.875 1.565 1.565 0 0 0-.633-.13h-.792v3.283zm3.934.879-.004-3.599h.878l.004.32c.122-.13.269-.232.439-.306a1.39 1.39 0 0 1 .947-.057l-.346.885a.755.755 0 0 0-.663.05.753.753 0 0 0-.378.662v2.044h-.878zm4.083.093c-.331 0-.633-.085-.907-.256a1.91 1.91 0 0 1-.892-1.641 1.946 1.946 0 0 1 .525-1.339c.166-.175.358-.312.576-.41s.451-.148.698-.148c.281 0 .537.06.77.18.235.118.434.28.597.486a1.997 1.997 0 0 1 .406 1.533h-2.631c.034.134.089.256.166.364a.88.88 0 0 0 .292.256.872.872 0 0 0 .4.097.784.784 0 0 0 .418-.108.977.977 0 0 0 .317-.31l.896.209a1.926 1.926 0 0 1-.655.785c-.29.202-.615.302-.975.302zm-.886-2.253h1.771a.913.913 0 0 0-.169-.389c-.084-.118-.188-.211-.313-.281s-.259-.104-.403-.104a.804.804 0 0 0-.4.104.961.961 0 0 0-.313.277 1.014 1.014 0 0 0-.173.392zm5.974-1.44h.878v3.599h-.878l-.04-.446a1.08 1.08 0 0 1-.964.54c-.266 0-.516-.05-.749-.151a1.955 1.955 0 0 1-1.029-1.033 1.91 1.91 0 0 1-.148-.749c0-.257.047-.498.14-.723a1.89 1.89 0 0 1 .99-.994c.223-.096.463-.144.72-.144.238 0 .45.053.637.158.19.106.35.24.482.403l-.04-.461zm-1.026 2.847c.187 0 .353-.047.497-.14s.257-.22.338-.378c.082-.161.122-.337.122-.529 0-.194-.041-.371-.122-.529a.966.966 0 0 0-.342-.382c-.144-.094-.308-.14-.493-.14s-.354.048-.508.144c-.151.094-.272.22-.364.378-.089.158-.133.335-.133.529s.046.371.137.529c.091.158.212.284.364.378.154.094.322.14.504.14zm2.621.753v-3.599h.878v.32c.122-.13.269-.232.439-.306a1.32 1.32 0 0 1 .551-.115c.25 0 .479.059.687.176.211.118.379.275.504.472a1.419 1.419 0 0 1 1.191-.648c.264 0 .503.065.716.194.216.127.388.299.515.515.13.214.194.452.194.716v2.275h-.878v-2.041a.733.733 0 0 0-.104-.382.761.761 0 0 0-.274-.281c-.113-.072-.24-.108-.382-.108s-.27.035-.385.104c-.113.067-.204.158-.274.274s-.104.246-.104.392v2.041h-.878v-2.041a.75.75 0 0 0-.375-.666.727.727 0 0 0-.385-.104.71.71 0 0 0-.382.108.793.793 0 0 0-.277.281.745.745 0 0 0-.101.382v2.041h-.878zm9.756-5.039v.878h-1.541v4.161h-.878v-4.161h-1.541v-.878h3.959zm1.754 5.132c-.331 0-.633-.085-.907-.256a1.91 1.91 0 0 1-.892-1.641 1.946 1.946 0 0 1 .525-1.339c.166-.175.358-.312.576-.41s.451-.148.698-.148c.281 0 .537.06.77.18.235.118.434.28.597.486a1.997 1.997 0 0 1 .406 1.533H42.24c.034.134.089.256.166.364a.88.88 0 0 0 .292.256.872.872 0 0 0 .4.097.784.784 0 0 0 .418-.108.977.977 0 0 0 .317-.31l.896.209a1.926 1.926 0 0 1-.655.785c-.29.202-.615.302-.975.302zm-.885-2.253h1.771a.913.913 0 0 0-.169-.389c-.084-.118-.188-.211-.313-.281s-.259-.104-.403-.104a.804.804 0 0 0-.4.104.961.961 0 0 0-.313.277 1.014 1.014 0 0 0-.173.392zm5.973-1.44h.878v3.599h-.878l-.04-.446a1.08 1.08 0 0 1-.964.54c-.266 0-.516-.05-.749-.151a1.955 1.955 0 0 1-1.029-1.033 1.91 1.91 0 0 1-.148-.749c0-.257.047-.498.14-.723a1.89 1.89 0 0 1 .99-.994c.223-.096.463-.144.72-.144.238 0 .45.053.637.158.19.106.35.24.482.403l-.04-.461zm-1.026 2.847c.187 0 .353-.047.497-.14s.257-.22.338-.378c.082-.161.122-.337.122-.529 0-.194-.041-.371-.122-.529a.966.966 0 0 0-.342-.382c-.144-.094-.308-.14-.493-.14s-.354.048-.508.144c-.151.094-.272.22-.364.378-.089.158-.133.335-.133.529s.046.371.137.529c.091.158.212.284.364.378.154.094.322.14.504.14zm2.622.753v-3.599h.878v.32c.122-.13.269-.232.439-.306a1.32 1.32 0 0 1 .551-.115c.25 0 .479.059.687.176.211.118.379.275.504.472a1.419 1.419 0 0 1 1.191-.648c.264 0 .503.065.716.194.216.127.388.299.515.515.13.214.194.452.194.716v2.275h-.878v-2.041a.733.733 0 0 0-.104-.382.761.761 0 0 0-.274-.281c-.113-.072-.24-.108-.382-.108s-.27.035-.385.104c-.113.067-.204.158-.274.274s-.104.246-.104.392v2.041h-.878v-2.041a.75.75 0 0 0-.375-.666.727.727 0 0 0-.385-.104.71.71 0 0 0-.382.108.793.793 0 0 0-.277.281.745.745 0 0 0-.101.382v2.041h-.878z"/><path fill="#fff" style="fill:var(--color-logo)" d="M30.461 23.907a6.134 6.134 0 0 0-10.089 5.924l1.65-.442a4.24 4.24 0 0 1 7.244-4.287l1.196-1.196z"/><path fill="#fff" style="fill:var(--color-logo)" d="M23.634 26.643a1.804 1.804 0 1 1 3.609 0 1.804 1.804 0 0 1-3.609 0zM8.111 23.726A6.134 6.134 0 0 1 18.2 29.65l-1.65-.442a4.24 4.24 0 0 0-7.244-4.287L8.11 23.725z"/><path fill="#fff" style="fill:var(--color-logo)" d="M14.938 26.463a1.804 1.804 0 1 0-3.609 0 1.804 1.804 0 0 0 3.609 0zM30.461 8.073a6.134 6.134 0 0 1-10.089-5.925l1.65.442a4.24 4.24 0 0 0 7.244 4.287l1.196 1.196z"/><path fill="#fff" style="fill:var(--color-logo)" d="M23.634 5.336a1.804 1.804 0 1 0 3.609 0 1.804 1.804 0 0 0-3.609 0zM8.111 8.073A6.134 6.134 0 0 0 18.2 2.148l-1.65.442a4.24 4.24 0 0 1-7.244 4.287L8.11 8.073z"/><path fill="#fff" style="fill:var(--color-logo)" d="M14.938 5.336a1.804 1.804 0 1 1-3.609 0 1.804 1.804 0 0 1 3.609 0zM7.058 21.778a6.133 6.133 0 0 0-.086-11.7l-.442 1.65a4.24 4.24 0 0 1 .09 8.417l.438 1.634z"/><path fill="#fff" style="fill:var(--color-logo)" d="M8.101 14.498a1.804 1.804 0 1 1-1.803 3.125A1.804 1.804 0 0 1 8.1 14.498zM22.778 18.784v.234h-.502v1.341h-.234v-1.341h-.501v-.234h1.236zm.929.45h.234v1.125h-.235l-.009-.163a.37.37 0 0 1-.333.192.59.59 0 0 1-.553-.367.589.589 0 0 1-.001-.46.577.577 0 0 1 .535-.358c.082 0 .154.019.216.056s.115.084.156.142l-.01-.166zm-.348.928a.31.31 0 0 0 .288-.181c.028-.055.042-.117.042-.184s-.014-.13-.042-.186-.066-.099-.116-.132a.3.3 0 0 0-.172-.049c-.066 0-.125.016-.179.049s-.097.077-.128.133c-.032.055-.047.117-.047.184a.37.37 0 0 0 .177.318.33.33 0 0 0 .177.048zm.815.197v-1.687h.234v1.687h-.234zm.983.029c-.103 0-.198-.027-.283-.08a.59.59 0 0 1-.279-.512.613.613 0 0 1 .164-.42c.052-.055.112-.097.18-.128s.141-.046.218-.046a.547.547 0 0 1 .421.201c.051.062.088.134.112.216s.031.167.021.259h-.867c.01.052.029.099.056.141s.064.074.108.098a.314.314 0 0 0 .147.037c.057 0 .109-.014.155-.043s.086-.068.116-.118l.237.055c-.045.1-.113.181-.204.245s-.192.094-.305.094zm-.319-.689h.639a.347.347 0 0 0-.171-.251.3.3 0 0 0-.296-.001c-.045.025-.082.06-.112.105s-.049.093-.058.147zm2.073-.046v.705h-.234v-.648c0-.05-.012-.096-.037-.137s-.057-.074-.098-.098a.256.256 0 0 0-.137-.037c-.049 0-.095.012-.136.037s-.074.057-.099.098-.037.087-.037.137v.648h-.234v-1.125h.234v.119a.427.427 0 0 1 .328-.151c.083 0 .159.02.227.061a.46.46 0 0 1 .223.39zm.819-.185h-.236l-.001.891h-.234l.001-.891h-.179v-.234h.179l-.001-.353h.234l.001.353h.236v.234zm1.284.891h-.233l-.377-1.125h.229l.265.79.263-.79h.236l.263.79.264-.79h.229l-.376 1.125h-.235l-.265-.795-.265.795zm1.316-1.125h.234v1.125h-.234v-1.125zm.119-.163c-.036 0-.066-.012-.09-.035s-.036-.052-.036-.088c0-.034.012-.063.036-.087s.054-.036.089-.036c.035 0 .064.012.088.036s.036.052.036.087c0 .035-.012.064-.036.088s-.052.035-.087.035zm1.388.582v.705h-.234v-.648c0-.05-.012-.096-.037-.137s-.057-.074-.098-.098a.256.256 0 0 0-.137-.037c-.049 0-.095.012-.136.037s-.074.057-.099.098-.037.087-.037.137v.648h-.234v-1.125h.234v.119a.427.427 0 0 1 .328-.151c.083 0 .159.02.227.061a.46.46 0 0 1 .223.39zm.562.727c-.059-.004-.117-.016-.173-.036s-.106-.048-.148-.082a.323.323 0 0 1-.094-.124l.199-.085c.01.02.027.04.051.06s.054.036.087.048a.302.302 0 0 0 .201.003c.031-.011.056-.026.075-.047s.029-.046.029-.075c0-.033-.011-.058-.034-.076s-.049-.033-.082-.043l-.099-.028c-.074-.016-.141-.039-.202-.067s-.109-.066-.145-.111a.264.264 0 0 1-.054-.168c0-.072.019-.134.059-.187s.09-.094.153-.123a.538.538 0 0 1 .451.014.416.416 0 0 1 .172.157l-.186.11c-.011-.023-.028-.043-.051-.061a.289.289 0 0 0-.166-.062c-.038-.002-.074.003-.107.014s-.058.025-.078.047c-.019.022-.029.049-.029.083s.012.058.035.074c.023.016.052.029.088.038s.073.021.11.033c.067.021.129.047.188.078s.106.067.142.111.053.098.052.162c0 .07-.021.132-.064.186s-.097.094-.164.121-.139.039-.215.035zm2.032-1.146h.234v1.154c0 .077-.017.148-.05.214s-.076.121-.132.169a.652.652 0 0 1-.415.15c-.079 0-.154-.017-.227-.051s-.137-.078-.192-.135a.557.557 0 0 1-.123-.193l.215-.097c.015.047.039.088.072.124s.073.064.117.085c.045.021.091.032.138.032s.091-.007.134-.023c.043-.014.082-.034.116-.061s.062-.058.082-.094.03-.077.03-.12v-.19c-.037.057-.084.103-.142.138s-.125.052-.201.052c-.08 0-.154-.015-.225-.046a.597.597 0 0 1-.311-.316c-.03-.071-.045-.148-.045-.229a.585.585 0 0 1 .17-.418.588.588 0 0 1 .186-.128.549.549 0 0 1 .225-.046c.077 0 .144.018.201.053s.105.081.142.138v-.161zm-.341.928c.065 0 .122-.016.171-.049s.087-.078.114-.134.041-.116.041-.182c0-.067-.014-.129-.042-.183s-.065-.1-.114-.133a.29.29 0 0 0-.17-.051c-.063 0-.121.016-.173.049s-.093.077-.124.133c-.031.055-.046.117-.046.184a.37.37 0 0 0 .171.317c.052.033.11.048.172.048zm1.7-.928h.234v1.125h-.235l-.009-.163a.37.37 0 0 1-.333.192.587.587 0 0 1-.425-.176.589.589 0 0 1-.174-.425.57.57 0 0 1 .17-.413.567.567 0 0 1 .41-.171c.082 0 .154.019.216.056s.115.084.156.142l-.01-.166zm-.349.928a.31.31 0 0 0 .288-.181c.028-.055.042-.117.042-.184s-.014-.13-.042-.186c-.028-.055-.066-.099-.116-.132s-.106-.049-.172-.049c-.065 0-.125.016-.179.049s-.097.077-.128.133c-.032.055-.047.117-.047.184a.37.37 0 0 0 .177.318.33.33 0 0 0 .177.048zm.807.197v-1.125h.234v.119a.419.419 0 0 1 .327-.151.448.448 0 0 1 .383.211.448.448 0 0 1 .83.24v.705h-.234v-.646a.282.282 0 0 0-.133-.236.252.252 0 0 0-.135-.038.268.268 0 0 0-.268.275v.646h-.234v-.646c0-.052-.012-.099-.036-.141s-.057-.074-.098-.098a.26.26 0 0 0-.135-.036.252.252 0 0 0-.135.038.282.282 0 0 0-.133.236v.646h-.234zm2.472.029c-.103 0-.198-.027-.283-.08a.59.59 0 0 1-.279-.512.613.613 0 0 1 .164-.42c.052-.055.112-.097.18-.128s.141-.046.218-.046a.547.547 0 0 1 .421.201c.051.062.088.134.112.216s.031.167.021.259h-.867c.01.052.029.099.056.141s.065.074.108.098a.314.314 0 0 0 .147.037c.057 0 .109-.014.155-.043s.086-.068.116-.118l.237.055c-.045.1-.113.181-.204.245s-.192.094-.305.094zm-.319-.689h.639a.347.347 0 0 0-.171-.251.3.3 0 0 0-.296-.001c-.045.025-.083.06-.112.105s-.049.093-.059.147zm1.403.681c-.059-.004-.117-.016-.173-.036s-.106-.048-.148-.082a.333.333 0 0 1-.094-.124l.199-.085c.01.02.027.04.051.06s.054.036.087.048a.302.302 0 0 0 .201.003c.031-.011.056-.026.075-.047s.029-.046.029-.075c0-.033-.011-.058-.034-.076s-.049-.033-.082-.043l-.099-.028c-.073-.016-.141-.039-.202-.067s-.109-.066-.145-.111a.264.264 0 0 1-.054-.168c0-.072.02-.134.059-.187s.09-.094.153-.123a.538.538 0 0 1 .451.014.416.416 0 0 1 .172.157l-.186.11c-.011-.023-.028-.043-.051-.061a.289.289 0 0 0-.166-.062c-.038-.002-.074.003-.107.014s-.058.025-.078.047c-.019.022-.029.049-.029.083s.012.058.035.074c.023.016.053.029.088.038s.073.021.11.033c.067.021.129.047.188.078s.106.067.142.111.053.098.052.162c0 .07-.021.132-.064.186s-.097.094-.164.121-.139.039-.215.035zm.582.105.07-.38h.234l-.148.38h-.155zm1.7-1.283c.109 0 .209.027.298.08s.162.125.215.215c.053.089.08.189.08.298a.578.578 0 0 1-.174.42.599.599 0 0 1-.418.173c-.079 0-.148-.018-.207-.054s-.106-.084-.144-.141v.165h-.234v-1.687h.234v.725c.038-.058.085-.105.144-.141s.128-.054.207-.054zm-.002.959c.065 0 .125-.016.179-.049s.097-.077.128-.133a.36.36 0 0 0 .048-.183.368.368 0 0 0-.177-.318c-.054-.033-.113-.049-.178-.049s-.123.016-.172.049-.088.077-.116.133c-.028.055-.042.117-.042.184s.014.129.042.184c.028.055.066.1.116.133s.107.048.172.048zm.71-.224v-.703h.234v.646c0 .05.012.096.037.137s.058.074.099.099c.041.024.087.036.136.036a.263.263 0 0 0 .234-.135.268.268 0 0 0 .037-.137v-.646h.234l.001 1.125h-.234l-.001-.121a.423.423 0 0 1-.326.151c-.083 0-.159-.02-.227-.061s-.123-.095-.163-.163a.432.432 0 0 1-.061-.227zm1.832-.469h-.236l-.001.891h-.234l.001-.891h-.179v-.234h.179l-.001-.353h.234l.001.353h.236v.234zm1.335 0h-.236l-.001.891h-.234l.001-.891h-.179v-.234h.179l-.001-.353h.234l.001.353h.236v.234zm.67.92c-.103 0-.198-.027-.283-.08a.59.59 0 0 1-.279-.512.613.613 0 0 1 .164-.42c.052-.055.112-.097.18-.128s.141-.046.218-.046a.547.547 0 0 1 .421.201c.051.062.088.134.112.216s.031.167.021.259h-.867c.01.052.029.099.056.141s.065.074.108.098a.314.314 0 0 0 .147.037c.057 0 .109-.014.155-.043s.086-.068.116-.118l.237.055c-.045.1-.113.181-.204.245s-.192.094-.305.094zm-.319-.689h.639a.347.347 0 0 0-.171-.251.3.3 0 0 0-.296-.001c-.045.025-.083.06-.112.105s-.049.093-.059.147zm1.934-.465h.234v1.125h-.235l-.009-.163a.37.37 0 0 1-.333.192.587.587 0 0 1-.425-.176.605.605 0 0 1-.174-.425.57.57 0 0 1 .17-.413.577.577 0 0 1 .41-.171c.082 0 .154.019.216.056s.115.084.156.142l-.01-.166zm-.349.928a.31.31 0 0 0 .288-.181c.028-.055.042-.117.042-.184s-.014-.13-.042-.186-.066-.099-.116-.132a.3.3 0 0 0-.172-.049c-.066 0-.125.016-.179.049s-.097.077-.128.133c-.032.055-.047.117-.047.184a.37.37 0 0 0 .177.318.33.33 0 0 0 .177.048zm.807.197v-1.125h.234v.119a.419.419 0 0 1 .327-.151.448.448 0 0 1 .383.211.448.448 0 0 1 .83.24v.705h-.234v-.646a.282.282 0 0 0-.133-.236c-.041-.025-.085-.038-.135-.038s-.094.012-.135.036a.268.268 0 0 0-.133.239v.646h-.234v-.646c0-.052-.012-.099-.036-.141s-.057-.074-.098-.098a.26.26 0 0 0-.135-.036.252.252 0 0 0-.135.038.282.282 0 0 0-.133.236v.646h-.234zm2.5 0h-.233l-.377-1.125h.229l.265.79.263-.79h.236l.263.79.264-.79h.229l-.376 1.125h-.235l-.265-.795-.265.795zm1.767.029c-.103 0-.198-.027-.283-.08a.59.59 0 0 1-.279-.512.613.613 0 0 1 .164-.42c.052-.055.112-.097.18-.128s.141-.046.218-.046c.103 0 .198.027.282.08a.602.602 0 0 1 .281.514.599.599 0 0 1-.344.545.517.517 0 0 1-.218.046zm0-.234c.062 0 .118-.016.168-.049s.089-.076.117-.13a.375.375 0 0 0-.001-.358.353.353 0 0 0-.118-.13.305.305 0 0 0-.333 0 .376.376 0 0 0-.161.311.365.365 0 0 0 .164.31c.05.032.105.047.164.047zm.744.205v-1.125h.234v.119a.424.424 0 0 1 .328-.151c.042 0 .084.006.125.017l-.093.236a.255.255 0 0 0-.224.02c-.041.025-.074.057-.099.098s-.037.087-.037.137v.648h-.234zm1.777 0h-.27l-.277-.477-.181.216v.261h-.234v-1.687h.234v1.063l.418-.501h.306l-.384.458.387.667zM36.14 23.058h-.233l-.377-1.125h.229l.265.79.263-.79h.236l.263.79.264-.79h.229l-.376 1.125h-.235l-.265-.795-.265.795zm1.317-1.125h.234v1.125h-.234v-1.125zm.119-.163c-.036 0-.066-.012-.09-.035s-.036-.052-.036-.088c0-.034.012-.063.036-.087s.054-.036.089-.036c.034 0 .064.012.088.036s.036.052.036.087c0 .035-.012.064-.036.088s-.052.035-.087.035zm1.387.583v.705h-.234v-.648c0-.05-.012-.096-.037-.137s-.057-.074-.098-.098a.256.256 0 0 0-.137-.037c-.05 0-.095.012-.136.037s-.074.057-.099.098-.037.087-.037.137v.648h-.234v-1.125h.234v.119a.424.424 0 0 1 .328-.151c.083 0 .159.02.227.061a.46.46 0 0 1 .223.39zm.562.726c-.059-.004-.117-.016-.173-.036s-.106-.048-.148-.082a.333.333 0 0 1-.094-.124l.199-.085c.01.02.027.04.051.06s.054.036.087.048a.302.302 0 0 0 .201.003c.031-.011.056-.026.075-.047s.029-.046.029-.075c0-.033-.011-.058-.034-.076s-.049-.033-.082-.043l-.099-.028c-.073-.016-.141-.039-.202-.067s-.109-.066-.145-.111a.264.264 0 0 1-.054-.168c0-.072.02-.134.059-.187s.09-.094.153-.123a.538.538 0 0 1 .451.014.416.416 0 0 1 .172.157l-.186.11c-.011-.023-.028-.043-.051-.061a.289.289 0 0 0-.166-.062c-.038-.002-.074.003-.107.014s-.058.025-.078.047c-.019.022-.029.049-.029.083s.012.058.035.074c.023.016.053.029.088.038s.073.021.11.033c.067.021.129.047.188.078s.106.067.142.111.053.098.052.162c0 .07-.021.132-.064.186s-.097.094-.164.121-.139.039-.215.035zm1.911-.34.209.114c-.051.071-.116.128-.195.171s-.163.064-.254.064c-.103 0-.198-.027-.283-.08a.59.59 0 0 1-.279-.512.613.613 0 0 1 .164-.42c.052-.055.112-.097.18-.128s.141-.046.218-.046c.092 0 .176.021.254.064s.144.1.195.172l-.209.114a.312.312 0 0 0-.239-.115c-.061 0-.117.017-.168.051s-.089.077-.118.132a.38.38 0 0 0 .119.486.294.294 0 0 0 .299.017.338.338 0 0 0 .107-.083zm1.396-.386v.705h-.234v-.648c0-.05-.012-.096-.037-.137s-.057-.074-.098-.098a.256.256 0 0 0-.137-.037c-.05 0-.095.012-.136.037s-.074.057-.099.098-.037.087-.037.137v.648h-.234v-1.687h.234v.682a.424.424 0 0 1 .328-.151c.083 0 .159.02.227.061a.46.46 0 0 1 .223.39zm1.077-.42h.234v1.125h-.235l-.009-.163a.37.37 0 0 1-.333.192.587.587 0 0 1-.425-.176.589.589 0 0 1-.174-.425.57.57 0 0 1 .17-.413.567.567 0 0 1 .41-.171c.082 0 .154.019.216.056s.115.084.156.142l-.01-.166zm-.348.928a.31.31 0 0 0 .288-.181c.028-.055.042-.117.042-.184s-.014-.13-.042-.186c-.028-.055-.066-.099-.116-.132s-.106-.049-.172-.049c-.065 0-.125.016-.179.049s-.097.077-.128.133c-.032.055-.047.117-.047.184a.37.37 0 0 0 .177.318.33.33 0 0 0 .177.048zm.807.197v-1.125h.234v.119a.419.419 0 0 1 .327-.151.448.448 0 0 1 .383.211.448.448 0 0 1 .83.24v.705h-.234v-.646a.282.282 0 0 0-.133-.236.252.252 0 0 0-.135-.038.268.268 0 0 0-.268.275v.646h-.234v-.646c0-.052-.012-.099-.036-.141s-.057-.074-.098-.098a.26.26 0 0 0-.135-.036.252.252 0 0 0-.135.038.282.282 0 0 0-.133.236v.646h-.234zm2.233.562h-.234v-1.687h.234v.165c.037-.058.085-.105.144-.141s.127-.054.207-.054a.596.596 0 0 1 .418 1.012.582.582 0 0 1-.418.173c-.08 0-.148-.018-.207-.054s-.107-.084-.144-.141v.725zm.349-1.49c-.065 0-.123.016-.172.049s-.088.077-.116.133c-.028.055-.042.116-.042.183s.014.129.042.184c.028.055.066.1.116.133s.107.049.172.049a.344.344 0 0 0 .307-.181.363.363 0 0 0 .048-.186.37.37 0 0 0-.176-.316.337.337 0 0 0-.179-.049zm.755-.197h.234v1.125h-.234v-1.125zm.119-.163c-.036 0-.066-.012-.09-.035s-.036-.052-.036-.088c0-.034.012-.063.036-.087s.054-.036.089-.036c.034 0 .064.012.088.036s.036.052.036.087c0 .035-.012.064-.036.088s-.052.035-.087.035zm.859 1.317c-.103 0-.198-.027-.283-.08a.59.59 0 0 1-.279-.512.613.613 0 0 1 .164-.42c.052-.055.112-.097.18-.128s.141-.046.218-.046c.103 0 .198.027.282.08a.602.602 0 0 1 .281.514.599.599 0 0 1-.344.545.517.517 0 0 1-.218.046zm0-.234c.062 0 .118-.016.168-.049s.089-.076.117-.13a.375.375 0 0 0-.001-.358.353.353 0 0 0-.118-.13.305.305 0 0 0-.333 0 .376.376 0 0 0-.161.311.365.365 0 0 0 .164.31c.05.032.105.047.164.047zm1.756-.5v.705h-.234v-.648c0-.05-.012-.096-.037-.137s-.057-.074-.098-.098a.256.256 0 0 0-.137-.037c-.05 0-.095.012-.136.037s-.074.057-.099.098-.037.087-.037.137v.648h-.234v-1.125h.234v.119a.424.424 0 0 1 .328-.151c.083 0 .159.02.227.061a.46.46 0 0 1 .223.39zm.562.726c-.059-.004-.117-.016-.173-.036s-.106-.048-.148-.082a.323.323 0 0 1-.094-.124l.199-.085c.01.02.027.04.051.06s.054.036.087.048a.302.302 0 0 0 .201.003c.031-.011.056-.026.075-.047s.029-.046.029-.075c0-.033-.011-.058-.034-.076s-.049-.033-.082-.043l-.099-.028c-.074-.016-.141-.039-.202-.067s-.109-.066-.145-.111a.264.264 0 0 1-.054-.168c0-.072.019-.134.059-.187s.09-.094.153-.123a.538.538 0 0 1 .451.014.416.416 0 0 1 .172.157l-.186.11c-.011-.023-.028-.043-.051-.061a.289.289 0 0 0-.166-.062c-.038-.002-.074.003-.107.014s-.058.025-.078.047c-.02.022-.029.049-.029.083s.012.058.035.074c.023.016.052.029.088.038s.073.021.11.033c.067.021.129.047.188.078s.106.067.142.111.053.098.052.162c0 .07-.021.132-.064.186s-.097.094-.164.121-.139.039-.215.035zm1.648-.726v.705h-.234v-.648c0-.05-.012-.096-.037-.137s-.057-.074-.098-.098a.256.256 0 0 0-.137-.037c-.05 0-.095.012-.136.037s-.074.057-.099.098-.037.087-.037.137v.648h-.234v-1.687h.234v.682a.424.424 0 0 1 .328-.151c.083 0 .159.02.227.061a.46.46 0 0 1 .223.39zm.225-.42h.234v1.125h-.234v-1.125zm.119-.163c-.036 0-.066-.012-.09-.035s-.036-.052-.036-.088c0-.034.012-.063.036-.087s.054-.036.089-.036c.034 0 .064.012.088.036s.036.052.036.087c0 .035-.012.064-.036.088s-.052.035-.087.035zm.603 1.85h-.234v-1.687h.234v.165c.037-.058.085-.105.144-.141s.127-.054.207-.054a.596.596 0 0 1 .418 1.012.582.582 0 0 1-.418.173c-.08 0-.148-.018-.207-.054s-.107-.084-.144-.141v.725zm.348-1.49c-.065 0-.123.016-.172.049s-.088.077-.116.133c-.028.055-.042.116-.042.183s.014.129.042.184c.028.055.066.1.116.133s.107.049.172.049a.344.344 0 0 0 .307-.181.363.363 0 0 0 .048-.186.37.37 0 0 0-.176-.316.337.337 0 0 0-.179-.049zm1.119.949c-.059-.004-.117-.016-.173-.036s-.106-.048-.148-.082a.333.333 0 0 1-.094-.124l.199-.085c.01.02.027.04.051.06s.054.036.087.048a.302.302 0 0 0 .201.003c.031-.011.056-.026.075-.047s.029-.046.029-.075c0-.033-.011-.058-.034-.076s-.049-.033-.082-.043l-.099-.028c-.073-.016-.141-.039-.202-.067s-.109-.066-.145-.111a.264.264 0 0 1-.054-.168c0-.072.02-.134.059-.187s.09-.094.153-.123a.538.538 0 0 1 .451.014.416.416 0 0 1 .172.157l-.186.11c-.011-.023-.028-.043-.051-.061a.289.289 0 0 0-.166-.062c-.038-.002-.074.003-.107.014s-.058.025-.078.047c-.019.022-.029.049-.029.083s.012.058.035.074c.023.016.053.029.088.038s.073.021.11.033c.067.021.129.047.188.078s.106.067.142.111.053.098.052.162c0 .07-.021.132-.064.186s-.097.094-.164.121-.139.039-.215.035z"/></symbol><symbol id="icon-footer-modal" viewBox="0 0 32 32"><path fill="#f1bc19" style="fill:var(--color1,#f1bc19)" d="M24.64 3.84a.32.32 0 1 0 0 .64.32.32 0 1 0 0-.64z"/><path fill="#e4e4f9" style="fill:var(--color2,#e4e4f9)" d="M16 4.16C9.461 4.16 4.16 9.461 4.16 16S9.461 27.84 16 27.84 27.84 22.539 27.84 16 22.539 4.16 16 4.16z"/><path fill="#f1bc19" style="fill:var(--color1,#f1bc19)" d="M26.56 3.52a1.28 1.28 0 1 0 0 2.56 1.28 1.28 0 1 0 0-2.56z"/><path fill="#8889b9" style="fill:var(--color3,#8889b9)" d="M27.84 7.04a.64.64 0 0 0 0 1.28.64.64 0 0 0 0-1.28z"/><path fill="#fbcd59" style="fill:var(--color4,#fbcd59)" d="M25.92 23.68a.64.64 0 0 0 0 1.28.64.64 0 0 0 0-1.28zM4.8 18.88a1.28 1.28 0 1 0 0 2.56 1.28 1.28 0 1 0 0-2.56z"/><path fill="#8889b9" style="fill:var(--color3,#8889b9)" d="M8 27.2a.64.64 0 0 0 0 1.28.64.64 0 0 0 0-1.28z"/><path fill="#fff" style="fill:var(--color5,#fff)" d="M5.92 15.68a.8.8 0 1 0 0 1.6.8.8 0 1 0 0-1.6zm19.52-5.44a.48.48 0 0 0 0 .96.48.48 0 0 0 0-.96z"/><path fill="#a3a3cd" style="fill:var(--color6,#a3a3cd)" d="M16 8.2c-4.286 0-7.76 3.474-7.76 7.76s3.474 7.76 7.76 7.76 7.76-3.474 7.76-7.76S20.286 8.2 16 8.2z"/><path fill="#472b29" style="fill:var(--color7,#472b29)" d="M16 23.944c-4.402 0-7.984-3.581-7.984-7.984S11.598 7.976 16 7.976s7.984 3.581 7.984 7.984-3.582 7.984-7.984 7.984zm0-15.52c-4.155 0-7.536 3.38-7.536 7.536s3.381 7.536 7.536 7.536 7.536-3.38 7.536-7.536S20.155 8.424 16 8.424z"/><path fill="#565fa1" style="fill:var(--color8,#565fa1)" d="M16 9.333a6.56 6.56 0 1 0 0 13.12 6.56 6.56 0 1 0 0-13.12z"/><path fill="#472b29" style="fill:var(--color7,#472b29)" d="M22.216 14.28a.16.16 0 0 1-.153-.113 6.236 6.236 0 0 0-.561-1.287.16.16 0 1 1 .277-.16 6.606 6.606 0 0 1 .59 1.353.16.16 0 0 1-.152.207z"/><path fill="#472b29" style="fill:var(--color7,#472b29)" d="M16 22.64c-3.684 0-6.68-2.988-6.68-6.66S12.316 9.32 16 9.32a6.696 6.696 0 0 1 5.281 2.58c.054.07.042.17-.028.224s-.17.042-.225-.028A6.374 6.374 0 0 0 16 9.639c-3.507 0-6.36 2.844-6.36 6.34s2.853 6.34 6.36 6.34 6.36-2.844 6.36-6.34c0-.318-.024-.639-.071-.951a.16.16 0 0 1 .316-.048c.049.328.075.664.075.999 0 3.672-2.996 6.66-6.68 6.66z"/><path fill="#fefdef" style="fill:var(--color9,#fefdef)" d="M19.679 13.468c.117-.535.066-1.198-.156-1.862-1.159 0-2.028.869-2.028.869l.006.007c-.02 0-.04-.003-.061-.003h-2.88l-.041.002.005-.006s-.869-.869-2.028-.869c-.219.657-.272 1.313-.16 1.845a3.024 3.024 0 0 0-.816 2.068 3.04 3.04 0 0 0 3.04 3.04h.343a1.56 1.56 0 0 0-.798 1.119c-.55.074-1.273.058-1.609-.446-.58-.869-.869-.869-1.159-.869s-.29.29 0 .58.29.29.58.869c.247.494.9 1.055 2.163.852v1.127c0 .143.025.279.061.41.776.185 2.081.34 3.733-.048.028-.116.046-.236.046-.362V19.93c0-.595-.335-1.106-.823-1.372h.343a3.04 3.04 0 0 0 3.04-3.04c0-.792-.305-1.511-.801-2.052z"/><path fill="#472b29" style="fill:var(--color7,#472b29)" d="M15.85 22.556a7.565 7.565 0 0 1-1.746-.197.158.158 0 0 1-.117-.114 1.713 1.713 0 0 1-.067-.452v-.945c-1.46.164-2.009-.689-2.146-.964-.278-.556-.278-.556-.549-.828-.224-.224-.313-.467-.238-.647.054-.131.182-.205.351-.205.389 0 .71.068 1.292.94.268.403.856.441 1.342.39.074-.313.232-.594.455-.817a3.204 3.204 0 0 1-3.067-3.197c0-.781.285-1.53.804-2.116-.098-.551-.035-1.204.18-1.848a.16.16 0 0 1 .152-.109c1.074 0 1.898.691 2.097.874h2.833c.199-.182 1.022-.874 2.097-.874a.16.16 0 0 1 .152.109c.217.652.279 1.311.176 1.866a3.19 3.19 0 0 1 .789 2.099 3.204 3.204 0 0 1-3.067 3.197c.32.319.507.753.507 1.214v1.861c0 .125-.017.256-.051.399a.16.16 0 0 1-.119.119 8.967 8.967 0 0 1-2.06.245zm-1.577-.487c.772.172 1.969.288 3.466-.047a1.34 1.34 0 0 0 .022-.229v-1.861c0-.511-.284-.982-.74-1.231a.16.16 0 0 1 .076-.301h.344a2.883 2.883 0 0 0 2.88-2.88c0-.719-.27-1.409-.759-1.944a.16.16 0 0 1-.038-.142c.106-.485.065-1.073-.115-1.665-.918.049-1.631.664-1.773.795a.158.158 0 0 1-.137.079l-.033-.002-2.903-.001a.203.203 0 0 1-.141-.058l-.007.007c-.008-.008-.78-.765-1.799-.82-.178.586-.221 1.168-.119 1.649a.158.158 0 0 1-.04.142 2.867 2.867 0 0 0-.773 1.959 2.883 2.883 0 0 0 2.88 2.88h.343a.16.16 0 0 1 .076.301 1.388 1.388 0 0 0-.716 1.004.16.16 0 0 1-.137.133c-.852.115-1.462-.063-1.764-.516-.532-.798-.772-.798-1.026-.798-.044 0-.058.01-.058.01-.008.02.014.139.171.296.308.308.319.331.61.911.118.236.612.99 1.995.765a.158.158 0 0 1 .185.158v1.127c0 .086.011.175.033.276z"/><path fill="#fefdef" style="fill:var(--color9,#fefdef)" d="M19.34 16.436c-.288.638-.92 1.169-2.033 1.258z"/><path fill="#472b29" style="fill:var(--color7,#472b29)" d="M17.307 17.773a.081.081 0 0 1-.08-.074.079.079 0 0 1 .073-.086c1.218-.098 1.741-.713 1.967-1.211.019-.041.066-.059.106-.04s.058.065.04.106c-.343.761-1.089 1.224-2.1 1.305h-.006z"/><path fill="#fefdef" style="fill:var(--color9,#fefdef)" d="M19.507 15.171c.036.241.035.497-.01.749z"/><path fill="#472b29" style="fill:var(--color7,#472b29)" d="M19.498 16.001 19.484 16a.079.079 0 0 1-.065-.092c.041-.235.044-.485.009-.724a.08.08 0 1 1 .158-.023c.038.259.035.52-.01.775a.078.078 0 0 1-.078.066z"/><path fill="#fefdef" style="fill:var(--color9,#fefdef)" d="M18.907 14.04c.203.144.367.377.476.658z"/><path fill="#472b29" style="fill:var(--color7,#472b29)" d="M19.383 14.778a.082.082 0 0 1-.075-.051c-.107-.274-.262-.489-.448-.621-.036-.026-.044-.076-.019-.112s.076-.044.112-.019c.212.151.386.391.504.694a.08.08 0 0 1-.045.104.074.074 0 0 1-.029.005z"/></symbol><symbol id="icon-footer-close" viewBox="0 0 32 32"><path style="fill:var(--close-icon-color)" d="M6.654 5.32a1.333 1.333 0 0 0-.93 2.288l8.391 8.391-8.391 8.391a1.333 1.333 0 1 0 1.884 1.885l8.391-8.391 8.391 8.391a1.333 1.333 0 1 0 1.885-1.884L17.884 16l8.391-8.391a1.333 1.333 0 0 0-.929-2.289l-.041.001h.002c-.36.011-.683.163-.916.403L16 14.115 7.609 5.724a1.33 1.33 0 0 0-.956-.404z"/></symbol></defs></svg>