<svg aria-hidden="true" style="width:0;height:0;position:absolute;overflow:hidden" xmlns="http://www.w3.org/2000/svg"><defs><symbol id="icon-menu" viewBox="0 0 32 32"><path stroke-linejoin="round" stroke-linecap="round" stroke-width="2.286" d="M22.667 13.333H4M28 8H4M28 18.667H4M22.667 24H4"/></symbol><symbol id="icon-arrow" viewBox="0 0 32 32"><path fill="none" stroke="#eac645" style="stroke:var(--color1,#eac645)" stroke-linejoin="round" stroke-linecap="round" stroke-width="3.2" d="M5.333 16h21.333m.001 0-8-8m8 8-8 8"/></symbol><symbol id="icon-dump" viewBox="0 0 32 32"><path d="M32 16c0 8.837-7.163 16-16 16S0 24.837 0 16 7.163 0 16 0s16 7.163 16 16z"/><path fill="none" stroke="#fff" style="stroke:var(--color3,#fff)" stroke-linejoin="round" stroke-linecap="round" stroke-width="1.684" d="M13.684 9.053h4.632m-9.263 2.315h13.895m-1.544 0-.541 8.12c-.081 1.218-.122 1.827-.385 2.289a2.322 2.322 0 0 1-1.002.938c-.478.232-1.089.232-2.31.232h-2.33c-1.221 0-1.832 0-2.31-.232a2.31 2.31 0 0 1-1.002-.938c-.263-.462-.304-1.071-.385-2.289l-.541-8.12m3.858 3.474v3.86m3.088-3.86v3.86"/></symbol><symbol id="icon-next" viewBox="0 0 32 32"><path d="M17.867 16.946a1.334 1.334 0 0 0 0-1.894l-6.12-6.107a1.334 1.334 0 1 1 1.88-1.894l6.12 6.12a4.001 4.001 0 0 1 0 5.654l-6.12 6.12a1.337 1.337 0 0 1-2.172-.434 1.331 1.331 0 0 1 .292-1.46l6.12-6.107z"/></symbol><symbol id="icon-down" viewBox="0 0 28 32"><path fill="#fff" style="fill:var(--color3,#fff)" d="M5.898 12h16.513l-7.423 8.391c-.221.25-.521.39-.834.39s-.613-.14-.834-.39L5.897 12z"/></symbol><symbol id="icon-lock" viewBox="0 0 32 32"><path stroke-linejoin="round" stroke-linecap="round" stroke-width="2.286" d="M22.667 14.667v-4a6.667 6.667 0 0 0-13.334 0v4M10.4 28h11.2c2.24 0 3.36 0 4.216-.436a3.991 3.991 0 0 0 1.748-1.748C28 24.96 28 23.84 28 21.6v-.533c0-2.24 0-3.36-.436-4.216a3.991 3.991 0 0 0-1.748-1.748c-.856-.436-1.976-.436-4.216-.436H10.4c-2.24 0-3.36 0-4.216.436a3.996 3.996 0 0 0-1.748 1.748C4 17.707 4 18.827 4 21.067v.533c0 2.24 0 3.36.436 4.216a3.991 3.991 0 0 0 1.748 1.748C7.04 28 8.16 28 10.4 28z"/></symbol><symbol id="icon-mail" viewBox="0 0 32 32"><path stroke-linejoin="round" stroke-linecap="round" stroke-width="2.286" d="m28.666 24-8.857-8m-7.619 0-8.857 8M2.667 9.333l10.887 7.621c.882.617 1.322.926 1.802 1.045.423.106.866.106 1.29 0 .479-.12.92-.428 1.802-1.045l10.887-7.621M9.067 26.667h13.867c2.24 0 3.36 0 4.216-.436a3.996 3.996 0 0 0 1.748-1.748c.436-.856.436-1.976.436-4.216v-8.533c0-2.24 0-3.36-.436-4.216A3.991 3.991 0 0 0 27.15 5.77c-.856-.436-1.976-.436-4.216-.436H9.067c-2.24 0-3.36 0-4.216.436a3.991 3.991 0 0 0-1.748 1.748c-.436.856-.436 1.976-.436 4.216v8.533c0 2.24 0 3.36.436 4.216a3.996 3.996 0 0 0 1.748 1.748c.856.436 1.976.436 4.216.436z"/></symbol><symbol id="icon-up" viewBox="0 0 32 32"><path fill="#fff" style="fill:var(--color3,#fff)" d="M4.5 19.6 15.7 8.367c.133-.133.278-.228.433-.283s.322-.084.5-.084.345.028.5.084.3.149.433.283L28.799 19.6c.311.311.467.7.467 1.167s-.167.867-.5 1.2c-.333.333-.722.5-1.167.5s-.833-.167-1.167-.5l-9.8-9.8-9.8 9.8c-.311.311-.694.467-1.149.467s-.851-.167-1.184-.5-.5-.722-.5-1.167c0-.444.167-.833.5-1.167z"/></symbol><symbol id="icon-user" viewBox="0 0 32 32"><path fill="#f6f6f6" style="fill:var(--color4,#f6f6f6)" d="M32 16c0 8.837-7.163 16-16 16S0 24.837 0 16 7.163 0 16 0s16 7.163 16 16z"/><path fill="#4f2ee8" style="fill:var(--color2,#4f2ee8)" d="M10.523 22.847a5.477 5.477 0 1 1 10.954 0H10.522zM16 16.685c-2.27 0-4.108-1.838-4.108-4.108S13.73 8.469 16 8.469c2.27 0 4.108 1.838 4.108 4.108S18.27 16.685 16 16.685z"/></symbol><symbol id="icon-close" viewBox="0 0 32 32"><path stroke-linejoin="round" stroke-linecap="round" stroke-width="3.429" d="M24 8 8 24M8 8l16 16"/></symbol><symbol id="icon-ukraine" viewBox="0 0 20 32"><path fill="#fff" style="fill:var(--color1,#fff)" d="M9.005 30.888a8.64 8.64 0 0 1-3.414-5.351H0V2.42c2.991 1.443 5.153 4.599 5.388 7.876l.846 6.493-.407-.045c-.893 0-1.676.812-1.676 1.608 0 .752.595 1.383 1.378 1.548l1.018.226c1.676-3.051 2.631-6.042 2.631-8.973 0-2.645-.36-5.291-.423-7.996 0-1.202.486-2.3 1.253-3.156.783.857 1.253 1.954 1.253 3.156 0 2.705-.423 5.351-.423 7.996 0 2.931.955 5.922 2.631 8.973l1.018-.226c.783-.165 1.378-.812 1.378-1.548 0-.812-.783-1.608-1.676-1.608l-.423.06.846-6.493c.423-3.277 2.396-6.448 5.388-7.876v23.117h-5.576c-.423 2.179-1.613 4.148-3.414 5.351-.423.286-.783.631-1.018 1.097-.219-.466-.579-.812-.987-1.112zM2.647 17.556c.235-.857.893-1.608 1.738-2.074l-.658-5.351a8.288 8.288 0 0 0-2.036-4.374v11.784h.955v.015zm2.819 6.373c0-.812.125-1.548.298-2.3l-.783-.18c-1.143-.346-2.036-1.203-2.334-2.3h-.955v4.78h3.774zm3.712 0c0-.977-.783-1.834-1.801-1.954-.172.631-.298 1.263-.298 1.954h2.099zm0 1.623H7.314c.298 1.263.955 2.42 1.864 3.397v-3.397zm2.631-5.005c-.72-1.262-1.378-2.585-1.801-3.968-.423 1.383-1.081 2.706-1.801 3.968.72.165 1.316.631 1.801 1.157.486-.526 1.081-.992 1.801-1.157zm1.143 3.382c0-.691-.125-1.323-.297-1.954-1.018.12-1.801.977-1.801 1.954h2.099zm-.235 1.623h-1.864v3.397c.908-.992 1.566-2.134 1.864-3.397zm5.623-1.623v-4.78h-.955c-.298 1.097-1.206 1.954-2.334 2.3l-.783.18c.172.752.298 1.488.298 2.3h3.774zm0-6.373V5.757c-1.081 1.202-1.864 2.706-2.036 4.374l-.658 5.351c.846.466 1.504 1.203 1.739 2.074h.955z"/></symbol><symbol id="icon-arrow-down" viewBox="0 0 32 32"><path fill="#4f2ee8" style="fill:var(--color1,#4f2ee8)" d="M15.053 17.867a1.334 1.334 0 0 0 1.894 0l6.107-6.12a1.334 1.334 0 1 1 1.894 1.88l-6.12 6.12a4.001 4.001 0 0 1-5.654 0l-6.12-6.12a1.337 1.337 0 0 1 .434-2.172 1.331 1.331 0 0 1 1.46.292l6.107 6.12z"/></symbol><symbol id="icon-mail-new" viewBox="0 0 38 32"><path d="M27.782 30.982H10.037c-3.055 0-4.655 0-5.964-.727-1.309-.582-2.182-1.6-2.909-2.909-.727-1.455-.727-2.909-.727-5.964V7.127c.145-1.018.291-1.745.582-2.473.582-1.309 1.6-2.182 2.909-2.909 1.455-.727 2.909-.727 5.964-.727h17.6c3.055 0 4.655 0 5.964.727 1.309.582 2.182 1.6 2.909 2.909.436.727.582 1.455.582 2.473.145.291.145.582 0 .727v13.673c0 3.055 0 4.655-.727 5.964-.582 1.164-1.6 2.182-2.909 2.909-1.018.582-2.473.582-5.527.582zM4.218 26.764c.291.436.727.727 1.164.873.727.436 2.182.436 4.655.436h17.6c2.473 0 3.927 0 4.655-.436.436-.291.873-.582 1.164-.873l-9.891-9.018-.727.582c-1.164.873-1.891 1.309-2.764 1.6-.727.145-1.6.145-2.327 0-.873-.145-1.6-.727-2.764-1.6l-.727-.582L4.22 26.764zm-.873-16.437v13.382l8.291-7.564-8.291-5.818zm22.691 5.818 8.291 7.564V10.327l-8.291 5.818zm-11.054-1.309L16.727 16c.873.727 1.455 1.018 1.745 1.164s.582.145.873 0c.291-.145.873-.436 1.745-1.164l13.091-9.164c0-.436-.145-.727-.291-1.018a2.883 2.883 0 0 0-1.6-1.6c-.727-.436-2.182-.436-4.655-.436h-17.6c-2.473 0-3.927 0-4.655.436s-1.309 1.018-1.6 1.6c-.145.291-.145.582-.291 1.018l11.491 8c-.145 0-.145 0 0 0z"/></symbol><symbol id="icon-lock-new" viewBox="0 0 32 32"><path d="M22.533 31.333H9.466c-2.8 0-4.267 0-5.467-.667-1.2-.533-2-1.467-2.667-2.667-.667-1.333-.667-2.667-.667-5.467v-.667c0-2.8 0-4.267.667-5.467.533-1.2 1.467-2 2.667-2.667.8-.4 1.6-.533 2.933-.533V9.731c0-5.067 4.133-9.067 9.067-9.067 5.067 0 9.067 4.133 9.067 9.067v3.333c1.2 0 2.133.267 2.933.667 1.2.533 2 1.467 2.667 2.667.667 1.333.667 2.667.667 5.467v.667c0 2.8 0 4.267-.667 5.467-.533 1.2-1.467 2-2.667 2.667s-2.667.667-5.467.667zm-13.066-15.6c-2.267 0-3.6 0-4.267.4-.667.267-1.2.8-1.467 1.467-.4.667-.4 2-.4 4.267v.667c0 2.267 0 3.6.4 4.267.267.667.8 1.2 1.467 1.467.667.4 2 .4 4.267.4h13.067c2.267 0 3.6 0 4.267-.4.667-.267 1.2-.8 1.467-1.467.4-.667.4-2 .4-4.267v-.667c0-2.267 0-3.6-.4-4.267-.267-.667-.8-1.2-1.467-1.467-.667-.4-2-.4-4.267-.4H9.467zm.133-2.666h12.933V9.734c0-3.6-2.933-6.4-6.4-6.4S9.6 6.267 9.6 9.734v3.333z"/></symbol><symbol id="icon-close-new" viewBox="0 0 32 32"><path d="M28.444 31.111c-.711 0-1.422-.178-1.956-.711L15.999 19.733 5.51 30.222c-1.067 1.067-2.667 1.067-3.733 0s-1.067-2.667 0-3.733L12.266 16 1.599 5.511c-1.067-1.067-1.067-2.667 0-3.733s2.667-1.067 3.733 0l10.667 10.489L26.488 1.778c1.067-1.067 2.667-1.067 3.733 0s1.067 2.667 0 3.733L19.732 16l10.489 10.489c1.067 1.067 1.067 2.667 0 3.733-.356.711-1.067.889-1.778.889z"/></symbol><symbol id="icon-mobile-menu" viewBox="0 0 32 32"><path d="M19.833 11.667H3.5M24.5 7h-21M24.5 16.333h-21M19.833 21H3.5" stroke-width="2" stroke-linecap="round" stroke-linejoin="round"/></symbol><symbol id="icon-mobile-close" viewBox="0 0 32 32"><path d="M21 7 7 21M7 7l14 14" stroke-width="3" stroke-linecap="round" stroke-linejoin="round"/></symbol></defs></svg>