<svg width="1047" height="569" viewBox="0 0 1047 569" fill="none" xmlns="http://www.w3.org/2000/svg">
<path d="M284.68 304V214.4H314.376C320.563 214.4 326.344 215.573 331.72 217.92C337.139 220.224 341.896 223.445 345.992 227.584C350.131 231.68 353.352 236.437 355.656 241.856C358.003 247.232 359.176 253.013 359.176 259.2C359.176 265.387 358.003 271.189 355.656 276.608C353.352 281.984 350.131 286.741 345.992 290.88C341.896 294.976 337.139 298.197 331.72 300.544C326.344 302.848 320.563 304 314.376 304H284.68ZM300.296 288.384H314.376C318.344 288.384 322.077 287.637 325.576 286.144C329.117 284.608 332.232 282.517 334.92 279.872C337.608 277.184 339.72 274.091 341.256 270.592C342.792 267.051 343.56 263.253 343.56 259.2C343.56 255.147 342.792 251.371 341.256 247.872C339.72 244.373 337.608 241.28 334.92 238.592C332.232 235.904 329.139 233.813 325.64 232.32C322.141 230.784 318.387 230.016 314.376 230.016H300.296V288.384ZM370.244 304L370.18 240H385.796L385.86 245.696C388.036 243.392 390.639 241.579 393.668 240.256C396.697 238.891 399.961 238.208 403.46 238.208C405.807 238.208 408.153 238.549 410.5 239.232L404.356 254.976C402.735 254.336 401.113 254.016 399.492 254.016C396.975 254.016 394.671 254.635 392.58 255.872C390.532 257.067 388.889 258.709 387.652 260.8C386.457 262.848 385.86 265.131 385.86 267.648V304H370.244ZM442.84 305.664C436.952 305.664 431.576 304.149 426.712 301.12C421.891 298.091 418.029 294.016 415.128 288.896C412.269 283.776 410.84 278.123 410.84 271.936C410.84 267.285 411.672 262.933 413.336 258.88C415 254.784 417.283 251.2 420.184 248.128C423.128 245.013 426.541 242.581 430.424 240.832C434.307 239.083 438.445 238.208 442.84 238.208C447.832 238.208 452.397 239.275 456.536 241.408C460.717 243.499 464.259 246.379 467.16 250.048C470.061 253.717 472.173 257.899 473.496 262.592C474.819 267.285 475.117 272.192 474.392 277.312H427.608C428.205 279.701 429.187 281.856 430.552 283.776C431.917 285.653 433.645 287.168 435.736 288.32C437.827 289.429 440.195 290.005 442.84 290.048C445.571 290.091 448.045 289.451 450.264 288.128C452.525 286.763 454.403 284.928 455.896 282.624L471.832 286.336C469.229 292.011 465.347 296.661 460.184 300.288C455.021 303.872 449.24 305.664 442.84 305.664ZM427.096 265.6H458.584C458.115 263.04 457.112 260.736 455.576 258.688C454.083 256.597 452.227 254.933 450.008 253.696C447.789 252.459 445.4 251.84 442.84 251.84C440.28 251.84 437.912 252.459 435.736 253.696C433.56 254.891 431.704 256.533 430.168 258.624C428.675 260.672 427.651 262.997 427.096 265.6ZM533.311 240H548.927V304H533.311L532.607 296.064C530.858 298.923 528.532 301.248 525.631 303.04C522.772 304.789 519.38 305.664 515.455 305.664C510.719 305.664 506.282 304.768 502.143 302.976C498.004 301.184 494.356 298.709 491.199 295.552C488.084 292.395 485.631 288.747 483.839 284.608C482.09 280.469 481.215 276.032 481.215 271.296C481.215 266.731 482.047 262.443 483.711 258.432C485.418 254.421 487.786 250.901 490.815 247.872C493.844 244.843 497.343 242.475 501.311 240.768C505.279 239.061 509.546 238.208 514.111 238.208C518.335 238.208 522.111 239.147 525.439 241.024C528.81 242.901 531.668 245.291 534.015 248.192L533.311 240ZM515.071 290.624C518.399 290.624 521.343 289.792 523.903 288.128C526.463 286.464 528.468 284.224 529.919 281.408C531.37 278.549 532.095 275.413 532.095 272C532.095 268.544 531.37 265.408 529.919 262.592C528.468 259.733 526.442 257.472 523.839 255.808C521.279 254.144 518.356 253.312 515.071 253.312C511.786 253.312 508.778 254.165 506.047 255.872C503.359 257.536 501.204 259.776 499.583 262.592C498.004 265.408 497.215 268.544 497.215 272C497.215 275.456 498.026 278.592 499.647 281.408C501.268 284.224 503.423 286.464 506.111 288.128C508.842 289.792 511.828 290.624 515.071 290.624ZM561.68 304V240H577.296V245.696C579.472 243.392 582.075 241.579 585.104 240.256C588.133 238.891 591.397 238.208 594.896 238.208C599.333 238.208 603.408 239.253 607.12 241.344C610.875 243.435 613.861 246.229 616.08 249.728C618.341 246.229 621.328 243.435 625.04 241.344C628.752 239.253 632.827 238.208 637.264 238.208C641.957 238.208 646.203 239.36 650 241.664C653.84 243.925 656.891 246.976 659.152 250.816C661.456 254.613 662.608 258.859 662.608 263.552V304H646.992V267.712C646.992 265.237 646.373 262.976 645.136 260.928C643.941 258.837 642.32 257.173 640.272 255.936C638.267 254.656 636.005 254.016 633.488 254.016C630.971 254.016 628.688 254.635 626.64 255.872C624.635 257.067 623.013 258.688 621.776 260.736C620.539 262.784 619.92 265.109 619.92 267.712V304H604.304V267.712C604.304 265.109 603.707 262.784 602.512 260.736C601.317 258.688 599.696 257.067 597.648 255.872C595.6 254.635 593.317 254.016 590.8 254.016C588.325 254.016 586.064 254.656 584.016 255.936C581.968 257.173 580.325 258.837 579.088 260.928C577.893 262.976 577.296 265.237 577.296 267.712V304H561.68ZM735.145 214.4V230.016H707.753V304H692.137V230.016H664.745V214.4H735.145ZM766.34 305.664C760.452 305.664 755.076 304.149 750.212 301.12C745.391 298.091 741.529 294.016 738.628 288.896C735.769 283.776 734.34 278.123 734.34 271.936C734.34 267.285 735.172 262.933 736.836 258.88C738.5 254.784 740.783 251.2 743.684 248.128C746.628 245.013 750.041 242.581 753.924 240.832C757.807 239.083 761.945 238.208 766.34 238.208C771.332 238.208 775.897 239.275 780.036 241.408C784.217 243.499 787.759 246.379 790.66 250.048C793.561 253.717 795.673 257.899 796.996 262.592C798.319 267.285 798.617 272.192 797.892 277.312H751.108C751.705 279.701 752.687 281.856 754.052 283.776C755.417 285.653 757.145 287.168 759.236 288.32C761.327 289.429 763.695 290.005 766.34 290.048C769.071 290.091 771.545 289.451 773.764 288.128C776.025 286.763 777.903 284.928 779.396 282.624L795.332 286.336C792.729 292.011 788.847 296.661 783.684 300.288C778.521 303.872 772.74 305.664 766.34 305.664ZM750.596 265.6H782.084C781.615 263.04 780.612 260.736 779.076 258.688C777.583 256.597 775.727 254.933 773.508 253.696C771.289 252.459 768.9 251.84 766.34 251.84C763.78 251.84 761.412 252.459 759.236 253.696C757.06 254.891 755.204 256.533 753.668 258.624C752.175 260.672 751.151 262.997 750.596 265.6ZM856.811 240H872.427V304H856.811L856.107 296.064C854.358 298.923 852.032 301.248 849.131 303.04C846.272 304.789 842.88 305.664 838.955 305.664C834.219 305.664 829.782 304.768 825.643 302.976C821.504 301.184 817.856 298.709 814.699 295.552C811.584 292.395 809.131 288.747 807.339 284.608C805.59 280.469 804.715 276.032 804.715 271.296C804.715 266.731 805.547 262.443 807.211 258.432C808.918 254.421 811.286 250.901 814.315 247.872C817.344 244.843 820.843 242.475 824.811 240.768C828.779 239.061 833.046 238.208 837.611 238.208C841.835 238.208 845.611 239.147 848.939 241.024C852.31 242.901 855.168 245.291 857.515 248.192L856.811 240ZM838.571 290.624C841.899 290.624 844.843 289.792 847.403 288.128C849.963 286.464 851.968 284.224 853.419 281.408C854.87 278.549 855.595 275.413 855.595 272C855.595 268.544 854.87 265.408 853.419 262.592C851.968 259.733 849.942 257.472 847.339 255.808C844.779 254.144 841.856 253.312 838.571 253.312C835.286 253.312 832.278 254.165 829.547 255.872C826.859 257.536 824.704 259.776 823.083 262.592C821.504 265.408 820.715 268.544 820.715 272C820.715 275.456 821.526 278.592 823.147 281.408C824.768 284.224 826.923 286.464 829.611 288.128C832.342 289.792 835.328 290.624 838.571 290.624ZM885.18 304V240H900.796V245.696C902.972 243.392 905.575 241.579 908.604 240.256C911.633 238.891 914.897 238.208 918.396 238.208C922.833 238.208 926.908 239.253 930.62 241.344C934.375 243.435 937.361 246.229 939.58 249.728C941.841 246.229 944.828 243.435 948.54 241.344C952.252 239.253 956.327 238.208 960.764 238.208C965.457 238.208 969.703 239.36 973.5 241.664C977.34 243.925 980.391 246.976 982.652 250.816C984.956 254.613 986.108 258.859 986.108 263.552V304H970.492V267.712C970.492 265.237 969.873 262.976 968.636 260.928C967.441 258.837 965.82 257.173 963.772 255.936C961.767 254.656 959.505 254.016 956.988 254.016C954.471 254.016 952.188 254.635 950.14 255.872C948.135 257.067 946.513 258.688 945.276 260.736C944.039 262.784 943.42 265.109 943.42 267.712V304H927.804V267.712C927.804 265.109 927.207 262.784 926.012 260.736C924.817 258.688 923.196 257.067 921.148 255.872C919.1 254.635 916.817 254.016 914.3 254.016C911.825 254.016 909.564 254.656 907.516 255.936C905.468 257.173 903.825 258.837 902.588 260.928C901.393 262.976 900.796 265.237 900.796 267.712V304H885.18Z" fill="#EAC645"/>
<path fill-rule="evenodd" clip-rule="evenodd" d="M541.634 425.088C529.233 413.892 514.065 405.387 496.82 400.766C438.633 385.175 378.825 419.705 363.234 477.892C358.465 495.69 358.385 513.641 362.238 530.431L391.572 522.571C384.948 507.445 383.224 490.049 387.831 472.858C398.607 432.641 439.945 408.774 480.162 419.55C496.791 424.006 510.624 433.687 520.369 446.352L541.634 425.088Z" fill="white"/>
<circle cx="452.33" cy="473.751" r="32.0802" transform="rotate(180 452.33 473.751)" fill="white"/>
<path fill-rule="evenodd" clip-rule="evenodd" d="M144.23 421.88C156.63 410.684 171.798 402.178 189.044 397.557C247.23 381.966 307.039 416.497 322.63 474.683C327.399 492.482 327.479 510.432 323.626 527.222L294.291 519.362C300.915 504.236 302.638 486.84 298.032 469.65C287.256 429.433 245.918 405.566 205.701 416.342C189.072 420.798 175.239 430.478 165.494 443.144L144.23 421.88Z" fill="white"/>
<circle cx="32.0802" cy="32.0802" r="32.0802" transform="matrix(1 0 0 -1 201.453 502.623)" fill="white"/>
<path fill-rule="evenodd" clip-rule="evenodd" d="M541.633 143.54C529.233 154.736 514.065 163.242 496.819 167.863C438.632 183.454 378.824 148.923 363.233 90.7369C358.464 72.9386 358.384 54.9886 362.237 38.1987L391.571 46.0588C384.947 61.1846 383.224 78.58 387.83 95.7705C398.606 135.988 439.944 159.854 480.162 149.078C496.79 144.623 510.624 134.942 520.369 122.276L541.633 143.54Z" fill="white"/>
<circle cx="32.0802" cy="32.0802" r="32.0802" transform="matrix(-1 0 0 1 484.41 62.7974)" fill="white"/>
<path fill-rule="evenodd" clip-rule="evenodd" d="M144.23 143.54C156.63 154.736 171.798 163.242 189.044 167.863C247.23 183.454 307.039 148.923 322.63 90.7367C327.399 72.9385 327.478 54.9885 323.626 38.1987L294.291 46.0589C300.915 61.1847 302.638 78.5799 298.032 95.7704C287.256 135.988 245.918 159.854 205.701 149.078C189.072 144.622 175.239 134.942 165.494 122.276L144.23 143.54Z" fill="white"/>
<circle cx="233.533" cy="94.8775" r="32.0802" fill="white"/>
<path fill-rule="evenodd" clip-rule="evenodd" d="M125.498 387.238C141.394 382.097 156.344 373.214 168.969 360.589C211.564 317.993 211.564 248.933 168.969 206.337C155.939 193.308 140.434 184.264 123.967 179.205L116.107 208.539C132.518 210.365 148.445 217.571 161.029 230.155C190.47 259.596 190.47 307.329 161.029 336.77C148.856 348.944 133.556 356.083 117.714 358.19L125.498 387.238Z" fill="white"/>
<circle cx="128.006" cy="285.571" r="32.0802" transform="rotate(-60 128.006 285.571)" fill="white"/>
<path d="M405.018 334V338.16H396.098V362H391.938V338.16H383.038V334H405.018ZM421.546 342H425.706V362H421.526L421.366 359.1C420.779 360.127 419.986 360.953 418.986 361.58C417.986 362.207 416.806 362.52 415.446 362.52C413.979 362.52 412.599 362.247 411.306 361.7C410.013 361.14 408.873 360.367 407.886 359.38C406.913 358.393 406.153 357.26 405.606 355.98C405.059 354.687 404.786 353.3 404.786 351.82C404.786 350.393 405.053 349.053 405.586 347.8C406.119 346.533 406.859 345.427 407.806 344.48C408.753 343.533 409.846 342.793 411.086 342.26C412.339 341.713 413.679 341.44 415.106 341.44C416.559 341.44 417.839 341.773 418.946 342.44C420.066 343.093 420.993 343.933 421.726 344.96L421.546 342ZM415.346 358.5C416.519 358.5 417.546 358.213 418.426 357.64C419.306 357.053 419.986 356.267 420.466 355.28C420.959 354.293 421.206 353.2 421.206 352C421.206 350.787 420.959 349.687 420.466 348.7C419.973 347.713 419.286 346.933 418.406 346.36C417.539 345.773 416.519 345.48 415.346 345.48C414.186 345.48 413.126 345.773 412.166 346.36C411.206 346.947 410.446 347.733 409.886 348.72C409.326 349.707 409.046 350.8 409.046 352C409.046 353.213 409.333 354.313 409.906 355.3C410.493 356.273 411.259 357.053 412.206 357.64C413.166 358.213 414.213 358.5 415.346 358.5ZM429.853 362V332H434.013V362H429.853ZM447.325 362.52C445.485 362.52 443.805 362.047 442.285 361.1C440.778 360.153 439.572 358.887 438.665 357.3C437.772 355.7 437.325 353.933 437.325 352C437.325 350.533 437.585 349.167 438.105 347.9C438.625 346.62 439.338 345.5 440.245 344.54C441.165 343.567 442.232 342.807 443.445 342.26C444.658 341.713 445.952 341.44 447.325 341.44C448.858 341.44 450.265 341.76 451.545 342.4C452.825 343.027 453.918 343.9 454.825 345.02C455.732 346.127 456.398 347.407 456.825 348.86C457.252 350.3 457.378 351.833 457.205 353.46H441.785C441.958 354.38 442.292 355.213 442.785 355.96C443.292 356.693 443.932 357.273 444.705 357.7C445.492 358.127 446.365 358.347 447.325 358.36C448.338 358.36 449.258 358.107 450.085 357.6C450.925 357.093 451.612 356.393 452.145 355.5L456.365 356.48C455.565 358.253 454.358 359.707 452.745 360.84C451.132 361.96 449.325 362.52 447.325 362.52ZM441.645 350.28H453.005C452.872 349.32 452.532 348.453 451.985 347.68C451.452 346.893 450.778 346.273 449.965 345.82C449.165 345.353 448.285 345.12 447.325 345.12C446.378 345.12 445.498 345.347 444.685 345.8C443.885 346.253 443.218 346.873 442.685 347.66C442.165 348.433 441.818 349.307 441.645 350.28ZM478.517 349.46V362H474.357V350.48C474.357 349.587 474.137 348.773 473.697 348.04C473.271 347.307 472.691 346.727 471.957 346.3C471.237 345.86 470.424 345.64 469.517 345.64C468.637 345.64 467.831 345.86 467.097 346.3C466.364 346.727 465.777 347.307 465.337 348.04C464.897 348.773 464.677 349.587 464.677 350.48V362H460.517V342H464.677V344.12C465.371 343.293 466.224 342.64 467.237 342.16C468.251 341.68 469.344 341.44 470.517 341.44C471.997 341.44 473.344 341.8 474.557 342.52C475.771 343.24 476.731 344.207 477.437 345.42C478.157 346.633 478.517 347.98 478.517 349.46ZM493.069 346.16H488.869L488.849 362H484.689L484.709 346.16H481.529V342H484.709L484.689 335.72H488.849L488.869 342H493.069V346.16ZM515.899 362H511.759L505.059 342H509.139L513.859 356.04L518.539 342H522.739L527.419 356.04L532.119 342H536.199L529.519 362H525.339L520.619 347.86L515.899 362ZM539.306 342H543.466V362H539.306V342ZM541.426 339.1C540.786 339.1 540.253 338.893 539.826 338.48C539.4 338.067 539.186 337.547 539.186 336.92C539.186 336.307 539.4 335.793 539.826 335.38C540.253 334.953 540.78 334.74 541.406 334.74C542.02 334.74 542.54 334.953 542.966 335.38C543.393 335.793 543.606 336.307 543.606 336.92C543.606 337.547 543.393 338.067 542.966 338.48C542.553 338.893 542.04 339.1 541.426 339.1ZM566.095 349.46V362H561.935V350.48C561.935 349.587 561.715 348.773 561.275 348.04C560.849 347.307 560.269 346.727 559.535 346.3C558.815 345.86 558.002 345.64 557.095 345.64C556.215 345.64 555.409 345.86 554.675 346.3C553.942 346.727 553.355 347.307 552.915 348.04C552.475 348.773 552.255 349.587 552.255 350.48V362H548.095V342H552.255V344.12C552.949 343.293 553.802 342.64 554.815 342.16C555.829 341.68 556.922 341.44 558.095 341.44C559.575 341.44 560.922 341.8 562.135 342.52C563.349 343.24 564.309 344.207 565.015 345.42C565.735 346.633 566.095 347.98 566.095 349.46ZM576.088 362.38C575.034 362.313 574.008 362.1 573.008 361.74C572.008 361.38 571.128 360.893 570.368 360.28C569.621 359.653 569.061 358.92 568.688 358.08L572.228 356.56C572.401 356.92 572.701 357.273 573.128 357.62C573.568 357.967 574.081 358.253 574.668 358.48C575.254 358.693 575.868 358.8 576.508 358.8C577.134 358.8 577.714 358.713 578.247 358.54C578.794 358.353 579.241 358.073 579.588 357.7C579.934 357.327 580.108 356.88 580.108 356.36C580.108 355.773 579.908 355.32 579.508 355C579.121 354.667 578.634 354.413 578.048 354.24C577.461 354.067 576.874 353.9 576.288 353.74C574.981 353.447 573.781 353.047 572.688 352.54C571.608 352.02 570.748 351.36 570.108 350.56C569.468 349.747 569.148 348.753 569.148 347.58C569.148 346.3 569.494 345.193 570.188 344.26C570.881 343.313 571.788 342.587 572.908 342.08C574.041 341.573 575.248 341.32 576.528 341.32C578.128 341.32 579.594 341.66 580.928 342.34C582.261 343.02 583.281 343.953 583.988 345.14L580.688 347.1C580.488 346.7 580.188 346.34 579.788 346.02C579.388 345.7 578.934 345.447 578.428 345.26C577.921 345.06 577.394 344.947 576.848 344.92C576.168 344.893 575.534 344.973 574.948 345.16C574.374 345.333 573.914 345.613 573.567 346C573.221 346.387 573.048 346.88 573.048 347.48C573.048 348.067 573.254 348.507 573.668 348.8C574.081 349.08 574.601 349.307 575.228 349.48C575.868 349.653 576.521 349.847 577.188 350.06C578.374 350.433 579.488 350.893 580.528 351.44C581.568 351.973 582.408 352.633 583.048 353.42C583.688 354.207 583.994 355.167 583.968 356.3C583.968 357.553 583.588 358.653 582.828 359.6C582.081 360.547 581.108 361.267 579.908 361.76C578.708 362.253 577.434 362.46 576.088 362.38ZM612.222 342H616.382V362.52C616.382 363.893 616.088 365.16 615.502 366.32C614.928 367.48 614.148 368.48 613.162 369.32C612.175 370.173 611.042 370.833 609.762 371.3C608.495 371.767 607.168 372 605.782 372C604.382 372 603.035 371.7 601.742 371.1C600.448 370.513 599.308 369.713 598.322 368.7C597.348 367.687 596.622 366.54 596.142 365.26L599.962 363.54C600.228 364.367 600.655 365.1 601.242 365.74C601.842 366.38 602.535 366.887 603.322 367.26C604.122 367.633 604.942 367.82 605.782 367.82C606.608 367.82 607.402 367.687 608.162 367.42C608.935 367.167 609.622 366.807 610.222 366.34C610.835 365.873 611.322 365.313 611.682 364.66C612.042 364.007 612.222 363.293 612.222 362.52V359.14C611.568 360.153 610.728 360.973 609.702 361.6C608.675 362.213 607.482 362.52 606.122 362.52C604.708 362.52 603.375 362.247 602.122 361.7C600.868 361.153 599.768 360.4 598.822 359.44C597.875 358.467 597.135 357.347 596.602 356.08C596.068 354.813 595.802 353.453 595.802 352C595.802 350.547 596.068 349.187 596.602 347.92C597.135 346.64 597.875 345.52 598.822 344.56C599.768 343.587 600.868 342.827 602.122 342.28C603.375 341.733 604.708 341.46 606.122 341.46C607.482 341.46 608.675 341.773 609.702 342.4C610.728 343.013 611.568 343.833 612.222 344.86V342ZM606.162 358.5C607.322 358.5 608.335 358.207 609.202 357.62C610.068 357.02 610.742 356.227 611.222 355.24C611.702 354.253 611.942 353.173 611.942 352C611.942 350.8 611.695 349.713 611.202 348.74C610.722 347.753 610.048 346.967 609.182 346.38C608.315 345.78 607.308 345.48 606.162 345.48C605.042 345.48 604.015 345.773 603.082 346.36C602.162 346.947 601.428 347.733 600.882 348.72C600.335 349.707 600.062 350.8 600.062 352C600.062 353.2 600.335 354.293 600.882 355.28C601.442 356.267 602.182 357.053 603.102 357.64C604.035 358.213 605.055 358.5 606.162 358.5ZM636.39 342H640.55V362H636.37L636.21 359.1C635.623 360.127 634.83 360.953 633.83 361.58C632.83 362.207 631.65 362.52 630.29 362.52C628.823 362.52 627.443 362.247 626.15 361.7C624.856 361.14 623.716 360.367 622.73 359.38C621.756 358.393 620.996 357.26 620.45 355.98C619.903 354.687 619.63 353.3 619.63 351.82C619.63 350.393 619.896 349.053 620.43 347.8C620.963 346.533 621.703 345.427 622.65 344.48C623.596 343.533 624.69 342.793 625.93 342.26C627.183 341.713 628.523 341.44 629.95 341.44C631.403 341.44 632.683 341.773 633.79 342.44C634.91 343.093 635.836 343.933 636.57 344.96L636.39 342ZM630.19 358.5C631.363 358.5 632.39 358.213 633.27 357.64C634.15 357.053 634.83 356.267 635.31 355.28C635.803 354.293 636.05 353.2 636.05 352C636.05 350.787 635.803 349.687 635.31 348.7C634.816 347.713 634.13 346.933 633.25 346.36C632.383 345.773 631.363 345.48 630.19 345.48C629.03 345.48 627.97 345.773 627.01 346.36C626.05 346.947 625.29 347.733 624.73 348.72C624.17 349.707 623.89 350.8 623.89 352C623.89 353.213 624.176 354.313 624.75 355.3C625.336 356.273 626.103 357.053 627.05 357.64C628.01 358.213 629.056 358.5 630.19 358.5ZM644.541 362V342H648.701V344.12C649.394 343.293 650.241 342.64 651.241 342.16C652.254 341.68 653.347 341.44 654.521 341.44C655.947 341.44 657.261 341.787 658.461 342.48C659.661 343.16 660.614 344.067 661.321 345.2C662.027 344.067 662.967 343.16 664.141 342.48C665.327 341.787 666.634 341.44 668.061 341.44C669.541 341.44 670.887 341.8 672.101 342.52C673.314 343.24 674.281 344.207 675.001 345.42C675.721 346.633 676.081 347.98 676.081 349.46V362H671.921V350.52C671.921 349.64 671.707 348.833 671.281 348.1C670.854 347.367 670.281 346.773 669.561 346.32C668.841 345.867 668.041 345.64 667.161 345.64C666.281 345.64 665.481 345.853 664.761 346.28C664.041 346.707 663.467 347.287 663.041 348.02C662.614 348.753 662.401 349.587 662.401 350.52V362H658.241V350.52C658.241 349.587 658.027 348.753 657.601 348.02C657.174 347.287 656.594 346.707 655.861 346.28C655.141 345.853 654.341 345.64 653.461 345.64C652.594 345.64 651.794 345.867 651.061 346.32C650.341 346.773 649.767 347.367 649.341 348.1C648.914 348.833 648.701 349.64 648.701 350.52V362H644.541ZM688.497 362.52C686.657 362.52 684.977 362.047 683.457 361.1C681.95 360.153 680.744 358.887 679.837 357.3C678.944 355.7 678.497 353.933 678.497 352C678.497 350.533 678.757 349.167 679.277 347.9C679.797 346.62 680.51 345.5 681.417 344.54C682.337 343.567 683.404 342.807 684.617 342.26C685.83 341.713 687.124 341.44 688.497 341.44C690.03 341.44 691.437 341.76 692.717 342.4C693.997 343.027 695.09 343.9 695.997 345.02C696.904 346.127 697.57 347.407 697.997 348.86C698.424 350.3 698.55 351.833 698.377 353.46H682.957C683.13 354.38 683.464 355.213 683.957 355.96C684.464 356.693 685.104 357.273 685.877 357.7C686.664 358.127 687.537 358.347 688.497 358.36C689.51 358.36 690.43 358.107 691.257 357.6C692.097 357.093 692.784 356.393 693.317 355.5L697.537 356.48C696.737 358.253 695.53 359.707 693.917 360.84C692.304 361.96 690.497 362.52 688.497 362.52ZM682.817 350.28H694.177C694.044 349.32 693.704 348.453 693.157 347.68C692.624 346.893 691.95 346.273 691.137 345.82C690.337 345.353 689.457 345.12 688.497 345.12C687.55 345.12 686.67 345.347 685.857 345.8C685.057 346.253 684.39 346.873 683.857 347.66C683.337 348.433 682.99 349.307 682.817 350.28ZM707.767 362.38C706.714 362.313 705.687 362.1 704.687 361.74C703.687 361.38 702.807 360.893 702.047 360.28C701.301 359.653 700.741 358.92 700.367 358.08L703.907 356.56C704.081 356.92 704.381 357.273 704.807 357.62C705.247 357.967 705.761 358.253 706.347 358.48C706.934 358.693 707.547 358.8 708.187 358.8C708.814 358.8 709.394 358.713 709.927 358.54C710.474 358.353 710.921 358.073 711.267 357.7C711.614 357.327 711.787 356.88 711.787 356.36C711.787 355.773 711.587 355.32 711.187 355C710.801 354.667 710.314 354.413 709.727 354.24C709.141 354.067 708.554 353.9 707.967 353.74C706.661 353.447 705.461 353.047 704.367 352.54C703.287 352.02 702.427 351.36 701.787 350.56C701.147 349.747 700.827 348.753 700.827 347.58C700.827 346.3 701.174 345.193 701.867 344.26C702.561 343.313 703.467 342.587 704.587 342.08C705.721 341.573 706.927 341.32 708.207 341.32C709.807 341.32 711.274 341.66 712.607 342.34C713.941 343.02 714.961 343.953 715.667 345.14L712.367 347.1C712.167 346.7 711.867 346.34 711.467 346.02C711.067 345.7 710.614 345.447 710.107 345.26C709.601 345.06 709.074 344.947 708.527 344.92C707.847 344.893 707.214 344.973 706.627 345.16C706.054 345.333 705.594 345.613 705.247 346C704.901 346.387 704.727 346.88 704.727 347.48C704.727 348.067 704.934 348.507 705.347 348.8C705.761 349.08 706.281 349.307 706.907 349.48C707.547 349.653 708.201 349.847 708.867 350.06C710.054 350.433 711.167 350.893 712.207 351.44C713.247 351.973 714.087 352.633 714.727 353.42C715.367 354.207 715.674 355.167 715.647 356.3C715.647 357.553 715.267 358.653 714.507 359.6C713.761 360.547 712.787 361.267 711.587 361.76C710.387 362.253 709.114 362.46 707.767 362.38ZM718.116 364.24L719.356 357.48H723.516L720.876 364.24H718.116ZM748.339 341.44C750.286 341.44 752.052 341.913 753.639 342.86C755.239 343.807 756.512 345.08 757.459 346.68C758.406 348.267 758.879 350.033 758.879 351.98C758.879 353.433 758.606 354.8 758.059 356.08C757.512 357.347 756.752 358.467 755.779 359.44C754.819 360.4 753.699 361.153 752.419 361.7C751.152 362.247 749.792 362.52 748.339 362.52C746.939 362.52 745.712 362.2 744.659 361.56C743.619 360.907 742.766 360.073 742.099 359.06V362H737.939V332H742.099V344.9C742.766 343.873 743.619 343.04 744.659 342.4C745.712 341.76 746.939 341.44 748.339 341.44ZM748.299 358.48C749.459 358.48 750.519 358.187 751.479 357.6C752.439 357.013 753.199 356.227 753.759 355.24C754.332 354.253 754.619 353.167 754.619 351.98C754.619 350.767 754.332 349.667 753.759 348.68C753.186 347.693 752.419 346.913 751.459 346.34C750.499 345.753 749.446 345.46 748.299 345.46C747.139 345.46 746.119 345.753 745.239 346.34C744.359 346.927 743.672 347.713 743.179 348.7C742.686 349.687 742.439 350.78 742.439 351.98C742.439 353.18 742.686 354.273 743.179 355.26C743.672 356.247 744.359 357.033 745.239 357.62C746.119 358.193 747.139 358.48 748.299 358.48ZM760.928 354.5V342H765.088V353.48C765.088 354.373 765.308 355.187 765.748 355.92C766.188 356.653 766.775 357.24 767.508 357.68C768.241 358.107 769.048 358.32 769.928 358.32C770.821 358.32 771.628 358.107 772.348 357.68C773.081 357.24 773.661 356.653 774.088 355.92C774.528 355.187 774.748 354.373 774.748 353.48V342H778.908L778.928 362H774.768L774.748 359.84C774.068 360.667 773.221 361.32 772.208 361.8C771.195 362.28 770.108 362.52 768.948 362.52C767.468 362.52 766.121 362.16 764.908 361.44C763.695 360.72 762.728 359.753 762.008 358.54C761.288 357.327 760.928 355.98 760.928 354.5ZM793.499 346.16H789.299L789.279 362H785.119L785.139 346.16H781.959V342H785.139L785.119 335.72H789.279L789.299 342H793.499V346.16ZM817.249 346.16H813.049L813.029 362H808.869L808.889 346.16H805.709V342H808.889L808.869 335.72H813.029L813.049 342H817.249V346.16ZM829.161 362.52C827.321 362.52 825.641 362.047 824.121 361.1C822.614 360.153 821.408 358.887 820.501 357.3C819.608 355.7 819.161 353.933 819.161 352C819.161 350.533 819.421 349.167 819.941 347.9C820.461 346.62 821.174 345.5 822.081 344.54C823.001 343.567 824.068 342.807 825.281 342.26C826.494 341.713 827.788 341.44 829.161 341.44C830.694 341.44 832.101 341.76 833.381 342.4C834.661 343.027 835.754 343.9 836.661 345.02C837.568 346.127 838.234 347.407 838.661 348.86C839.088 350.3 839.214 351.833 839.041 353.46H823.621C823.794 354.38 824.128 355.213 824.621 355.96C825.128 356.693 825.768 357.273 826.541 357.7C827.328 358.127 828.201 358.347 829.161 358.36C830.174 358.36 831.094 358.107 831.921 357.6C832.761 357.093 833.448 356.393 833.981 355.5L838.201 356.48C837.401 358.253 836.194 359.707 834.581 360.84C832.968 361.96 831.161 362.52 829.161 362.52ZM823.481 350.28H834.841C834.708 349.32 834.368 348.453 833.821 347.68C833.288 346.893 832.614 346.273 831.801 345.82C831.001 345.353 830.121 345.12 829.161 345.12C828.214 345.12 827.334 345.347 826.521 345.8C825.721 346.253 825.054 346.873 824.521 347.66C824.001 348.433 823.654 349.307 823.481 350.28ZM857.874 342H862.034V362H857.854L857.694 359.1C857.107 360.127 856.314 360.953 855.314 361.58C854.314 362.207 853.134 362.52 851.774 362.52C850.307 362.52 848.927 362.247 847.634 361.7C846.341 361.14 845.201 360.367 844.214 359.38C843.241 358.393 842.481 357.26 841.934 355.98C841.387 354.687 841.114 353.3 841.114 351.82C841.114 350.393 841.381 349.053 841.914 347.8C842.447 346.533 843.187 345.427 844.134 344.48C845.081 343.533 846.174 342.793 847.414 342.26C848.667 341.713 850.007 341.44 851.434 341.44C852.887 341.44 854.167 341.773 855.274 342.44C856.394 343.093 857.321 343.933 858.054 344.96L857.874 342ZM851.674 358.5C852.847 358.5 853.874 358.213 854.754 357.64C855.634 357.053 856.314 356.267 856.794 355.28C857.287 354.293 857.534 353.2 857.534 352C857.534 350.787 857.287 349.687 856.794 348.7C856.301 347.713 855.614 346.933 854.734 346.36C853.867 345.773 852.847 345.48 851.674 345.48C850.514 345.48 849.454 345.773 848.494 346.36C847.534 346.947 846.774 347.733 846.214 348.72C845.654 349.707 845.374 350.8 845.374 352C845.374 353.213 845.661 354.313 846.234 355.3C846.821 356.273 847.587 357.053 848.534 357.64C849.494 358.213 850.541 358.5 851.674 358.5ZM866.025 362V342H870.185V344.12C870.878 343.293 871.725 342.64 872.725 342.16C873.738 341.68 874.832 341.44 876.005 341.44C877.432 341.44 878.745 341.787 879.945 342.48C881.145 343.16 882.098 344.067 882.805 345.2C883.512 344.067 884.452 343.16 885.625 342.48C886.812 341.787 888.118 341.44 889.545 341.44C891.025 341.44 892.372 341.8 893.585 342.52C894.798 343.24 895.765 344.207 896.485 345.42C897.205 346.633 897.565 347.98 897.565 349.46V362H893.405V350.52C893.405 349.64 893.192 348.833 892.765 348.1C892.338 347.367 891.765 346.773 891.045 346.32C890.325 345.867 889.525 345.64 888.645 345.64C887.765 345.64 886.965 345.853 886.245 346.28C885.525 346.707 884.952 347.287 884.525 348.02C884.098 348.753 883.885 349.587 883.885 350.52V362H879.725V350.52C879.725 349.587 879.512 348.753 879.085 348.02C878.658 347.287 878.078 346.707 877.345 346.28C876.625 345.853 875.825 345.64 874.945 345.64C874.078 345.64 873.278 345.867 872.545 346.32C871.825 346.773 871.252 347.367 870.825 348.1C870.398 348.833 870.185 349.64 870.185 350.52V362H866.025ZM910.47 362H906.33L899.63 342H903.71L908.43 356.04L913.11 342H917.31L921.99 356.04L926.69 342H930.77L924.09 362H919.91L915.19 347.86L910.47 362ZM941.895 362.52C940.055 362.52 938.375 362.047 936.855 361.1C935.349 360.153 934.142 358.887 933.235 357.3C932.342 355.7 931.895 353.933 931.895 352C931.895 350.533 932.155 349.167 932.675 347.9C933.195 346.62 933.909 345.5 934.815 344.54C935.735 343.567 936.802 342.807 938.015 342.26C939.229 341.713 940.522 341.44 941.895 341.44C943.735 341.44 945.409 341.913 946.915 342.86C948.435 343.807 949.642 345.08 950.535 346.68C951.442 348.28 951.895 350.053 951.895 352C951.895 353.453 951.635 354.813 951.115 356.08C950.595 357.347 949.875 358.467 948.955 359.44C948.049 360.4 946.989 361.153 945.775 361.7C944.575 362.247 943.282 362.52 941.895 362.52ZM941.895 358.36C943.002 358.36 943.995 358.067 944.875 357.48C945.755 356.893 946.449 356.12 946.955 355.16C947.475 354.187 947.735 353.133 947.735 352C947.735 350.84 947.469 349.773 946.935 348.8C946.415 347.827 945.715 347.053 944.835 346.48C943.955 345.893 942.975 345.6 941.895 345.6C940.802 345.6 939.809 345.893 938.915 346.48C938.035 347.067 937.335 347.847 936.815 348.82C936.309 349.793 936.055 350.853 936.055 352C936.055 353.187 936.322 354.26 936.855 355.22C937.389 356.18 938.095 356.947 938.975 357.52C939.869 358.08 940.842 358.36 941.895 358.36ZM955.127 362V342H959.287V344.12C959.98 343.293 960.833 342.64 961.847 342.16C962.86 341.68 963.953 341.44 965.127 341.44C965.873 341.44 966.613 341.54 967.347 341.74L965.687 345.94C965.167 345.74 964.647 345.64 964.127 345.64C963.247 345.64 962.44 345.86 961.707 346.3C960.973 346.727 960.387 347.307 959.947 348.04C959.507 348.773 959.287 349.587 959.287 350.48V362H955.127ZM986.719 362H981.919L976.999 353.52L973.779 357.36V362H969.619V332H973.779V350.9L981.219 342H986.659L979.839 350.14L986.719 362ZM642.618 410H638.478L631.778 390H635.858L640.578 404.04L645.258 390H649.458L654.138 404.04L658.838 390H662.918L656.238 410H652.058L647.338 395.86L642.618 410ZM666.025 390H670.185V410H666.025V390ZM668.145 387.1C667.505 387.1 666.972 386.893 666.545 386.48C666.118 386.067 665.905 385.547 665.905 384.92C665.905 384.307 666.118 383.793 666.545 383.38C666.972 382.953 667.498 382.74 668.125 382.74C668.738 382.74 669.258 382.953 669.685 383.38C670.112 383.793 670.325 384.307 670.325 384.92C670.325 385.547 670.112 386.067 669.685 386.48C669.272 386.893 668.758 387.1 668.145 387.1ZM692.814 397.46V410H688.654V398.48C688.654 397.587 688.434 396.773 687.994 396.04C687.567 395.307 686.987 394.727 686.254 394.3C685.534 393.86 684.721 393.64 683.814 393.64C682.934 393.64 682.127 393.86 681.394 394.3C680.661 394.727 680.074 395.307 679.634 396.04C679.194 396.773 678.974 397.587 678.974 398.48V410H674.814V390H678.974V392.12C679.667 391.293 680.521 390.64 681.534 390.16C682.547 389.68 683.641 389.44 684.814 389.44C686.294 389.44 687.641 389.8 688.854 390.52C690.067 391.24 691.027 392.207 691.734 393.42C692.454 394.633 692.814 395.98 692.814 397.46ZM702.806 410.38C701.753 410.313 700.726 410.1 699.726 409.74C698.726 409.38 697.846 408.893 697.086 408.28C696.34 407.653 695.78 406.92 695.406 406.08L698.946 404.56C699.12 404.92 699.42 405.273 699.846 405.62C700.286 405.967 700.8 406.253 701.386 406.48C701.973 406.693 702.586 406.8 703.226 406.8C703.853 406.8 704.433 406.713 704.966 406.54C705.513 406.353 705.96 406.073 706.306 405.7C706.653 405.327 706.826 404.88 706.826 404.36C706.826 403.773 706.626 403.32 706.226 403C705.84 402.667 705.353 402.413 704.766 402.24C704.18 402.067 703.593 401.9 703.006 401.74C701.7 401.447 700.5 401.047 699.406 400.54C698.326 400.02 697.466 399.36 696.826 398.56C696.186 397.747 695.866 396.753 695.866 395.58C695.866 394.3 696.213 393.193 696.906 392.26C697.6 391.313 698.506 390.587 699.626 390.08C700.76 389.573 701.966 389.32 703.246 389.32C704.846 389.32 706.313 389.66 707.646 390.34C708.98 391.02 710 391.953 710.706 393.14L707.406 395.1C707.206 394.7 706.906 394.34 706.506 394.02C706.106 393.7 705.653 393.447 705.146 393.26C704.64 393.06 704.113 392.947 703.566 392.92C702.886 392.893 702.253 392.973 701.666 393.16C701.093 393.333 700.633 393.613 700.286 394C699.94 394.387 699.766 394.88 699.766 395.48C699.766 396.067 699.973 396.507 700.386 396.8C700.8 397.08 701.32 397.307 701.946 397.48C702.586 397.653 703.24 397.847 703.906 398.06C705.093 398.433 706.206 398.893 707.246 399.44C708.286 399.973 709.126 400.633 709.766 401.42C710.406 402.207 710.713 403.167 710.686 404.3C710.686 405.553 710.306 406.653 709.546 407.6C708.8 408.547 707.826 409.267 706.626 409.76C705.426 410.253 704.153 410.46 702.806 410.38ZM736.78 404.32L740.5 406.34C739.594 407.607 738.44 408.62 737.04 409.38C735.654 410.14 734.147 410.52 732.52 410.52C730.68 410.52 729 410.047 727.48 409.1C725.974 408.153 724.767 406.887 723.86 405.3C722.967 403.7 722.52 401.933 722.52 400C722.52 398.533 722.78 397.167 723.3 395.9C723.82 394.62 724.534 393.5 725.44 392.54C726.36 391.567 727.427 390.807 728.64 390.26C729.854 389.713 731.147 389.44 732.52 389.44C734.147 389.44 735.654 389.82 737.04 390.58C738.44 391.34 739.594 392.36 740.5 393.64L736.78 395.66C736.22 394.993 735.567 394.487 734.82 394.14C734.074 393.78 733.307 393.6 732.52 393.6C731.427 393.6 730.434 393.9 729.54 394.5C728.66 395.087 727.96 395.867 727.44 396.84C726.934 397.8 726.68 398.853 726.68 400C726.68 401.133 726.94 402.187 727.46 403.16C727.98 404.12 728.68 404.893 729.56 405.48C730.454 406.067 731.44 406.36 732.52 406.36C733.347 406.36 734.134 406.173 734.88 405.8C735.627 405.427 736.26 404.933 736.78 404.32ZM761.603 397.46V410H757.443V398.48C757.443 397.587 757.223 396.773 756.783 396.04C756.356 395.307 755.776 394.727 755.043 394.3C754.323 393.86 753.51 393.64 752.603 393.64C751.723 393.64 750.916 393.86 750.183 394.3C749.45 394.727 748.863 395.307 748.423 396.04C747.983 396.773 747.763 397.587 747.763 398.48V410H743.603V380H747.763V392.12C748.456 391.293 749.31 390.64 750.323 390.16C751.336 389.68 752.43 389.44 753.603 389.44C755.083 389.44 756.43 389.8 757.643 390.52C758.856 391.24 759.816 392.207 760.523 393.42C761.243 394.633 761.603 395.98 761.603 397.46ZM780.765 390H784.925V410H780.745L780.585 407.1C779.998 408.127 779.205 408.953 778.205 409.58C777.205 410.207 776.025 410.52 774.665 410.52C773.198 410.52 771.818 410.247 770.525 409.7C769.231 409.14 768.091 408.367 767.105 407.38C766.131 406.393 765.371 405.26 764.825 403.98C764.278 402.687 764.005 401.3 764.005 399.82C764.005 398.393 764.271 397.053 764.805 395.8C765.338 394.533 766.078 393.427 767.025 392.48C767.971 391.533 769.065 390.793 770.305 390.26C771.558 389.713 772.898 389.44 774.325 389.44C775.778 389.44 777.058 389.773 778.165 390.44C779.285 391.093 780.211 391.933 780.945 392.96L780.765 390ZM774.565 406.5C775.738 406.5 776.765 406.213 777.645 405.64C778.525 405.053 779.205 404.267 779.685 403.28C780.178 402.293 780.425 401.2 780.425 400C780.425 398.787 780.178 397.687 779.685 396.7C779.191 395.713 778.505 394.933 777.625 394.36C776.758 393.773 775.738 393.48 774.565 393.48C773.405 393.48 772.345 393.773 771.385 394.36C770.425 394.947 769.665 395.733 769.105 396.72C768.545 397.707 768.265 398.8 768.265 400C768.265 401.213 768.551 402.313 769.125 403.3C769.711 404.273 770.478 405.053 771.425 405.64C772.385 406.213 773.431 406.5 774.565 406.5ZM788.916 410V390H793.076V392.12C793.769 391.293 794.616 390.64 795.616 390.16C796.629 389.68 797.722 389.44 798.896 389.44C800.322 389.44 801.636 389.787 802.836 390.48C804.036 391.16 804.989 392.067 805.696 393.2C806.402 392.067 807.342 391.16 808.516 390.48C809.702 389.787 811.009 389.44 812.436 389.44C813.916 389.44 815.262 389.8 816.476 390.52C817.689 391.24 818.656 392.207 819.376 393.42C820.096 394.633 820.456 395.98 820.456 397.46V410H816.296V398.52C816.296 397.64 816.082 396.833 815.656 396.1C815.229 395.367 814.656 394.773 813.936 394.32C813.216 393.867 812.416 393.64 811.536 393.64C810.656 393.64 809.856 393.853 809.136 394.28C808.416 394.707 807.842 395.287 807.416 396.02C806.989 396.753 806.776 397.587 806.776 398.52V410H802.616V398.52C802.616 397.587 802.402 396.753 801.976 396.02C801.549 395.287 800.969 394.707 800.236 394.28C799.516 393.853 798.716 393.64 797.836 393.64C796.969 393.64 796.169 393.867 795.436 394.32C794.716 394.773 794.142 395.367 793.716 396.1C793.289 396.833 793.076 397.64 793.076 398.52V410H788.916ZM828.623 420H824.463V390H828.623V392.94C829.289 391.913 830.143 391.08 831.183 390.44C832.223 389.8 833.449 389.48 834.863 389.48C836.316 389.48 837.676 389.753 838.943 390.3C840.223 390.847 841.343 391.607 842.303 392.58C843.263 393.54 844.016 394.653 844.562 395.92C845.109 397.187 845.383 398.547 845.383 400C845.383 401.453 845.109 402.82 844.562 404.1C844.016 405.38 843.263 406.507 842.303 407.48C841.343 408.44 840.223 409.193 838.943 409.74C837.676 410.287 836.316 410.56 834.863 410.56C833.449 410.56 832.223 410.24 831.183 409.6C830.143 408.947 829.289 408.113 828.623 407.1V420ZM834.823 393.5C833.663 393.5 832.643 393.793 831.763 394.38C830.883 394.967 830.196 395.753 829.703 396.74C829.209 397.713 828.963 398.8 828.963 400C828.963 401.2 829.209 402.293 829.703 403.28C830.196 404.267 830.883 405.053 831.763 405.64C832.643 406.227 833.663 406.52 834.823 406.52C835.969 406.52 837.023 406.233 837.983 405.66C838.943 405.073 839.709 404.287 840.283 403.3C840.856 402.313 841.143 401.213 841.143 400C841.143 398.813 840.856 397.727 840.283 396.74C839.723 395.753 838.963 394.967 838.003 394.38C837.043 393.793 835.983 393.5 834.823 393.5ZM848.252 390H852.412V410H848.252V390ZM850.372 387.1C849.732 387.1 849.198 386.893 848.772 386.48C848.345 386.067 848.132 385.547 848.132 384.92C848.132 384.307 848.345 383.793 848.772 383.38C849.198 382.953 849.725 382.74 850.352 382.74C850.965 382.74 851.485 382.953 851.912 383.38C852.338 383.793 852.552 384.307 852.552 384.92C852.552 385.547 852.338 386.067 851.912 386.48C851.498 386.893 850.985 387.1 850.372 387.1ZM865.645 410.52C863.805 410.52 862.125 410.047 860.605 409.1C859.099 408.153 857.892 406.887 856.985 405.3C856.092 403.7 855.645 401.933 855.645 400C855.645 398.533 855.905 397.167 856.425 395.9C856.945 394.62 857.659 393.5 858.565 392.54C859.485 391.567 860.552 390.807 861.765 390.26C862.979 389.713 864.272 389.44 865.645 389.44C867.485 389.44 869.159 389.913 870.665 390.86C872.185 391.807 873.392 393.08 874.285 394.68C875.192 396.28 875.645 398.053 875.645 400C875.645 401.453 875.385 402.813 874.865 404.08C874.345 405.347 873.625 406.467 872.705 407.44C871.799 408.4 870.739 409.153 869.525 409.7C868.325 410.247 867.032 410.52 865.645 410.52ZM865.645 406.36C866.752 406.36 867.745 406.067 868.625 405.48C869.505 404.893 870.199 404.12 870.705 403.16C871.225 402.187 871.485 401.133 871.485 400C871.485 398.84 871.219 397.773 870.685 396.8C870.165 395.827 869.465 395.053 868.585 394.48C867.705 393.893 866.725 393.6 865.645 393.6C864.552 393.6 863.559 393.893 862.665 394.48C861.785 395.067 861.085 395.847 860.565 396.82C860.059 397.793 859.805 398.853 859.805 400C859.805 401.187 860.072 402.26 860.605 403.22C861.139 404.18 861.845 404.947 862.725 405.52C863.619 406.08 864.592 406.36 865.645 406.36ZM896.877 397.46V410H892.717V398.48C892.717 397.587 892.497 396.773 892.057 396.04C891.63 395.307 891.05 394.727 890.317 394.3C889.597 393.86 888.783 393.64 887.877 393.64C886.997 393.64 886.19 393.86 885.457 394.3C884.723 394.727 884.137 395.307 883.697 396.04C883.257 396.773 883.037 397.587 883.037 398.48V410H878.877V390H883.037V392.12C883.73 391.293 884.583 390.64 885.597 390.16C886.61 389.68 887.703 389.44 888.877 389.44C890.357 389.44 891.703 389.8 892.917 390.52C894.13 391.24 895.09 392.207 895.797 393.42C896.517 394.633 896.877 395.98 896.877 397.46ZM906.869 410.38C905.815 410.313 904.789 410.1 903.789 409.74C902.789 409.38 901.909 408.893 901.149 408.28C900.402 407.653 899.842 406.92 899.469 406.08L903.009 404.56C903.182 404.92 903.482 405.273 903.909 405.62C904.349 405.967 904.862 406.253 905.449 406.48C906.035 406.693 906.649 406.8 907.289 406.8C907.915 406.8 908.495 406.713 909.029 406.54C909.575 406.353 910.022 406.073 910.369 405.7C910.715 405.327 910.889 404.88 910.889 404.36C910.889 403.773 910.689 403.32 910.289 403C909.902 402.667 909.415 402.413 908.829 402.24C908.242 402.067 907.655 401.9 907.069 401.74C905.762 401.447 904.562 401.047 903.469 400.54C902.389 400.02 901.529 399.36 900.889 398.56C900.249 397.747 899.929 396.753 899.929 395.58C899.929 394.3 900.275 393.193 900.969 392.26C901.662 391.313 902.569 390.587 903.689 390.08C904.822 389.573 906.029 389.32 907.309 389.32C908.909 389.32 910.375 389.66 911.709 390.34C913.042 391.02 914.062 391.953 914.769 393.14L911.469 395.1C911.269 394.7 910.969 394.34 910.569 394.02C910.169 393.7 909.715 393.447 909.209 393.26C908.702 393.06 908.175 392.947 907.629 392.92C906.949 392.893 906.315 392.973 905.729 393.16C905.155 393.333 904.695 393.613 904.349 394C904.002 394.387 903.829 394.88 903.829 395.48C903.829 396.067 904.035 396.507 904.449 396.8C904.862 397.08 905.382 397.307 906.009 397.48C906.649 397.653 907.302 397.847 907.969 398.06C909.155 398.433 910.269 398.893 911.309 399.44C912.349 399.973 913.189 400.633 913.829 401.42C914.469 402.207 914.775 403.167 914.749 404.3C914.749 405.553 914.369 406.653 913.609 407.6C912.862 408.547 911.889 409.267 910.689 409.76C909.489 410.253 908.215 410.46 906.869 410.38ZM936.173 397.46V410H932.013V398.48C932.013 397.587 931.793 396.773 931.353 396.04C930.927 395.307 930.347 394.727 929.613 394.3C928.893 393.86 928.08 393.64 927.173 393.64C926.293 393.64 925.487 393.86 924.753 394.3C924.02 394.727 923.433 395.307 922.993 396.04C922.553 396.773 922.333 397.587 922.333 398.48V410H918.173V380H922.333V392.12C923.027 391.293 923.88 390.64 924.893 390.16C925.907 389.68 927 389.44 928.173 389.44C929.653 389.44 931 389.8 932.213 390.52C933.427 391.24 934.387 392.207 935.093 393.42C935.813 394.633 936.173 395.98 936.173 397.46ZM940.166 390H944.326V410H940.166V390ZM942.286 387.1C941.646 387.1 941.112 386.893 940.686 386.48C940.259 386.067 940.046 385.547 940.046 384.92C940.046 384.307 940.259 383.793 940.686 383.38C941.112 382.953 941.639 382.74 942.266 382.74C942.879 382.74 943.399 382.953 943.826 383.38C944.252 383.793 944.466 384.307 944.466 384.92C944.466 385.547 944.252 386.067 943.826 386.48C943.412 386.893 942.899 387.1 942.286 387.1ZM952.998 420H948.838V390H952.998V392.94C953.664 391.913 954.518 391.08 955.558 390.44C956.598 389.8 957.824 389.48 959.238 389.48C960.691 389.48 962.051 389.753 963.318 390.3C964.598 390.847 965.718 391.607 966.678 392.58C967.638 393.54 968.391 394.653 968.938 395.92C969.484 397.187 969.758 398.547 969.758 400C969.758 401.453 969.484 402.82 968.938 404.1C968.391 405.38 967.638 406.507 966.678 407.48C965.718 408.44 964.598 409.193 963.318 409.74C962.051 410.287 960.691 410.56 959.238 410.56C957.824 410.56 956.598 410.24 955.558 409.6C954.518 408.947 953.664 408.113 952.998 407.1V420ZM959.198 393.5C958.038 393.5 957.018 393.793 956.138 394.38C955.258 394.967 954.571 395.753 954.078 396.74C953.584 397.713 953.338 398.8 953.338 400C953.338 401.2 953.584 402.293 954.078 403.28C954.571 404.267 955.258 405.053 956.138 405.64C957.018 406.227 958.038 406.52 959.198 406.52C960.344 406.52 961.398 406.233 962.358 405.66C963.318 405.073 964.084 404.287 964.658 403.3C965.231 402.313 965.518 401.213 965.518 400C965.518 398.813 965.231 397.727 964.658 396.74C964.098 395.753 963.338 394.967 962.378 394.38C961.418 393.793 960.358 393.5 959.198 393.5ZM979.095 410.38C978.042 410.313 977.015 410.1 976.015 409.74C975.015 409.38 974.135 408.893 973.375 408.28C972.629 407.653 972.069 406.92 971.695 406.08L975.235 404.56C975.409 404.92 975.709 405.273 976.135 405.62C976.575 405.967 977.089 406.253 977.675 406.48C978.262 406.693 978.875 406.8 979.515 406.8C980.142 406.8 980.722 406.713 981.255 406.54C981.802 406.353 982.249 406.073 982.595 405.7C982.942 405.327 983.115 404.88 983.115 404.36C983.115 403.773 982.915 403.32 982.515 403C982.129 402.667 981.642 402.413 981.055 402.24C980.469 402.067 979.882 401.9 979.295 401.74C977.989 401.447 976.789 401.047 975.695 400.54C974.615 400.02 973.755 399.36 973.115 398.56C972.475 397.747 972.155 396.753 972.155 395.58C972.155 394.3 972.502 393.193 973.195 392.26C973.889 391.313 974.795 390.587 975.915 390.08C977.049 389.573 978.255 389.32 979.535 389.32C981.135 389.32 982.602 389.66 983.935 390.34C985.269 391.02 986.289 391.953 986.995 393.14L983.695 395.1C983.495 394.7 983.195 394.34 982.795 394.02C982.395 393.7 981.942 393.447 981.435 393.26C980.929 393.06 980.402 392.947 979.855 392.92C979.175 392.893 978.542 392.973 977.955 393.16C977.382 393.333 976.922 393.613 976.575 394C976.229 394.387 976.055 394.88 976.055 395.48C976.055 396.067 976.262 396.507 976.675 396.8C977.089 397.08 977.609 397.307 978.235 397.48C978.875 397.653 979.529 397.847 980.195 398.06C981.382 398.433 982.495 398.893 983.535 399.44C984.575 399.973 985.415 400.633 986.055 401.42C986.695 402.207 987.002 403.167 986.975 404.3C986.975 405.553 986.595 406.653 985.835 407.6C985.089 408.547 984.115 409.267 982.915 409.76C981.715 410.253 980.442 410.46 979.095 410.38Z" fill="white"/>
</svg>
