<svg
  aria-hidden="true"
  style="position: absolute; width: 0; height: 0; overflow: hidden"
  version="1.1"
  xmlns="http://www.w3.org/2000/svg"
  xmlns:xlink="http://www.w3.org/1999/xlink"
>
  <defs>
    <symbol id="icon-menu" viewBox="0 0 32 32">
      <path
        stroke-linejoin="round"
        stroke-linecap="round"
        stroke-miterlimit="4"
        stroke-width="2.2857"
        d="M22.667 13.333h-18.667"
      ></path>
      <path
        stroke-linejoin="round"
        stroke-linecap="round"
        stroke-miterlimit="4"
        stroke-width="2.2857"
        d="M28 8h-24"
      ></path>
      <path
        stroke-linejoin="round"
        stroke-linecap="round"
        stroke-miterlimit="4"
        stroke-width="2.2857"
        d="M28 18.667h-24"
      ></path>
      <path
        stroke-linejoin="round"
        stroke-linecap="round"
        stroke-miterlimit="4"
        stroke-width="2.2857"
        d="M22.667 24h-18.667"
      ></path>
    </symbol>
    <symbol id="icon-arrow" viewBox="0 0 32 32">
      <path
        fill="none"
        stroke="#eac645"
        style="stroke: var(--color1, #eac645)"
        stroke-linejoin="round"
        stroke-linecap="round"
        stroke-miterlimit="4"
        stroke-width="3.2"
        d="M5.333 16h21.333M26.667 16l-8-8M26.667 16l-8 8"
      ></path>
    </symbol>
    <symbol id="icon-dump" viewBox="0 0 32 32">
      <path
        fill="#4f2ee8"
        style="fill: var(--color2, #4f2ee8)"
        d="M32 16c0 8.837-7.163 16-16 16s-16-7.163-16-16c0-8.837 7.163-16 16-16s16 7.163 16 16z"
      ></path>
      <path
        fill="none"
        stroke="#fff"
        style="stroke: var(--color3, #fff)"
        stroke-linejoin="round"
        stroke-linecap="round"
        stroke-miterlimit="4"
        stroke-width="1.6842"
        d="M13.684 9.053h4.632M9.053 11.368h13.895M21.404 11.368l-0.541 8.12c-0.081 1.218-0.122 1.827-0.385 2.289-0.232 0.407-0.581 0.733-1.002 0.938-0.478 0.232-1.089 0.232-2.31 0.232h-2.33c-1.221 0-1.832 0-2.31-0.232-0.421-0.204-0.771-0.531-1.002-0.938-0.263-0.462-0.304-1.071-0.385-2.289l-0.541-8.12M14.456 14.842v3.86M17.544 14.842v3.86"
      ></path>
    </symbol>
    <symbol id="icon-next" viewBox="0 0 32 32">
      <path
        d="M17.867 16.946c0.125-0.124 0.224-0.271 0.292-0.434s0.103-0.337 0.103-0.513-0.035-0.35-0.103-0.513c-0.068-0.162-0.167-0.31-0.292-0.434l-6.12-6.107c-0.125-0.124-0.224-0.271-0.292-0.434s-0.103-0.337-0.103-0.513c0-0.176 0.035-0.35 0.103-0.513s0.167-0.31 0.292-0.434c0.25-0.248 0.588-0.388 0.94-0.388s0.69 0.139 0.94 0.388l6.12 6.12c0.749 0.75 1.17 1.767 1.17 2.827s-0.421 2.077-1.17 2.827l-6.12 6.12c-0.248 0.246-0.584 0.385-0.933 0.387-0.175 0.001-0.349-0.033-0.512-0.099s-0.31-0.164-0.435-0.288c-0.125-0.124-0.224-0.271-0.292-0.434s-0.103-0.337-0.103-0.513c0-0.176 0.035-0.35 0.103-0.513s0.167-0.31 0.292-0.434l6.12-6.107z"
      ></path>
    </symbol>
    <symbol id="icon-down" viewBox="0 0 28 32">
      <path
        fill="#fff"
        style="fill: var(--color3, #fff)"
        d="M5.898 12h16.513l-7.423 8.391c-0.221 0.25-0.521 0.39-0.834 0.39s-0.613-0.14-0.834-0.39l-7.423-8.391z"
      ></path>
    </symbol>
    <symbol id="icon-lock" viewBox="0 0 32 32">
      <path
        stroke-linejoin="round"
        stroke-linecap="round"
        stroke-miterlimit="4"
        stroke-width="2.2857"
        d="M22.667 14.667v-4c0-3.682-2.985-6.667-6.667-6.667s-6.667 2.985-6.667 6.667v4M10.4 28h11.2c2.24 0 3.36 0 4.216-0.436 0.753-0.383 1.365-0.995 1.748-1.748 0.436-0.856 0.436-1.976 0.436-4.216v-0.533c0-2.24 0-3.36-0.436-4.216-0.383-0.753-0.995-1.365-1.748-1.748-0.856-0.436-1.976-0.436-4.216-0.436h-11.2c-2.24 0-3.36 0-4.216 0.436-0.753 0.384-1.365 0.995-1.748 1.748-0.436 0.856-0.436 1.976-0.436 4.216v0.533c0 2.24 0 3.36 0.436 4.216 0.383 0.753 0.995 1.365 1.748 1.748 0.856 0.436 1.976 0.436 4.216 0.436z"
      ></path>
    </symbol>
    <symbol id="icon-mail" viewBox="0 0 32 32">
      <path
        stroke-linejoin="round"
        stroke-linecap="round"
        stroke-miterlimit="4"
        stroke-width="2.2857"
        d="M28.666 24l-8.857-8M12.19 16l-8.857 8M2.667 9.333l10.887 7.621c0.882 0.617 1.322 0.926 1.802 1.045 0.423 0.106 0.866 0.106 1.29 0 0.479-0.12 0.92-0.428 1.802-1.045l10.887-7.621M9.067 26.667h13.867c2.24 0 3.36 0 4.216-0.436 0.753-0.384 1.365-0.995 1.748-1.748 0.436-0.856 0.436-1.976 0.436-4.216v-8.533c0-2.24 0-3.36-0.436-4.216-0.383-0.753-0.995-1.365-1.748-1.748-0.856-0.436-1.976-0.436-4.216-0.436h-13.867c-2.24 0-3.36 0-4.216 0.436-0.753 0.383-1.365 0.995-1.748 1.748-0.436 0.856-0.436 1.976-0.436 4.216v8.533c0 2.24 0 3.36 0.436 4.216 0.384 0.753 0.995 1.365 1.748 1.748 0.856 0.436 1.976 0.436 4.216 0.436z"
      ></path>
    </symbol>
    <symbol id="icon-up" viewBox="0 0 32 32">
      <path
        fill="#fff"
        style="fill: var(--color3, #fff)"
        d="M4.5 19.6l11.2-11.233c0.133-0.133 0.278-0.228 0.433-0.283s0.322-0.084 0.5-0.084c0.178 0 0.345 0.028 0.5 0.084s0.3 0.149 0.433 0.283l11.233 11.233c0.311 0.311 0.467 0.7 0.467 1.167s-0.167 0.867-0.5 1.2c-0.333 0.333-0.722 0.5-1.167 0.5s-0.833-0.167-1.167-0.5l-9.8-9.8-9.8 9.8c-0.311 0.311-0.694 0.467-1.149 0.467s-0.851-0.167-1.184-0.5-0.5-0.722-0.5-1.167c0-0.444 0.167-0.833 0.5-1.167z"
      ></path>
    </symbol>
    <symbol id="icon-user" viewBox="0 0 32 32">
      <path
        fill="#f6f6f6"
        style="fill: var(--color4, #f6f6f6)"
        d="M32 16c0 8.837-7.163 16-16 16s-16-7.163-16-16c0-8.837 7.163-16 16-16s16 7.163 16 16z"
      ></path>
      <path
        fill="#4f2ee8"
        style="fill: var(--color2, #4f2ee8)"
        d="M10.523 22.847c0-1.453 0.577-2.846 1.604-3.873s2.421-1.604 3.873-1.604 2.846 0.577 3.873 1.604c1.027 1.027 1.604 2.421 1.604 3.873h-10.955zM16 16.685c-2.27 0-4.108-1.838-4.108-4.108s1.838-4.108 4.108-4.108c2.27 0 4.108 1.838 4.108 4.108s-1.838 4.108-4.108 4.108z"
      ></path>
    </symbol>
    <symbol id="icon-close" viewBox="0 0 32 32">
      <path
        stroke-linejoin="round"
        stroke-linecap="round"
        stroke-miterlimit="4"
        stroke-width="3.4286"
        d="M24 8l-16 16M8 8l16 16"
      ></path>
    </symbol>
    <symbol id="icon-ukraine" viewBox="0 0 20 32">
      <path
        fill="#fff"
        style="fill: var(--color1, #fff)"
        d="M9.005 30.888c-1.738-1.262-2.991-3.156-3.414-5.351h-5.591v-23.117c2.991 1.443 5.153 4.599 5.388 7.876l0.846 6.493-0.407-0.045c-0.893 0-1.676 0.812-1.676 1.608 0 0.752 0.595 1.383 1.378 1.548l1.018 0.226c1.676-3.051 2.631-6.042 2.631-8.973 0-2.645-0.36-5.291-0.423-7.996 0-1.202 0.486-2.3 1.253-3.156 0.783 0.857 1.253 1.954 1.253 3.156 0 2.705-0.423 5.351-0.423 7.996 0 2.931 0.955 5.922 2.631 8.973l1.018-0.226c0.783-0.165 1.378-0.812 1.378-1.548 0-0.812-0.783-1.608-1.676-1.608l-0.423 0.060 0.846-6.493c0.423-3.277 2.396-6.448 5.388-7.876v23.117h-5.576c-0.423 2.179-1.613 4.148-3.414 5.351-0.423 0.286-0.783 0.631-1.018 1.097-0.219-0.466-0.579-0.812-0.987-1.112zM2.647 17.556c0.235-0.857 0.893-1.608 1.738-2.074l-0.658-5.351c-0.235-1.668-0.955-3.156-2.036-4.374v11.784h0.955v0.015zM5.466 23.929c0-0.812 0.125-1.548 0.298-2.3l-0.783-0.18c-1.143-0.346-2.036-1.203-2.334-2.3h-0.955v4.78h3.774zM9.178 23.929c0-0.977-0.783-1.834-1.801-1.954-0.172 0.631-0.298 1.263-0.298 1.954h2.099zM9.178 25.552h-1.864c0.298 1.263 0.955 2.42 1.864 3.397v-3.397zM11.809 20.547c-0.72-1.262-1.378-2.585-1.801-3.968-0.423 1.383-1.081 2.706-1.801 3.968 0.72 0.165 1.316 0.631 1.801 1.157 0.486-0.526 1.081-0.992 1.801-1.157zM12.952 23.929c0-0.691-0.125-1.323-0.297-1.954-1.018 0.12-1.801 0.977-1.801 1.954h2.099zM12.717 25.552h-1.864v3.397c0.908-0.992 1.566-2.134 1.864-3.397zM18.34 23.929v-4.78h-0.955c-0.298 1.097-1.206 1.954-2.334 2.3l-0.783 0.18c0.172 0.752 0.298 1.488 0.298 2.3h3.774zM18.34 17.556v-11.799c-1.081 1.202-1.864 2.706-2.036 4.374l-0.658 5.351c0.846 0.466 1.504 1.203 1.739 2.074h0.955z"
      ></path>
    </symbol>
    <symbol id="icon-arrow-down" viewBox="0 0 32 32">
      <path fill="#4f2ee8" style="fill: var(--color1, #4f2ee8)" d="M15.053 17.867c0.124 0.125 0.271 0.224 0.434 0.292s0.337 0.103 0.513 0.103 0.35-0.035 0.513-0.103c0.162-0.068 0.31-0.167 0.434-0.292l6.107-6.12c0.124-0.125 0.271-0.224 0.434-0.292s0.337-0.103 0.513-0.103c0.176 0 0.35 0.035 0.513 0.103s0.31 0.167 0.434 0.292c0.248 0.25 0.388 0.588 0.388 0.94s-0.139 0.69-0.388 0.94l-6.12 6.12c-0.75 0.749-1.767 1.17-2.827 1.17s-2.077-0.421-2.827-1.17l-6.12-6.12c-0.246-0.248-0.385-0.584-0.387-0.933-0.001-0.175 0.033-0.349 0.099-0.512s0.164-0.31 0.288-0.435c0.124-0.125 0.271-0.224 0.434-0.292s0.337-0.103 0.513-0.103c0.176 0 0.35 0.035 0.513 0.103s0.31 0.167 0.434 0.292l6.107 6.12z"></path>
    </symbol>

    <!-- outline stroke -->

    <symbol id="icon-mail-new" viewBox="0 0 38 32">
      <path
        d="M27.782 30.982H10.037c-3.055 0-4.655 0-5.964-.727-1.309-.582-2.182-1.6-2.909-2.909-.727-1.455-.727-2.909-.727-5.964V7.127c.145-1.018.291-1.745.582-2.473.582-1.309 1.6-2.182 2.909-2.909 1.455-.727 2.909-.727 5.964-.727h17.6c3.055 0 4.655 0 5.964.727 1.309.582 2.182 1.6 2.909 2.909.436.727.582 1.455.582 2.473.145.291.145.582 0 .727v13.673c0 3.055 0 4.655-.727 5.964-.582 1.164-1.6 2.182-2.909 2.909-1.018.582-2.473.582-5.527.582zM4.218 26.764c.291.436.727.727 1.164.873.727.436 2.182.436 4.655.436h17.6c2.473 0 3.927 0 4.655-.436.436-.291.873-.582 1.164-.873l-9.891-9.018-.727.582c-1.164.873-1.891 1.309-2.764 1.6-.727.145-1.6.145-2.327 0-.873-.145-1.6-.727-2.764-1.6l-.727-.582L4.22 26.764zm-.873-16.437V23.709l8.291-7.564-8.291-5.818zm22.691 5.818 8.291 7.564V10.327l-8.291 5.818zm-11.054-1.309L16.727 16c.873.727 1.455 1.018 1.745 1.164s.582.145.873 0c.291-.145.873-.436 1.745-1.164l13.091-9.164c0-.436-.145-.727-.291-1.018a2.883 2.883 0 0 0-1.6-1.6c-.727-.436-2.182-.436-4.655-.436h-17.6c-2.473 0-3.927 0-4.655.436s-1.309 1.018-1.6 1.6c-.145.291-.145.582-.291 1.018l11.491 8c-.145 0-.145 0 0 0z"
      />
    </symbol>
    <symbol id="icon-lock-new" viewBox="0 0 32 32">
      <path
        d="M22.533 31.333H9.466c-2.8 0-4.267 0-5.467-.667-1.2-.533-2-1.467-2.667-2.667-.667-1.333-.667-2.667-.667-5.467v-.667c0-2.8 0-4.267.667-5.467.533-1.2 1.467-2 2.667-2.667.8-.4 1.6-.533 2.933-.533V9.731c0-5.067 4.133-9.067 9.067-9.067 5.067 0 9.067 4.133 9.067 9.067v3.333c1.2 0 2.133.267 2.933.667 1.2.533 2 1.467 2.667 2.667.667 1.333.667 2.667.667 5.467v.667c0 2.8 0 4.267-.667 5.467-.533 1.2-1.467 2-2.667 2.667s-2.667.667-5.467.667zm-13.066-15.6c-2.267 0-3.6 0-4.267.4-.667.267-1.2.8-1.467 1.467-.4.667-.4 2-.4 4.267v.667c0 2.267 0 3.6.4 4.267.267.667.8 1.2 1.467 1.467.667.4 2 .4 4.267.4h13.067c2.267 0 3.6 0 4.267-.4.667-.267 1.2-.8 1.467-1.467.4-.667.4-2 .4-4.267v-.667c0-2.267 0-3.6-.4-4.267-.267-.667-.8-1.2-1.467-1.467-.667-.4-2-.4-4.267-.4H9.467zm.133-2.666h12.933V9.734c0-3.6-2.933-6.4-6.4-6.4S9.6 6.267 9.6 9.734v3.333z"
      />
    </symbol>
    <symbol id="icon-close-new" viewBox="0 0 32 32">
      <path
        d="M28.444 31.111c-.711 0-1.422-.178-1.956-.711L15.999 19.733 5.51 30.222c-1.067 1.067-2.667 1.067-3.733 0s-1.067-2.667 0-3.733L12.266 16 1.599 5.511c-1.067-1.067-1.067-2.667 0-3.733s2.667-1.067 3.733 0l10.667 10.489L26.488 1.778c1.067-1.067 2.667-1.067 3.733 0s1.067 2.667 0 3.733L19.732 16l10.489 10.489c1.067 1.067 1.067 2.667 0 3.733-.356.711-1.067.889-1.778.889z"
      />
    </symbol>
    <symbol id="icon-mobile-menu" viewBox="0 0 32 32">
<path d="M19.8333 11.6666H3.5" stroke-width="2" stroke-linecap="round" stroke-linejoin="round"/>
<path d="M24.5 7H3.5" stroke-width="2" stroke-linecap="round" stroke-linejoin="round"/>
<path d="M24.5 16.3334H3.5" stroke-width="2" stroke-linecap="round" stroke-linejoin="round"/>
<path d="M19.8333 21H3.5" stroke-width="2" stroke-linecap="round" stroke-linejoin="round"/>
</symbol>
<symbol id="icon-mobile-close" viewBox="0 0 32 32">
<path d="M21 7L7 21M7 7L21 21" stroke-width="3" stroke-linecap="round" stroke-linejoin="round"/>
</symbol>
<symbol id="icon-Group-60team" viewBox="0 0 59 32">
<path fill="#eac645" style="fill: var(--color-logo)" d="M16.010 17.097v-5.039h1.67c0.348 0 0.673 0.066 0.975 0.198 0.305 0.13 0.572 0.311 0.803 0.543 0.233 0.23 0.414 0.498 0.544 0.803 0.132 0.302 0.198 0.627 0.198 0.975s-0.066 0.674-0.198 0.979c-0.13 0.302-0.311 0.57-0.544 0.803-0.23 0.23-0.498 0.412-0.803 0.544-0.302 0.13-0.627 0.194-0.975 0.194h-1.67zM16.888 16.218h0.792c0.223 0 0.433-0.042 0.63-0.126 0.199-0.086 0.374-0.204 0.526-0.353 0.151-0.151 0.27-0.325 0.356-0.522 0.086-0.199 0.13-0.413 0.13-0.641s-0.043-0.44-0.13-0.637c-0.086-0.197-0.205-0.371-0.356-0.522s-0.325-0.269-0.522-0.353c-0.197-0.086-0.408-0.13-0.633-0.13h-0.792v3.283zM20.822 17.097l-0.004-3.599h0.878l0.004 0.32c0.122-0.13 0.269-0.232 0.439-0.306 0.17-0.077 0.354-0.115 0.551-0.115 0.132 0 0.264 0.019 0.396 0.058l-0.346 0.885c-0.091-0.036-0.182-0.054-0.274-0.054-0.142 0-0.271 0.035-0.389 0.104-0.115 0.067-0.208 0.16-0.277 0.277-0.067 0.115-0.101 0.244-0.101 0.385v2.044h-0.878zM24.905 17.19c-0.331 0-0.633-0.085-0.907-0.256-0.271-0.17-0.488-0.4-0.651-0.687-0.161-0.288-0.241-0.606-0.241-0.954 0-0.262 0.047-0.506 0.14-0.734 0.094-0.23 0.222-0.432 0.385-0.605 0.166-0.175 0.358-0.312 0.576-0.41s0.451-0.148 0.698-0.148c0.281 0 0.537 0.060 0.77 0.18 0.235 0.118 0.434 0.28 0.597 0.486s0.282 0.442 0.356 0.705c0.074 0.264 0.091 0.54 0.050 0.828h-2.631c0.034 0.134 0.089 0.256 0.166 0.364 0.077 0.106 0.174 0.191 0.292 0.256 0.118 0.062 0.251 0.095 0.4 0.097 0.154 0.002 0.293-0.034 0.418-0.108 0.127-0.077 0.233-0.18 0.317-0.31l0.896 0.209c-0.146 0.319-0.365 0.581-0.655 0.785-0.29 0.202-0.615 0.302-0.975 0.302zM24.019 14.937h1.771c-0.026-0.144-0.083-0.274-0.169-0.389-0.084-0.118-0.188-0.211-0.313-0.281s-0.259-0.104-0.403-0.104c-0.144 0-0.277 0.035-0.4 0.104-0.122 0.067-0.227 0.16-0.313 0.277-0.084 0.115-0.142 0.246-0.173 0.392zM29.993 13.497h0.878v3.599h-0.878l-0.040-0.446c-0.098 0.161-0.229 0.292-0.392 0.392-0.161 0.098-0.352 0.148-0.572 0.148-0.266 0-0.516-0.050-0.749-0.151s-0.438-0.24-0.615-0.418c-0.175-0.178-0.313-0.383-0.414-0.615-0.098-0.233-0.148-0.482-0.148-0.749 0-0.257 0.047-0.498 0.14-0.723 0.096-0.226 0.229-0.424 0.4-0.594s0.367-0.304 0.59-0.4c0.223-0.096 0.463-0.144 0.72-0.144 0.238 0 0.45 0.053 0.637 0.158 0.19 0.106 0.35 0.24 0.482 0.403l-0.040-0.461zM28.967 16.344c0.187 0 0.353-0.047 0.497-0.14s0.257-0.22 0.338-0.378c0.082-0.161 0.122-0.337 0.122-0.529 0-0.194-0.041-0.371-0.122-0.529-0.082-0.161-0.196-0.288-0.342-0.382-0.144-0.094-0.308-0.14-0.493-0.14s-0.354 0.048-0.508 0.144c-0.151 0.094-0.272 0.22-0.364 0.378-0.089 0.158-0.133 0.335-0.133 0.529s0.046 0.371 0.137 0.529c0.091 0.158 0.212 0.284 0.364 0.378 0.154 0.094 0.322 0.14 0.504 0.14zM31.588 17.097v-3.599h0.878v0.32c0.122-0.13 0.269-0.232 0.439-0.306 0.17-0.077 0.354-0.115 0.551-0.115 0.25 0 0.479 0.059 0.687 0.176 0.211 0.118 0.379 0.275 0.504 0.472 0.127-0.197 0.295-0.354 0.504-0.472s0.438-0.176 0.687-0.176c0.264 0 0.503 0.065 0.716 0.194 0.216 0.127 0.388 0.299 0.515 0.515 0.13 0.214 0.194 0.452 0.194 0.716v2.275h-0.878v-2.041c0-0.139-0.035-0.266-0.104-0.382-0.067-0.118-0.158-0.211-0.274-0.281-0.113-0.072-0.24-0.108-0.382-0.108s-0.27 0.035-0.385 0.104c-0.113 0.067-0.204 0.158-0.274 0.274s-0.104 0.246-0.104 0.392v2.041h-0.878v-2.041c0-0.146-0.034-0.277-0.101-0.392s-0.158-0.206-0.274-0.274c-0.115-0.070-0.244-0.104-0.385-0.104-0.139 0-0.266 0.036-0.382 0.108-0.115 0.070-0.208 0.163-0.277 0.281-0.067 0.115-0.101 0.242-0.101 0.382v2.041h-0.878zM41.344 12.058v0.878h-1.541v4.161h-0.878v-4.161h-1.541v-0.878h3.959zM43.098 17.19c-0.331 0-0.633-0.085-0.907-0.256-0.271-0.17-0.488-0.4-0.651-0.687-0.161-0.288-0.241-0.606-0.241-0.954 0-0.262 0.047-0.506 0.14-0.734 0.094-0.23 0.222-0.432 0.385-0.605 0.166-0.175 0.358-0.312 0.576-0.41s0.451-0.148 0.698-0.148c0.281 0 0.537 0.060 0.77 0.18 0.235 0.118 0.434 0.28 0.597 0.486s0.282 0.442 0.356 0.705c0.074 0.264 0.091 0.54 0.050 0.828h-2.631c0.034 0.134 0.089 0.256 0.166 0.364 0.077 0.106 0.174 0.191 0.292 0.256 0.118 0.062 0.251 0.095 0.4 0.097 0.154 0.002 0.293-0.034 0.418-0.108 0.127-0.077 0.233-0.18 0.317-0.31l0.896 0.209c-0.146 0.319-0.365 0.581-0.655 0.785-0.29 0.202-0.615 0.302-0.975 0.302zM42.213 14.937h1.771c-0.026-0.144-0.083-0.274-0.169-0.389-0.084-0.118-0.188-0.211-0.313-0.281s-0.259-0.104-0.403-0.104c-0.144 0-0.277 0.035-0.4 0.104-0.122 0.067-0.227 0.16-0.313 0.277-0.084 0.115-0.142 0.246-0.173 0.392zM48.186 13.497h0.878v3.599h-0.878l-0.040-0.446c-0.098 0.161-0.229 0.292-0.392 0.392-0.161 0.098-0.352 0.148-0.572 0.148-0.266 0-0.516-0.050-0.749-0.151s-0.438-0.24-0.615-0.418c-0.175-0.178-0.313-0.383-0.414-0.615-0.098-0.233-0.148-0.482-0.148-0.749 0-0.257 0.047-0.498 0.14-0.723 0.096-0.226 0.229-0.424 0.4-0.594s0.367-0.304 0.59-0.4c0.223-0.096 0.463-0.144 0.72-0.144 0.238 0 0.45 0.053 0.637 0.158 0.19 0.106 0.35 0.24 0.482 0.403l-0.040-0.461zM47.16 16.344c0.187 0 0.353-0.047 0.497-0.14s0.257-0.22 0.338-0.378c0.082-0.161 0.122-0.337 0.122-0.529 0-0.194-0.041-0.371-0.122-0.529-0.082-0.161-0.196-0.288-0.342-0.382-0.144-0.094-0.308-0.14-0.493-0.14s-0.354 0.048-0.508 0.144c-0.151 0.094-0.272 0.22-0.364 0.378-0.089 0.158-0.133 0.335-0.133 0.529s0.046 0.371 0.137 0.529c0.091 0.158 0.212 0.284 0.364 0.378 0.154 0.094 0.322 0.14 0.504 0.14zM49.782 17.097v-3.599h0.878v0.32c0.122-0.13 0.269-0.232 0.439-0.306 0.17-0.077 0.354-0.115 0.551-0.115 0.25 0 0.479 0.059 0.687 0.176 0.211 0.118 0.379 0.275 0.504 0.472 0.127-0.197 0.295-0.354 0.504-0.472s0.438-0.176 0.687-0.176c0.264 0 0.503 0.065 0.716 0.194 0.216 0.127 0.388 0.299 0.515 0.515 0.13 0.214 0.194 0.452 0.194 0.716v2.275h-0.878v-2.041c0-0.139-0.035-0.266-0.104-0.382-0.067-0.118-0.158-0.211-0.274-0.281-0.113-0.072-0.24-0.108-0.382-0.108s-0.27 0.035-0.385 0.104c-0.113 0.067-0.204 0.158-0.274 0.274s-0.104 0.246-0.104 0.392v2.041h-0.878v-2.041c0-0.146-0.034-0.277-0.101-0.392s-0.158-0.206-0.274-0.274c-0.115-0.070-0.244-0.104-0.385-0.104-0.139 0-0.266 0.036-0.382 0.108-0.115 0.070-0.208 0.163-0.277 0.281-0.067 0.115-0.101 0.242-0.101 0.382v2.041h-0.878z"></path>
<path fill="#fff" style="fill: var(--color-logo)" d="M30.461 23.907c-0.697-0.63-1.55-1.108-2.52-1.368-3.272-0.877-6.636 1.065-7.513 4.337-0.268 1.001-0.273 2.011-0.056 2.955l1.65-0.442c-0.373-0.851-0.469-1.829-0.21-2.796 0.606-2.262 2.931-3.604 5.193-2.998 0.935 0.251 1.713 0.795 2.261 1.507l1.196-1.196z"></path>
<path fill="#fff" style="fill: var(--color-logo)" d="M23.634 26.643c0-0.996 0.808-1.804 1.804-1.804s1.804 0.808 1.804 1.804c0 0.996-0.808 1.804-1.804 1.804s-1.804-0.808-1.804-1.804z"></path>
<path fill="#fff" style="fill: var(--color-logo)" d="M8.111 23.726c0.697-0.63 1.55-1.108 2.52-1.368 3.272-0.877 6.636 1.065 7.513 4.337 0.268 1.001 0.273 2.011 0.056 2.955l-1.65-0.442c0.373-0.851 0.469-1.829 0.21-2.796-0.606-2.262-2.931-3.604-5.193-2.998-0.935 0.251-1.713 0.795-2.261 1.507l-1.196-1.196z"></path>
<path fill="#fff" style="fill: var(--color-logo)" d="M14.938 26.463c0-0.996-0.808-1.804-1.804-1.804s-1.804 0.808-1.804 1.804c0 0.996 0.808 1.804 1.804 1.804s1.804-0.808 1.804-1.804z"></path>
<path fill="#fff" style="fill: var(--color-logo)" d="M30.461 8.073c-0.697 0.63-1.55 1.108-2.52 1.368-3.272 0.877-6.636-1.065-7.513-4.338-0.268-1.001-0.273-2.010-0.056-2.955l1.65 0.442c-0.373 0.851-0.469 1.829-0.21 2.796 0.606 2.262 2.931 3.604 5.193 2.998 0.935-0.251 1.713-0.795 2.261-1.507l1.196 1.196z"></path>
<path fill="#fff" style="fill: var(--color-logo)" d="M23.634 5.336c0 0.996 0.808 1.804 1.804 1.804s1.804-0.808 1.804-1.804c0-0.996-0.808-1.804-1.804-1.804s-1.804 0.808-1.804 1.804z"></path>
<path fill="#fff" style="fill: var(--color-logo)" d="M8.111 8.073c0.697 0.63 1.55 1.108 2.52 1.368 3.272 0.877 6.636-1.065 7.513-4.338 0.268-1.001 0.273-2.010 0.056-2.955l-1.65 0.442c0.373 0.851 0.469 1.829 0.21 2.796-0.606 2.262-2.931 3.604-5.193 2.998-0.935-0.251-1.713-0.795-2.261-1.507l-1.196 1.196z"></path>
<path fill="#fff" style="fill: var(--color-logo)" d="M14.938 5.336c0 0.996-0.808 1.804-1.804 1.804s-1.804-0.808-1.804-1.804c0-0.996 0.808-1.804 1.804-1.804s1.804 0.808 1.804 1.804z"></path>
<path fill="#fff" style="fill: var(--color-logo)" d="M7.058 21.778c0.894-0.289 1.735-0.789 2.445-1.499 2.396-2.396 2.396-6.279 0-8.675-0.733-0.733-1.605-1.241-2.531-1.526l-0.442 1.65c0.923 0.103 1.819 0.508 2.526 1.216 1.656 1.656 1.656 4.34 0 5.996-0.685 0.685-1.545 1.086-2.436 1.205l0.438 1.634z"></path>
<path fill="#fff" style="fill: var(--color-logo)" d="M8.101 14.498c0.863 0.498 1.159 1.602 0.66 2.465s-1.602 1.159-2.465 0.66c-0.863-0.498-1.159-1.602-0.66-2.465s1.602-1.159 2.465-0.66z"></path>
<path fill="#fff" style="fill: var(--color-logo)" d="M22.778 18.784v0.234h-0.502v1.341h-0.234v-1.341h-0.501v-0.234h1.236zM23.707 19.234h0.234v1.125h-0.235l-0.009-0.163c-0.033 0.058-0.078 0.104-0.134 0.139s-0.123 0.053-0.199 0.053c-0.082 0-0.16-0.015-0.233-0.046s-0.137-0.075-0.192-0.13c-0.055-0.055-0.097-0.119-0.128-0.191s-0.046-0.151-0.046-0.234c0-0.080 0.015-0.156 0.045-0.226s0.072-0.133 0.125-0.187 0.115-0.095 0.184-0.125c0.070-0.031 0.146-0.046 0.226-0.046 0.082 0 0.154 0.019 0.216 0.056s0.115 0.084 0.156 0.142l-0.010-0.166zM23.359 20.162c0.066 0 0.124-0.016 0.173-0.048s0.088-0.077 0.115-0.133c0.028-0.055 0.042-0.117 0.042-0.184s-0.014-0.13-0.042-0.186-0.066-0.099-0.116-0.132c-0.049-0.033-0.106-0.049-0.172-0.049s-0.125 0.016-0.179 0.049-0.097 0.077-0.128 0.133c-0.032 0.055-0.047 0.117-0.047 0.184s0.016 0.13 0.048 0.186c0.033 0.055 0.076 0.099 0.129 0.132s0.113 0.048 0.177 0.048zM24.174 20.359v-1.687h0.234v1.687h-0.234zM25.157 20.388c-0.103 0-0.198-0.027-0.283-0.080s-0.153-0.124-0.204-0.214c-0.050-0.090-0.075-0.189-0.075-0.298 0-0.082 0.015-0.159 0.044-0.231s0.069-0.135 0.12-0.189c0.052-0.055 0.112-0.097 0.18-0.128s0.141-0.046 0.218-0.046c0.086 0 0.165 0.018 0.237 0.054s0.133 0.084 0.184 0.147c0.051 0.062 0.088 0.134 0.112 0.216s0.031 0.167 0.021 0.259h-0.867c0.010 0.052 0.029 0.099 0.056 0.141s0.064 0.074 0.108 0.098c0.044 0.024 0.093 0.036 0.147 0.037 0.057 0 0.109-0.014 0.155-0.043s0.086-0.068 0.116-0.118l0.237 0.055c-0.045 0.1-0.113 0.181-0.204 0.245s-0.192 0.094-0.305 0.094zM24.838 19.699h0.639c-0.007-0.054-0.027-0.103-0.057-0.146s-0.068-0.079-0.114-0.105c-0.045-0.026-0.094-0.039-0.148-0.039s-0.103 0.013-0.148 0.038c-0.045 0.025-0.082 0.060-0.112 0.105s-0.049 0.093-0.058 0.147zM26.911 19.653v0.705h-0.234v-0.648c0-0.050-0.012-0.096-0.037-0.137s-0.057-0.074-0.098-0.098c-0.041-0.025-0.086-0.037-0.137-0.037-0.049 0-0.095 0.012-0.136 0.037s-0.074 0.057-0.099 0.098-0.037 0.087-0.037 0.137v0.648h-0.234v-1.125h0.234v0.119c0.039-0.047 0.087-0.083 0.144-0.11s0.119-0.041 0.184-0.041c0.083 0 0.159 0.020 0.227 0.061s0.122 0.095 0.162 0.163c0.041 0.068 0.061 0.144 0.061 0.227zM27.73 19.468h-0.236l-0.001 0.891h-0.234l0.001-0.891h-0.179v-0.234h0.179l-0.001-0.353h0.234l0.001 0.353h0.236v0.234zM29.014 20.359h-0.233l-0.377-1.125h0.229l0.265 0.79 0.263-0.79h0.236l0.263 0.79 0.264-0.79h0.229l-0.376 1.125h-0.235l-0.265-0.795-0.265 0.795zM30.33 19.234h0.234v1.125h-0.234v-1.125zM30.449 19.071c-0.036 0-0.066-0.012-0.090-0.035s-0.036-0.052-0.036-0.088c0-0.034 0.012-0.063 0.036-0.087s0.054-0.036 0.089-0.036c0.035 0 0.064 0.012 0.088 0.036s0.036 0.052 0.036 0.087c0 0.035-0.012 0.064-0.036 0.088s-0.052 0.035-0.087 0.035zM31.837 19.653v0.705h-0.234v-0.648c0-0.050-0.012-0.096-0.037-0.137s-0.057-0.074-0.098-0.098c-0.041-0.025-0.086-0.037-0.137-0.037-0.049 0-0.095 0.012-0.136 0.037s-0.074 0.057-0.099 0.098-0.037 0.087-0.037 0.137v0.648h-0.234v-1.125h0.234v0.119c0.039-0.047 0.087-0.083 0.144-0.11s0.119-0.041 0.184-0.041c0.083 0 0.159 0.020 0.227 0.061s0.122 0.095 0.162 0.163c0.041 0.068 0.061 0.144 0.061 0.227zM32.399 20.38c-0.059-0.004-0.117-0.016-0.173-0.036s-0.106-0.048-0.148-0.082c-0.042-0.035-0.074-0.076-0.094-0.124l0.199-0.085c0.010 0.020 0.027 0.040 0.051 0.060s0.054 0.036 0.087 0.048c0.033 0.012 0.068 0.018 0.103 0.018s0.068-0.005 0.098-0.015c0.031-0.011 0.056-0.026 0.075-0.047s0.029-0.046 0.029-0.075c0-0.033-0.011-0.058-0.034-0.076s-0.049-0.033-0.082-0.043c-0.033-0.010-0.066-0.019-0.099-0.028-0.074-0.016-0.141-0.039-0.202-0.067s-0.109-0.066-0.145-0.111c-0.036-0.046-0.054-0.102-0.054-0.168 0-0.072 0.019-0.134 0.059-0.187s0.090-0.094 0.153-0.123c0.064-0.029 0.132-0.043 0.204-0.043 0.090 0 0.172 0.019 0.247 0.057s0.132 0.091 0.172 0.157l-0.186 0.11c-0.011-0.023-0.028-0.043-0.051-0.061s-0.048-0.032-0.077-0.043c-0.029-0.011-0.058-0.018-0.089-0.019-0.038-0.002-0.074 0.003-0.107 0.014s-0.058 0.025-0.078 0.047c-0.019 0.022-0.029 0.049-0.029 0.083s0.012 0.058 0.035 0.074c0.023 0.016 0.052 0.029 0.088 0.038s0.073 0.021 0.11 0.033c0.067 0.021 0.129 0.047 0.188 0.078s0.106 0.067 0.142 0.111 0.053 0.098 0.052 0.162c0 0.070-0.021 0.132-0.064 0.186s-0.097 0.094-0.164 0.121-0.139 0.039-0.215 0.035zM34.431 19.234h0.234v1.154c0 0.077-0.017 0.148-0.050 0.214s-0.076 0.121-0.132 0.169c-0.056 0.048-0.119 0.085-0.191 0.111s-0.146 0.039-0.224 0.039c-0.079 0-0.154-0.017-0.227-0.051s-0.137-0.078-0.192-0.135c-0.055-0.057-0.096-0.121-0.123-0.193l0.215-0.097c0.015 0.047 0.039 0.088 0.072 0.124s0.073 0.064 0.117 0.085c0.045 0.021 0.091 0.032 0.138 0.032s0.091-0.007 0.134-0.023c0.043-0.014 0.082-0.034 0.116-0.061s0.062-0.058 0.082-0.094 0.030-0.077 0.030-0.12v-0.19c-0.037 0.057-0.084 0.103-0.142 0.138s-0.125 0.052-0.201 0.052c-0.080 0-0.154-0.015-0.225-0.046s-0.132-0.073-0.186-0.127c-0.053-0.055-0.095-0.118-0.125-0.189s-0.045-0.148-0.045-0.229 0.015-0.158 0.045-0.229c0.030-0.072 0.072-0.135 0.125-0.189s0.115-0.097 0.186-0.128c0.070-0.031 0.145-0.046 0.225-0.046 0.077 0 0.144 0.018 0.201 0.053s0.105 0.081 0.142 0.138v-0.161zM34.090 20.162c0.065 0 0.122-0.016 0.171-0.049s0.087-0.078 0.114-0.134 0.041-0.116 0.041-0.182c0-0.067-0.014-0.129-0.042-0.183s-0.065-0.1-0.114-0.133c-0.049-0.034-0.105-0.051-0.17-0.051-0.063 0-0.121 0.016-0.173 0.049s-0.093 0.077-0.124 0.133c-0.031 0.055-0.046 0.117-0.046 0.184s0.015 0.129 0.046 0.184c0.032 0.055 0.073 0.1 0.125 0.133s0.11 0.048 0.172 0.048zM35.79 19.234h0.234v1.125h-0.235l-0.009-0.163c-0.033 0.058-0.078 0.104-0.134 0.139s-0.123 0.053-0.199 0.053c-0.083 0-0.16-0.015-0.233-0.046s-0.137-0.075-0.192-0.13c-0.055-0.055-0.098-0.119-0.128-0.191s-0.046-0.151-0.046-0.234c0-0.080 0.015-0.156 0.045-0.226s0.072-0.133 0.125-0.187c0.053-0.053 0.115-0.095 0.184-0.125s0.146-0.046 0.226-0.046c0.082 0 0.154 0.019 0.216 0.056s0.115 0.084 0.156 0.142l-0.010-0.166zM35.441 20.162c0.066 0 0.124-0.016 0.173-0.048s0.088-0.077 0.115-0.133c0.028-0.055 0.042-0.117 0.042-0.184s-0.014-0.13-0.042-0.186c-0.028-0.055-0.066-0.099-0.116-0.132s-0.106-0.049-0.172-0.049c-0.065 0-0.125 0.016-0.179 0.049s-0.097 0.077-0.128 0.133c-0.032 0.055-0.047 0.117-0.047 0.184s0.016 0.13 0.048 0.186c0.033 0.055 0.076 0.099 0.129 0.132s0.113 0.048 0.177 0.048zM36.248 20.359v-1.125h0.234v0.119c0.039-0.047 0.087-0.083 0.143-0.11s0.118-0.041 0.184-0.041c0.080 0 0.154 0.020 0.222 0.058s0.121 0.089 0.161 0.153c0.040-0.064 0.093-0.115 0.159-0.153s0.14-0.058 0.22-0.058c0.083 0 0.159 0.020 0.227 0.061s0.123 0.095 0.163 0.163 0.061 0.144 0.061 0.227v0.705h-0.234v-0.646c0-0.049-0.012-0.095-0.036-0.136s-0.056-0.075-0.097-0.1-0.085-0.038-0.135-0.038c-0.050 0-0.094 0.012-0.135 0.036s-0.073 0.057-0.097 0.098c-0.024 0.041-0.036 0.088-0.036 0.141v0.646h-0.234v-0.646c0-0.052-0.012-0.099-0.036-0.141s-0.057-0.074-0.098-0.098c-0.041-0.024-0.085-0.036-0.135-0.036s-0.094 0.013-0.135 0.038c-0.041 0.025-0.073 0.059-0.097 0.1s-0.036 0.087-0.036 0.136v0.646h-0.234zM38.72 20.388c-0.103 0-0.198-0.027-0.283-0.080s-0.153-0.124-0.204-0.214c-0.050-0.090-0.075-0.189-0.075-0.298 0-0.082 0.015-0.159 0.044-0.231s0.069-0.135 0.12-0.189c0.052-0.055 0.112-0.097 0.18-0.128s0.141-0.046 0.218-0.046c0.086 0 0.165 0.018 0.237 0.054s0.133 0.084 0.184 0.147c0.051 0.062 0.088 0.134 0.112 0.216s0.031 0.167 0.021 0.259h-0.867c0.010 0.052 0.029 0.099 0.056 0.141s0.065 0.074 0.108 0.098c0.044 0.024 0.093 0.036 0.147 0.037 0.057 0 0.109-0.014 0.155-0.043s0.086-0.068 0.116-0.118l0.237 0.055c-0.045 0.1-0.113 0.181-0.204 0.245s-0.192 0.094-0.305 0.094zM38.401 19.699h0.639c-0.007-0.054-0.027-0.103-0.057-0.146s-0.068-0.079-0.114-0.105c-0.045-0.026-0.094-0.039-0.148-0.039s-0.103 0.013-0.148 0.038c-0.045 0.025-0.083 0.060-0.112 0.105s-0.049 0.093-0.059 0.147zM39.804 20.38c-0.059-0.004-0.117-0.016-0.173-0.036s-0.106-0.048-0.148-0.082c-0.042-0.035-0.073-0.076-0.094-0.124l0.199-0.085c0.010 0.020 0.027 0.040 0.051 0.060s0.054 0.036 0.087 0.048c0.033 0.012 0.068 0.018 0.103 0.018s0.068-0.005 0.098-0.015c0.031-0.011 0.056-0.026 0.075-0.047s0.029-0.046 0.029-0.075c0-0.033-0.011-0.058-0.034-0.076s-0.049-0.033-0.082-0.043c-0.033-0.010-0.066-0.019-0.099-0.028-0.073-0.016-0.141-0.039-0.202-0.067s-0.109-0.066-0.145-0.111c-0.036-0.046-0.054-0.102-0.054-0.168 0-0.072 0.020-0.134 0.059-0.187s0.090-0.094 0.153-0.123c0.064-0.029 0.132-0.043 0.204-0.043 0.090 0 0.172 0.019 0.247 0.057s0.132 0.091 0.172 0.157l-0.186 0.11c-0.011-0.023-0.028-0.043-0.051-0.061s-0.048-0.032-0.077-0.043c-0.028-0.011-0.058-0.018-0.089-0.019-0.038-0.002-0.074 0.003-0.107 0.014s-0.058 0.025-0.078 0.047c-0.019 0.022-0.029 0.049-0.029 0.083s0.012 0.058 0.035 0.074c0.023 0.016 0.053 0.029 0.088 0.038s0.073 0.021 0.11 0.033c0.067 0.021 0.129 0.047 0.188 0.078s0.106 0.067 0.142 0.111 0.053 0.098 0.052 0.162c0 0.070-0.021 0.132-0.064 0.186s-0.097 0.094-0.164 0.121-0.139 0.039-0.215 0.035zM40.386 20.485l0.070-0.38h0.234l-0.148 0.38h-0.155zM42.086 19.202c0.109 0 0.209 0.027 0.298 0.080s0.162 0.125 0.215 0.215c0.053 0.089 0.080 0.189 0.080 0.298 0 0.082-0.015 0.159-0.046 0.231s-0.074 0.134-0.128 0.189c-0.054 0.054-0.117 0.096-0.189 0.127s-0.148 0.046-0.229 0.046c-0.079 0-0.148-0.018-0.207-0.054s-0.106-0.084-0.144-0.141v0.165h-0.234v-1.687h0.234v0.725c0.038-0.058 0.085-0.105 0.144-0.141s0.128-0.054 0.207-0.054zM42.084 20.161c0.065 0 0.125-0.016 0.179-0.049s0.097-0.077 0.128-0.133c0.032-0.055 0.048-0.117 0.048-0.183 0-0.068-0.016-0.13-0.048-0.186s-0.075-0.099-0.129-0.132c-0.054-0.033-0.113-0.049-0.178-0.049s-0.123 0.016-0.172 0.049-0.088 0.077-0.116 0.133c-0.028 0.055-0.042 0.117-0.042 0.184s0.014 0.129 0.042 0.184c0.028 0.055 0.066 0.1 0.116 0.133s0.107 0.048 0.172 0.048zM42.794 19.937v-0.703h0.234v0.646c0 0.050 0.012 0.096 0.037 0.137s0.058 0.074 0.099 0.099c0.041 0.024 0.087 0.036 0.136 0.036s0.096-0.012 0.136-0.036c0.041-0.025 0.074-0.058 0.098-0.099s0.037-0.087 0.037-0.137v-0.646h0.234l0.001 1.125h-0.234l-0.001-0.121c-0.038 0.047-0.086 0.083-0.143 0.11s-0.118 0.041-0.183 0.041c-0.083 0-0.159-0.020-0.227-0.061s-0.123-0.095-0.163-0.163c-0.041-0.068-0.061-0.144-0.061-0.227zM44.626 19.468h-0.236l-0.001 0.891h-0.234l0.001-0.891h-0.179v-0.234h0.179l-0.001-0.353h0.234l0.001 0.353h0.236v0.234zM45.961 19.468h-0.236l-0.001 0.891h-0.234l0.001-0.891h-0.179v-0.234h0.179l-0.001-0.353h0.234l0.001 0.353h0.236v0.234zM46.631 20.388c-0.103 0-0.198-0.027-0.283-0.080s-0.153-0.124-0.204-0.214c-0.050-0.090-0.075-0.189-0.075-0.298 0-0.082 0.015-0.159 0.044-0.231s0.069-0.135 0.12-0.189c0.052-0.055 0.112-0.097 0.18-0.128s0.141-0.046 0.218-0.046c0.086 0 0.165 0.018 0.237 0.054s0.133 0.084 0.184 0.147c0.051 0.062 0.088 0.134 0.112 0.216s0.031 0.167 0.021 0.259h-0.867c0.010 0.052 0.029 0.099 0.056 0.141s0.065 0.074 0.108 0.098c0.044 0.024 0.093 0.036 0.147 0.037 0.057 0 0.109-0.014 0.155-0.043s0.086-0.068 0.116-0.118l0.237 0.055c-0.045 0.1-0.113 0.181-0.204 0.245s-0.192 0.094-0.305 0.094zM46.312 19.699h0.639c-0.007-0.054-0.027-0.103-0.057-0.146s-0.068-0.079-0.114-0.105c-0.045-0.026-0.094-0.039-0.148-0.039s-0.103 0.013-0.148 0.038c-0.045 0.025-0.083 0.060-0.112 0.105s-0.049 0.093-0.059 0.147zM48.246 19.234h0.234v1.125h-0.235l-0.009-0.163c-0.033 0.058-0.078 0.104-0.134 0.139s-0.123 0.053-0.199 0.053c-0.083 0-0.16-0.015-0.233-0.046s-0.137-0.075-0.192-0.13c-0.055-0.055-0.097-0.119-0.128-0.191s-0.046-0.151-0.046-0.234c0-0.080 0.015-0.156 0.045-0.226s0.072-0.133 0.125-0.187 0.115-0.095 0.184-0.125c0.070-0.031 0.146-0.046 0.226-0.046 0.082 0 0.154 0.019 0.216 0.056s0.115 0.084 0.156 0.142l-0.010-0.166zM47.897 20.162c0.066 0 0.124-0.016 0.173-0.048s0.088-0.077 0.115-0.133c0.028-0.055 0.042-0.117 0.042-0.184s-0.014-0.13-0.042-0.186-0.066-0.099-0.116-0.132c-0.049-0.033-0.106-0.049-0.172-0.049s-0.125 0.016-0.179 0.049-0.097 0.077-0.128 0.133c-0.032 0.055-0.047 0.117-0.047 0.184s0.016 0.13 0.048 0.186c0.033 0.055 0.076 0.099 0.129 0.132s0.113 0.048 0.177 0.048zM48.704 20.359v-1.125h0.234v0.119c0.039-0.047 0.087-0.083 0.143-0.11s0.118-0.041 0.184-0.041c0.080 0 0.154 0.020 0.222 0.058s0.121 0.089 0.161 0.153c0.040-0.064 0.093-0.115 0.159-0.153s0.14-0.058 0.22-0.058c0.083 0 0.159 0.020 0.227 0.061s0.123 0.095 0.163 0.163c0.041 0.068 0.061 0.144 0.061 0.227v0.705h-0.234v-0.646c0-0.049-0.012-0.095-0.036-0.136s-0.056-0.075-0.097-0.1c-0.041-0.025-0.085-0.038-0.135-0.038s-0.094 0.012-0.135 0.036c-0.041 0.024-0.073 0.057-0.097 0.098s-0.036 0.088-0.036 0.141v0.646h-0.234v-0.646c0-0.052-0.012-0.099-0.036-0.141s-0.057-0.074-0.098-0.098c-0.041-0.024-0.085-0.036-0.135-0.036s-0.094 0.013-0.135 0.038c-0.041 0.025-0.073 0.059-0.097 0.1s-0.036 0.087-0.036 0.136v0.646h-0.234zM51.204 20.359h-0.233l-0.377-1.125h0.229l0.265 0.79 0.263-0.79h0.236l0.263 0.79 0.264-0.79h0.229l-0.376 1.125h-0.235l-0.265-0.795-0.265 0.795zM52.971 20.388c-0.103 0-0.198-0.027-0.283-0.080s-0.153-0.124-0.204-0.214c-0.050-0.090-0.075-0.189-0.075-0.298 0-0.082 0.015-0.159 0.044-0.231s0.069-0.135 0.12-0.189c0.052-0.055 0.112-0.097 0.18-0.128s0.141-0.046 0.218-0.046c0.103 0 0.198 0.027 0.282 0.080s0.153 0.125 0.204 0.215c0.051 0.090 0.077 0.19 0.077 0.299 0 0.082-0.015 0.158-0.044 0.229s-0.070 0.134-0.121 0.189c-0.051 0.054-0.111 0.096-0.179 0.127s-0.14 0.046-0.218 0.046zM52.971 20.154c0.062 0 0.118-0.016 0.168-0.049s0.089-0.076 0.117-0.13c0.029-0.055 0.044-0.114 0.044-0.178 0-0.065-0.015-0.125-0.045-0.18s-0.069-0.098-0.118-0.13c-0.050-0.033-0.105-0.049-0.165-0.049s-0.117 0.016-0.168 0.049c-0.050 0.033-0.089 0.077-0.118 0.132s-0.043 0.114-0.043 0.179c0 0.067 0.015 0.127 0.045 0.181s0.070 0.097 0.119 0.129c0.050 0.032 0.105 0.047 0.164 0.047zM53.715 20.359v-1.125h0.234v0.119c0.039-0.047 0.087-0.083 0.144-0.11s0.118-0.041 0.184-0.041c0.042 0 0.084 0.006 0.125 0.017l-0.093 0.236c-0.029-0.011-0.059-0.017-0.088-0.017-0.050 0-0.095 0.012-0.136 0.037s-0.074 0.057-0.099 0.098-0.037 0.087-0.037 0.137v0.648h-0.234zM55.492 20.359h-0.27l-0.277-0.477-0.181 0.216v0.261h-0.234v-1.687h0.234v1.063l0.418-0.501h0.306l-0.384 0.458 0.387 0.667zM36.14 23.058h-0.233l-0.377-1.125h0.229l0.265 0.79 0.263-0.79h0.236l0.263 0.79 0.264-0.79h0.229l-0.376 1.125h-0.235l-0.265-0.795-0.265 0.795zM37.457 21.933h0.234v1.125h-0.234v-1.125zM37.576 21.77c-0.036 0-0.066-0.012-0.090-0.035s-0.036-0.052-0.036-0.088c0-0.034 0.012-0.063 0.036-0.087s0.054-0.036 0.089-0.036c0.034 0 0.064 0.012 0.088 0.036s0.036 0.052 0.036 0.087c0 0.035-0.012 0.064-0.036 0.088s-0.052 0.035-0.087 0.035zM38.963 22.353v0.705h-0.234v-0.648c0-0.050-0.012-0.096-0.037-0.137s-0.057-0.074-0.098-0.098c-0.041-0.025-0.086-0.037-0.137-0.037-0.050 0-0.095 0.012-0.136 0.037s-0.074 0.057-0.099 0.098-0.037 0.087-0.037 0.137v0.648h-0.234v-1.125h0.234v0.119c0.039-0.047 0.087-0.083 0.144-0.11s0.118-0.041 0.184-0.041c0.083 0 0.159 0.020 0.227 0.061s0.122 0.095 0.162 0.163c0.041 0.068 0.061 0.144 0.061 0.227zM39.525 23.079c-0.059-0.004-0.117-0.016-0.173-0.036s-0.106-0.048-0.148-0.082c-0.042-0.035-0.073-0.076-0.094-0.124l0.199-0.085c0.010 0.020 0.027 0.040 0.051 0.060s0.054 0.036 0.087 0.048c0.033 0.012 0.068 0.018 0.103 0.018s0.068-0.005 0.098-0.015c0.031-0.011 0.056-0.026 0.075-0.047s0.029-0.046 0.029-0.075c0-0.033-0.011-0.058-0.034-0.076s-0.049-0.033-0.082-0.043c-0.033-0.010-0.066-0.019-0.099-0.028-0.073-0.016-0.141-0.039-0.202-0.067s-0.109-0.066-0.145-0.111c-0.036-0.046-0.054-0.102-0.054-0.168 0-0.072 0.020-0.134 0.059-0.187s0.090-0.094 0.153-0.123c0.064-0.029 0.132-0.043 0.204-0.043 0.090 0 0.172 0.019 0.247 0.057s0.132 0.091 0.172 0.157l-0.186 0.11c-0.011-0.023-0.028-0.043-0.051-0.061s-0.048-0.032-0.077-0.043c-0.028-0.011-0.058-0.018-0.089-0.019-0.038-0.002-0.074 0.003-0.107 0.014s-0.058 0.025-0.078 0.047c-0.019 0.022-0.029 0.049-0.029 0.083s0.012 0.058 0.035 0.074c0.023 0.016 0.053 0.029 0.088 0.038s0.073 0.021 0.11 0.033c0.067 0.021 0.129 0.047 0.188 0.078s0.106 0.067 0.142 0.111 0.053 0.098 0.052 0.162c0 0.070-0.021 0.132-0.064 0.186s-0.097 0.094-0.164 0.121-0.139 0.039-0.215 0.035zM41.436 22.739l0.209 0.114c-0.051 0.071-0.116 0.128-0.195 0.171s-0.163 0.064-0.254 0.064c-0.103 0-0.198-0.027-0.283-0.080s-0.153-0.124-0.204-0.214c-0.050-0.090-0.075-0.189-0.075-0.298 0-0.082 0.015-0.159 0.044-0.231s0.069-0.135 0.12-0.189c0.052-0.055 0.112-0.097 0.18-0.128s0.141-0.046 0.218-0.046c0.092 0 0.176 0.021 0.254 0.064s0.144 0.1 0.195 0.172l-0.209 0.114c-0.032-0.038-0.068-0.066-0.11-0.085s-0.085-0.030-0.129-0.030c-0.061 0-0.117 0.017-0.168 0.051s-0.089 0.077-0.118 0.132c-0.028 0.054-0.043 0.113-0.043 0.178s0.015 0.123 0.044 0.178c0.029 0.054 0.069 0.097 0.118 0.13s0.106 0.049 0.166 0.049c0.047 0 0.091-0.011 0.133-0.032s0.078-0.049 0.107-0.083zM42.832 22.353v0.705h-0.234v-0.648c0-0.050-0.012-0.096-0.037-0.137s-0.057-0.074-0.098-0.098c-0.041-0.025-0.086-0.037-0.137-0.037-0.050 0-0.095 0.012-0.136 0.037s-0.074 0.057-0.099 0.098-0.037 0.087-0.037 0.137v0.648h-0.234v-1.687h0.234v0.682c0.039-0.047 0.087-0.083 0.144-0.11s0.118-0.041 0.184-0.041c0.083 0 0.159 0.020 0.227 0.061s0.122 0.095 0.162 0.163c0.041 0.068 0.061 0.144 0.061 0.227zM43.909 21.933h0.234v1.125h-0.235l-0.009-0.163c-0.033 0.058-0.078 0.104-0.134 0.139s-0.123 0.053-0.199 0.053c-0.083 0-0.16-0.015-0.233-0.046s-0.137-0.075-0.192-0.13c-0.055-0.055-0.098-0.119-0.128-0.191s-0.046-0.151-0.046-0.234c0-0.080 0.015-0.156 0.045-0.226s0.072-0.133 0.125-0.187c0.053-0.053 0.115-0.095 0.184-0.125s0.146-0.046 0.226-0.046c0.082 0 0.154 0.019 0.216 0.056s0.115 0.084 0.156 0.142l-0.010-0.166zM43.561 22.861c0.066 0 0.124-0.016 0.173-0.048s0.088-0.077 0.115-0.133c0.028-0.055 0.042-0.117 0.042-0.184s-0.014-0.13-0.042-0.186c-0.028-0.055-0.066-0.099-0.116-0.132s-0.106-0.049-0.172-0.049c-0.065 0-0.125 0.016-0.179 0.049s-0.097 0.077-0.128 0.133c-0.032 0.055-0.047 0.117-0.047 0.184s0.016 0.13 0.048 0.186c0.033 0.055 0.076 0.099 0.129 0.132s0.113 0.048 0.177 0.048zM44.368 23.058v-1.125h0.234v0.119c0.039-0.047 0.087-0.083 0.143-0.11s0.118-0.041 0.184-0.041c0.080 0 0.154 0.020 0.222 0.058s0.121 0.089 0.161 0.153c0.040-0.064 0.093-0.115 0.159-0.153s0.14-0.058 0.22-0.058c0.083 0 0.159 0.020 0.227 0.061s0.123 0.095 0.163 0.163 0.061 0.144 0.061 0.227v0.705h-0.234v-0.646c0-0.049-0.012-0.095-0.036-0.136s-0.056-0.075-0.097-0.1-0.085-0.038-0.135-0.038c-0.050 0-0.094 0.012-0.135 0.036s-0.073 0.057-0.097 0.098c-0.024 0.041-0.036 0.088-0.036 0.141v0.646h-0.234v-0.646c0-0.052-0.012-0.099-0.036-0.141s-0.057-0.074-0.098-0.098c-0.041-0.024-0.085-0.036-0.135-0.036s-0.094 0.013-0.135 0.038c-0.041 0.025-0.073 0.059-0.097 0.1s-0.036 0.087-0.036 0.136v0.646h-0.234zM46.601 23.62h-0.234v-1.687h0.234v0.165c0.037-0.058 0.085-0.105 0.144-0.141s0.127-0.054 0.207-0.054c0.082 0 0.158 0.015 0.229 0.046s0.135 0.073 0.189 0.128c0.054 0.054 0.096 0.117 0.127 0.188s0.046 0.148 0.046 0.229-0.015 0.159-0.046 0.231c-0.031 0.072-0.073 0.135-0.127 0.19s-0.117 0.096-0.189 0.127c-0.071 0.031-0.148 0.046-0.229 0.046-0.080 0-0.148-0.018-0.207-0.054s-0.107-0.084-0.144-0.141v0.725zM46.95 22.13c-0.065 0-0.123 0.016-0.172 0.049s-0.088 0.077-0.116 0.133c-0.028 0.055-0.042 0.116-0.042 0.183s0.014 0.129 0.042 0.184c0.028 0.055 0.066 0.1 0.116 0.133s0.107 0.049 0.172 0.049c0.064 0 0.124-0.016 0.178-0.048s0.097-0.077 0.129-0.133c0.032-0.055 0.048-0.117 0.048-0.186 0-0.067-0.016-0.128-0.048-0.183s-0.074-0.1-0.128-0.133-0.114-0.049-0.179-0.049zM47.705 21.933h0.234v1.125h-0.234v-1.125zM47.824 21.77c-0.036 0-0.066-0.012-0.090-0.035s-0.036-0.052-0.036-0.088c0-0.034 0.012-0.063 0.036-0.087s0.054-0.036 0.089-0.036c0.034 0 0.064 0.012 0.088 0.036s0.036 0.052 0.036 0.087c0 0.035-0.012 0.064-0.036 0.088s-0.052 0.035-0.087 0.035zM48.683 23.087c-0.103 0-0.198-0.027-0.283-0.080s-0.153-0.124-0.204-0.214c-0.050-0.090-0.075-0.189-0.075-0.298 0-0.082 0.015-0.159 0.044-0.231s0.069-0.135 0.12-0.189c0.052-0.055 0.112-0.097 0.18-0.128s0.141-0.046 0.218-0.046c0.103 0 0.198 0.027 0.282 0.080s0.153 0.125 0.204 0.215c0.051 0.090 0.077 0.19 0.077 0.299 0 0.082-0.015 0.158-0.044 0.229s-0.070 0.134-0.121 0.189c-0.051 0.054-0.111 0.096-0.179 0.127s-0.14 0.046-0.218 0.046zM48.683 22.853c0.062 0 0.118-0.016 0.168-0.049s0.089-0.076 0.117-0.13c0.029-0.055 0.044-0.114 0.044-0.178 0-0.065-0.015-0.125-0.045-0.18s-0.069-0.098-0.118-0.13c-0.050-0.033-0.105-0.049-0.165-0.049s-0.117 0.016-0.168 0.049c-0.050 0.033-0.089 0.077-0.118 0.132s-0.043 0.114-0.043 0.179c0 0.067 0.015 0.127 0.045 0.181s0.070 0.097 0.119 0.129c0.050 0.032 0.105 0.047 0.164 0.047zM50.439 22.353v0.705h-0.234v-0.648c0-0.050-0.012-0.096-0.037-0.137s-0.057-0.074-0.098-0.098c-0.041-0.025-0.086-0.037-0.137-0.037-0.050 0-0.095 0.012-0.136 0.037s-0.074 0.057-0.099 0.098-0.037 0.087-0.037 0.137v0.648h-0.234v-1.125h0.234v0.119c0.039-0.047 0.087-0.083 0.144-0.11s0.118-0.041 0.184-0.041c0.083 0 0.159 0.020 0.227 0.061s0.122 0.095 0.162 0.163c0.041 0.068 0.061 0.144 0.061 0.227zM51.001 23.079c-0.059-0.004-0.117-0.016-0.173-0.036s-0.106-0.048-0.148-0.082c-0.042-0.035-0.074-0.076-0.094-0.124l0.199-0.085c0.010 0.020 0.027 0.040 0.051 0.060s0.054 0.036 0.087 0.048c0.033 0.012 0.068 0.018 0.103 0.018s0.068-0.005 0.098-0.015c0.031-0.011 0.056-0.026 0.075-0.047s0.029-0.046 0.029-0.075c0-0.033-0.011-0.058-0.034-0.076s-0.049-0.033-0.082-0.043c-0.033-0.010-0.066-0.019-0.099-0.028-0.074-0.016-0.141-0.039-0.202-0.067s-0.109-0.066-0.145-0.111c-0.036-0.046-0.054-0.102-0.054-0.168 0-0.072 0.019-0.134 0.059-0.187s0.090-0.094 0.153-0.123c0.064-0.029 0.132-0.043 0.204-0.043 0.090 0 0.172 0.019 0.247 0.057s0.132 0.091 0.172 0.157l-0.186 0.11c-0.011-0.023-0.028-0.043-0.051-0.061s-0.048-0.032-0.077-0.043c-0.029-0.011-0.058-0.018-0.089-0.019-0.038-0.002-0.074 0.003-0.107 0.014s-0.058 0.025-0.078 0.047c-0.020 0.022-0.029 0.049-0.029 0.083s0.012 0.058 0.035 0.074c0.023 0.016 0.052 0.029 0.088 0.038s0.073 0.021 0.11 0.033c0.067 0.021 0.129 0.047 0.188 0.078s0.106 0.067 0.142 0.111 0.053 0.098 0.052 0.162c0 0.070-0.021 0.132-0.064 0.186s-0.097 0.094-0.164 0.121-0.139 0.039-0.215 0.035zM52.649 22.353v0.705h-0.234v-0.648c0-0.050-0.012-0.096-0.037-0.137s-0.057-0.074-0.098-0.098c-0.041-0.025-0.086-0.037-0.137-0.037-0.050 0-0.095 0.012-0.136 0.037s-0.074 0.057-0.099 0.098-0.037 0.087-0.037 0.137v0.648h-0.234v-1.687h0.234v0.682c0.039-0.047 0.087-0.083 0.144-0.11s0.118-0.041 0.184-0.041c0.083 0 0.159 0.020 0.227 0.061s0.122 0.095 0.162 0.163c0.041 0.068 0.061 0.144 0.061 0.227zM52.874 21.933h0.234v1.125h-0.234v-1.125zM52.993 21.77c-0.036 0-0.066-0.012-0.090-0.035s-0.036-0.052-0.036-0.088c0-0.034 0.012-0.063 0.036-0.087s0.054-0.036 0.089-0.036c0.034 0 0.064 0.012 0.088 0.036s0.036 0.052 0.036 0.087c0 0.035-0.012 0.064-0.036 0.088s-0.052 0.035-0.087 0.035zM53.596 23.62h-0.234v-1.687h0.234v0.165c0.037-0.058 0.085-0.105 0.144-0.141s0.127-0.054 0.207-0.054c0.082 0 0.158 0.015 0.229 0.046s0.135 0.073 0.189 0.128c0.054 0.054 0.096 0.117 0.127 0.188s0.046 0.148 0.046 0.229-0.015 0.159-0.046 0.231c-0.031 0.072-0.073 0.135-0.127 0.19s-0.117 0.096-0.189 0.127c-0.071 0.031-0.148 0.046-0.229 0.046-0.080 0-0.148-0.018-0.207-0.054s-0.107-0.084-0.144-0.141v0.725zM53.944 22.13c-0.065 0-0.123 0.016-0.172 0.049s-0.088 0.077-0.116 0.133c-0.028 0.055-0.042 0.116-0.042 0.183s0.014 0.129 0.042 0.184c0.028 0.055 0.066 0.1 0.116 0.133s0.107 0.049 0.172 0.049c0.064 0 0.124-0.016 0.178-0.048s0.097-0.077 0.129-0.133c0.032-0.055 0.048-0.117 0.048-0.186 0-0.067-0.016-0.128-0.048-0.183s-0.074-0.1-0.128-0.133-0.114-0.049-0.179-0.049zM55.063 23.079c-0.059-0.004-0.117-0.016-0.173-0.036s-0.106-0.048-0.148-0.082c-0.042-0.035-0.073-0.076-0.094-0.124l0.199-0.085c0.010 0.020 0.027 0.040 0.051 0.060s0.054 0.036 0.087 0.048c0.033 0.012 0.068 0.018 0.103 0.018s0.068-0.005 0.098-0.015c0.031-0.011 0.056-0.026 0.075-0.047s0.029-0.046 0.029-0.075c0-0.033-0.011-0.058-0.034-0.076s-0.049-0.033-0.082-0.043c-0.033-0.010-0.066-0.019-0.099-0.028-0.073-0.016-0.141-0.039-0.202-0.067s-0.109-0.066-0.145-0.111c-0.036-0.046-0.054-0.102-0.054-0.168 0-0.072 0.020-0.134 0.059-0.187s0.090-0.094 0.153-0.123c0.064-0.029 0.132-0.043 0.204-0.043 0.090 0 0.172 0.019 0.247 0.057s0.132 0.091 0.172 0.157l-0.186 0.11c-0.011-0.023-0.028-0.043-0.051-0.061s-0.048-0.032-0.077-0.043c-0.028-0.011-0.058-0.018-0.089-0.019-0.038-0.002-0.074 0.003-0.107 0.014s-0.058 0.025-0.078 0.047c-0.019 0.022-0.029 0.049-0.029 0.083s0.012 0.058 0.035 0.074c0.023 0.016 0.053 0.029 0.088 0.038s0.073 0.021 0.11 0.033c0.067 0.021 0.129 0.047 0.188 0.078s0.106 0.067 0.142 0.111 0.053 0.098 0.052 0.162c0 0.070-0.021 0.132-0.064 0.186s-0.097 0.094-0.164 0.121-0.139 0.039-0.215 0.035z"></path>
</symbol>
<symbol id="icon-footer-modal" viewBox="0 0 32 32">
<path fill="#f1bc19" style="fill: var(--color1, #f1bc19)" d="M24.64 3.84c-0.177 0-0.32 0.143-0.32 0.32s0.143 0.32 0.32 0.32v0c0.177 0 0.32-0.143 0.32-0.32s-0.143-0.32-0.32-0.32v0z"></path>
<path fill="#e4e4f9" style="fill: var(--color2, #e4e4f9)" d="M16 4.16c-6.539 0-11.84 5.301-11.84 11.84s5.301 11.84 11.84 11.84v0c6.539 0 11.84-5.301 11.84-11.84s-5.301-11.84-11.84-11.84v0z"></path>
<path fill="#f1bc19" style="fill: var(--color1, #f1bc19)" d="M26.56 3.52c-0.707 0-1.28 0.573-1.28 1.28s0.573 1.28 1.28 1.28v0c0.707 0 1.28-0.573 1.28-1.28s-0.573-1.28-1.28-1.28v0z"></path>
<path fill="#8889b9" style="fill: var(--color3, #8889b9)" d="M27.84 7.040c-0.353 0-0.64 0.287-0.64 0.64s0.287 0.64 0.64 0.64v0c0.353 0 0.64-0.287 0.64-0.64s-0.287-0.64-0.64-0.64v0z"></path>
<path fill="#fbcd59" style="fill: var(--color4, #fbcd59)" d="M25.92 23.68c-0.353 0-0.64 0.287-0.64 0.64s0.287 0.64 0.64 0.64v0c0.353 0 0.64-0.287 0.64-0.64s-0.287-0.64-0.64-0.64v0zM4.8 18.88c-0.707 0-1.28 0.573-1.28 1.28s0.573 1.28 1.28 1.28v0c0.707 0 1.28-0.573 1.28-1.28s-0.573-1.28-1.28-1.28v0z"></path>
<path fill="#8889b9" style="fill: var(--color3, #8889b9)" d="M8 27.2c-0.353 0-0.64 0.287-0.64 0.64s0.287 0.64 0.64 0.64v0c0.353 0 0.64-0.287 0.64-0.64s-0.287-0.64-0.64-0.64v0z"></path>
<path fill="#fff" style="fill: var(--color5, #fff)" d="M5.92 15.68c-0.442 0-0.8 0.358-0.8 0.8s0.358 0.8 0.8 0.8v0c0.442 0 0.8-0.358 0.8-0.8s-0.358-0.8-0.8-0.8v0zM25.44 10.24c-0.265 0-0.48 0.215-0.48 0.48s0.215 0.48 0.48 0.48v0c0.265 0 0.48-0.215 0.48-0.48s-0.215-0.48-0.48-0.48v0z"></path>
<path fill="#a3a3cd" style="fill: var(--color6, #a3a3cd)" d="M16 8.2c-4.286 0-7.76 3.474-7.76 7.76s3.474 7.76 7.76 7.76v0c4.286 0 7.76-3.474 7.76-7.76s-3.474-7.76-7.76-7.76v0z"></path>
<path fill="#472b29" style="fill: var(--color7, #472b29)" d="M16 23.944c-4.402 0-7.984-3.581-7.984-7.984s3.582-7.984 7.984-7.984 7.984 3.581 7.984 7.984-3.582 7.984-7.984 7.984zM16 8.424c-4.155 0-7.536 3.38-7.536 7.536s3.381 7.536 7.536 7.536 7.536-3.38 7.536-7.536-3.381-7.536-7.536-7.536z"></path>
<path fill="#565fa1" style="fill: var(--color8, #565fa1)" d="M16 9.333c-3.623 0-6.56 2.937-6.56 6.56s2.937 6.56 6.56 6.56v0c3.623 0 6.56-2.937 6.56-6.56s-2.937-6.56-6.56-6.56v0z"></path>
<path fill="#472b29" style="fill: var(--color7, #472b29)" d="M22.216 14.28c-0.068 0-0.132-0.044-0.153-0.113-0.028-0.092-0.059-0.183-0.091-0.273-0.125-0.35-0.284-0.691-0.47-1.014-0.044-0.076-0.018-0.174 0.058-0.219s0.174-0.018 0.219 0.059c0.196 0.34 0.363 0.698 0.495 1.066 0.034 0.095 0.066 0.19 0.095 0.287 0.026 0.084-0.021 0.174-0.106 0.2-0.015 0.005-0.031 0.007-0.046 0.007z"></path>
<path fill="#472b29" style="fill: var(--color7, #472b29)" d="M16 22.64c-3.684 0-6.68-2.988-6.68-6.66s2.996-6.66 6.68-6.66c1.912 0 3.736 0.819 5.004 2.247 0.096 0.108 0.188 0.219 0.277 0.333 0.054 0.070 0.042 0.17-0.028 0.224s-0.17 0.042-0.225-0.028c-0.084-0.108-0.173-0.214-0.264-0.317-1.207-1.36-2.944-2.14-4.764-2.14-3.507 0-6.36 2.844-6.36 6.34s2.853 6.34 6.36 6.34 6.36-2.844 6.36-6.34c0-0.318-0.024-0.639-0.071-0.951-0.013-0.087 0.047-0.169 0.134-0.182 0.089-0.014 0.169 0.047 0.182 0.134 0.049 0.328 0.075 0.664 0.075 0.999 0 3.672-2.996 6.66-6.68 6.66z"></path>
<path fill="#fefdef" style="fill: var(--color9, #fefdef)" d="M19.679 13.468c0.117-0.535 0.066-1.198-0.156-1.862-1.159 0-2.028 0.869-2.028 0.869s0.005 0.006 0.006 0.007c-0.020-0-0.040-0.003-0.061-0.003h-2.88c-0.014 0-0.027 0.002-0.041 0.002 0.001-0.001 0.005-0.006 0.005-0.006s-0.869-0.869-2.028-0.869c-0.219 0.657-0.272 1.313-0.16 1.845-0.505 0.542-0.816 1.268-0.816 2.068 0 1.679 1.361 3.040 3.040 3.040h0.343c-0.417 0.227-0.719 0.633-0.798 1.119-0.55 0.074-1.273 0.058-1.609-0.446-0.58-0.869-0.869-0.869-1.159-0.869s-0.29 0.29 0 0.58c0.29 0.29 0.29 0.29 0.58 0.869 0.247 0.494 0.9 1.055 2.163 0.852v1.127c0 0.143 0.025 0.279 0.061 0.41 0.776 0.185 2.081 0.34 3.733-0.048 0.028-0.116 0.046-0.236 0.046-0.362v-1.861c0-0.595-0.335-1.106-0.823-1.372h0.343c1.679 0 3.040-1.361 3.040-3.040 0-0.792-0.305-1.511-0.801-2.052z"></path>
<path fill="#472b29" style="fill: var(--color7, #472b29)" d="M15.85 22.556c-0.714 0-1.304-0.092-1.746-0.197-0.057-0.013-0.102-0.057-0.117-0.114-0.045-0.167-0.067-0.311-0.067-0.452v-0.945c-1.46 0.164-2.009-0.689-2.146-0.964-0.278-0.556-0.278-0.556-0.549-0.828-0.224-0.224-0.313-0.467-0.238-0.647 0.054-0.131 0.182-0.205 0.351-0.205 0.389 0 0.71 0.068 1.292 0.94 0.268 0.403 0.856 0.441 1.342 0.39 0.074-0.313 0.232-0.594 0.455-0.817-1.703-0.070-3.067-1.477-3.067-3.197 0-0.781 0.285-1.53 0.804-2.116-0.098-0.551-0.035-1.204 0.18-1.848 0.022-0.065 0.083-0.109 0.152-0.109 1.074 0 1.898 0.691 2.097 0.874h2.833c0.199-0.182 1.022-0.874 2.097-0.874 0.069 0 0.13 0.044 0.152 0.109 0.217 0.652 0.279 1.311 0.176 1.866 0.509 0.584 0.789 1.327 0.789 2.099 0 1.72-1.364 3.127-3.067 3.197 0.32 0.319 0.507 0.753 0.507 1.214v1.861c0 0.125-0.017 0.256-0.051 0.399-0.014 0.059-0.060 0.105-0.119 0.119-0.764 0.18-1.456 0.245-2.060 0.245zM14.273 22.069c0.772 0.172 1.969 0.288 3.466-0.047 0.014-0.081 0.022-0.156 0.022-0.229v-1.861c0-0.511-0.284-0.982-0.74-1.231-0.064-0.035-0.097-0.109-0.079-0.18s0.082-0.121 0.155-0.121h0.344c1.588 0 2.88-1.292 2.88-2.88 0-0.719-0.27-1.409-0.759-1.944-0.035-0.038-0.049-0.092-0.038-0.142 0.106-0.485 0.065-1.073-0.115-1.665-0.918 0.049-1.631 0.664-1.773 0.795-0.029 0.048-0.078 0.079-0.137 0.079-0.002 0-0.031-0.002-0.033-0.002l-2.903-0.001c-0.049 0-0.106-0.021-0.141-0.058l-0.007 0.007c-0.008-0.008-0.78-0.765-1.799-0.82-0.178 0.586-0.221 1.168-0.119 1.649 0.011 0.051-0.004 0.104-0.040 0.142-0.499 0.536-0.773 1.232-0.773 1.959 0 1.588 1.292 2.88 2.88 2.88h0.343c0.073 0 0.137 0.050 0.155 0.121s-0.014 0.145-0.079 0.18c-0.386 0.209-0.647 0.576-0.716 1.004-0.012 0.070-0.067 0.124-0.137 0.133-0.852 0.115-1.462-0.063-1.764-0.516-0.532-0.798-0.772-0.798-1.026-0.798-0.044 0-0.058 0.010-0.058 0.010-0.008 0.020 0.014 0.139 0.171 0.296 0.308 0.308 0.319 0.331 0.61 0.911 0.118 0.236 0.612 0.99 1.995 0.765 0.047-0.007 0.093 0.006 0.129 0.036s0.056 0.075 0.056 0.122v1.127c0 0.086 0.011 0.175 0.033 0.276z"></path>
<path fill="#fefdef" style="fill: var(--color9, #fefdef)" d="M19.34 16.436c-0.288 0.638-0.92 1.169-2.033 1.258z"></path>
<path fill="#472b29" style="fill: var(--color7, #472b29)" d="M17.307 17.773c-0.041 0-0.076-0.032-0.080-0.074-0.004-0.044 0.029-0.083 0.073-0.086 1.218-0.098 1.741-0.713 1.967-1.211 0.019-0.041 0.066-0.059 0.106-0.040s0.058 0.065 0.040 0.106c-0.343 0.761-1.089 1.224-2.1 1.305-0.002 0-0.004 0-0.006 0z"></path>
<path fill="#fefdef" style="fill: var(--color9, #fefdef)" d="M19.507 15.171c0.036 0.241 0.035 0.497-0.010 0.749z"></path>
<path fill="#472b29" style="fill: var(--color7, #472b29)" d="M19.498 16.001c-0.005 0-0.009-0-0.014-0.001-0.044-0.007-0.073-0.049-0.065-0.092 0.041-0.235 0.044-0.485 0.009-0.724-0.007-0.044 0.024-0.084 0.067-0.091s0.084 0.023 0.091 0.068c0.038 0.259 0.035 0.52-0.010 0.775-0.006 0.039-0.040 0.066-0.078 0.066z"></path>
<path fill="#fefdef" style="fill: var(--color9, #fefdef)" d="M18.907 14.040c0.203 0.144 0.367 0.377 0.476 0.658z"></path>
<path fill="#472b29" style="fill: var(--color7, #472b29)" d="M19.383 14.778c-0.032 0-0.062-0.020-0.075-0.051-0.107-0.274-0.262-0.489-0.448-0.621-0.036-0.026-0.044-0.076-0.019-0.112s0.076-0.044 0.112-0.019c0.212 0.151 0.386 0.391 0.504 0.694 0.016 0.041-0.004 0.087-0.045 0.104-0.010 0.004-0.019 0.005-0.029 0.005z"></path>
</symbol>
<symbol id="icon-footer-close" viewBox="0 0 32 32">
<path style="fill: var(--close-icon-color)" d="M6.654 5.32c-0.736 0-1.333 0.597-1.333 1.333 0 0.375 0.154 0.713 0.403 0.955l8.391 8.391-8.391 8.391c-0.253 0.243-0.41 0.584-0.41 0.962 0 0.736 0.597 1.333 1.333 1.333 0.378 0 0.719-0.157 0.961-0.41l0-0 8.391-8.391 8.391 8.391c0.243 0.253 0.584 0.41 0.962 0.41 0.736 0 1.333-0.597 1.333-1.333 0-0.378-0.157-0.719-0.41-0.961l-0-0-8.391-8.391 8.391-8.391c0.249-0.243 0.404-0.581 0.404-0.956 0-0.736-0.597-1.333-1.333-1.333-0.014 0-0.028 0-0.041 0.001l0.002-0c-0.36 0.011-0.683 0.163-0.916 0.403l-8.391 8.391-8.391-8.391c-0.242-0.249-0.581-0.404-0.956-0.404v0z"></path>
</symbol>
  </defs>
</svg>
