<svg
  aria-hidden="true"
  style="position: absolute; width: 0; height: 0; overflow: hidden"
  version="1.1"
  xmlns="http://www.w3.org/2000/svg"
  xmlns:xlink="http://www.w3.org/1999/xlink"
>
  <defs>
    <symbol id="icon-menu" viewBox="0 0 32 32">
      <path
        stroke-linejoin="round"
        stroke-linecap="round"
        stroke-miterlimit="4"
        stroke-width="2.2857"
        d="M22.667 13.333h-18.667"
      ></path>
      <path
        stroke-linejoin="round"
        stroke-linecap="round"
        stroke-miterlimit="4"
        stroke-width="2.2857"
        d="M28 8h-24"
      ></path>
      <path
        stroke-linejoin="round"
        stroke-linecap="round"
        stroke-miterlimit="4"
        stroke-width="2.2857"
        d="M28 18.667h-24"
      ></path>
      <path
        stroke-linejoin="round"
        stroke-linecap="round"
        stroke-miterlimit="4"
        stroke-width="2.2857"
        d="M22.667 24h-18.667"
      ></path>
    </symbol>
    <symbol id="icon-arrow" viewBox="0 0 32 32">
      <path
        fill="none"
        stroke="#eac645"
        style="stroke: var(--color1, #eac645)"
        stroke-linejoin="round"
        stroke-linecap="round"
        stroke-miterlimit="4"
        stroke-width="3.2"
        d="M5.333 16h21.333M26.667 16l-8-8M26.667 16l-8 8"
      ></path>
    </symbol>
    <symbol id="icon-dump" viewBox="0 0 32 32">
      <path
        fill="#4f2ee8"
        style="fill: var(--color2, #4f2ee8)"
        d="M32 16c0 8.837-7.163 16-16 16s-16-7.163-16-16c0-8.837 7.163-16 16-16s16 7.163 16 16z"
      ></path>
      <path
        fill="none"
        stroke="#fff"
        style="stroke: var(--color3, #fff)"
        stroke-linejoin="round"
        stroke-linecap="round"
        stroke-miterlimit="4"
        stroke-width="1.6842"
        d="M13.684 9.053h4.632M9.053 11.368h13.895M21.404 11.368l-0.541 8.12c-0.081 1.218-0.122 1.827-0.385 2.289-0.232 0.407-0.581 0.733-1.002 0.938-0.478 0.232-1.089 0.232-2.31 0.232h-2.33c-1.221 0-1.832 0-2.31-0.232-0.421-0.204-0.771-0.531-1.002-0.938-0.263-0.462-0.304-1.071-0.385-2.289l-0.541-8.12M14.456 14.842v3.86M17.544 14.842v3.86"
      ></path>
    </symbol>
    <symbol id="icon-next" viewBox="0 0 32 32">
      <path
        d="M17.867 16.946c0.125-0.124 0.224-0.271 0.292-0.434s0.103-0.337 0.103-0.513-0.035-0.35-0.103-0.513c-0.068-0.162-0.167-0.31-0.292-0.434l-6.12-6.107c-0.125-0.124-0.224-0.271-0.292-0.434s-0.103-0.337-0.103-0.513c0-0.176 0.035-0.35 0.103-0.513s0.167-0.31 0.292-0.434c0.25-0.248 0.588-0.388 0.94-0.388s0.69 0.139 0.94 0.388l6.12 6.12c0.749 0.75 1.17 1.767 1.17 2.827s-0.421 2.077-1.17 2.827l-6.12 6.12c-0.248 0.246-0.584 0.385-0.933 0.387-0.175 0.001-0.349-0.033-0.512-0.099s-0.31-0.164-0.435-0.288c-0.125-0.124-0.224-0.271-0.292-0.434s-0.103-0.337-0.103-0.513c0-0.176 0.035-0.35 0.103-0.513s0.167-0.31 0.292-0.434l6.12-6.107z"
      ></path>
    </symbol>
    <symbol id="icon-down" viewBox="0 0 28 32">
      <path
        fill="#fff"
        style="fill: var(--color3, #fff)"
        d="M5.898 12h16.513l-7.423 8.391c-0.221 0.25-0.521 0.39-0.834 0.39s-0.613-0.14-0.834-0.39l-7.423-8.391z"
      ></path>
    </symbol>
    <symbol id="icon-lock" viewBox="0 0 32 32">
      <path
        stroke-linejoin="round"
        stroke-linecap="round"
        stroke-miterlimit="4"
        stroke-width="2.2857"
        d="M22.667 14.667v-4c0-3.682-2.985-6.667-6.667-6.667s-6.667 2.985-6.667 6.667v4M10.4 28h11.2c2.24 0 3.36 0 4.216-0.436 0.753-0.383 1.365-0.995 1.748-1.748 0.436-0.856 0.436-1.976 0.436-4.216v-0.533c0-2.24 0-3.36-0.436-4.216-0.383-0.753-0.995-1.365-1.748-1.748-0.856-0.436-1.976-0.436-4.216-0.436h-11.2c-2.24 0-3.36 0-4.216 0.436-0.753 0.384-1.365 0.995-1.748 1.748-0.436 0.856-0.436 1.976-0.436 4.216v0.533c0 2.24 0 3.36 0.436 4.216 0.383 0.753 0.995 1.365 1.748 1.748 0.856 0.436 1.976 0.436 4.216 0.436z"
      ></path>
    </symbol>
    <symbol id="icon-mail" viewBox="0 0 32 32">
      <path
        stroke-linejoin="round"
        stroke-linecap="round"
        stroke-miterlimit="4"
        stroke-width="2.2857"
        d="M28.666 24l-8.857-8M12.19 16l-8.857 8M2.667 9.333l10.887 7.621c0.882 0.617 1.322 0.926 1.802 1.045 0.423 0.106 0.866 0.106 1.29 0 0.479-0.12 0.92-0.428 1.802-1.045l10.887-7.621M9.067 26.667h13.867c2.24 0 3.36 0 4.216-0.436 0.753-0.384 1.365-0.995 1.748-1.748 0.436-0.856 0.436-1.976 0.436-4.216v-8.533c0-2.24 0-3.36-0.436-4.216-0.383-0.753-0.995-1.365-1.748-1.748-0.856-0.436-1.976-0.436-4.216-0.436h-13.867c-2.24 0-3.36 0-4.216 0.436-0.753 0.383-1.365 0.995-1.748 1.748-0.436 0.856-0.436 1.976-0.436 4.216v8.533c0 2.24 0 3.36 0.436 4.216 0.384 0.753 0.995 1.365 1.748 1.748 0.856 0.436 1.976 0.436 4.216 0.436z"
      ></path>
    </symbol>
    <symbol id="icon-up" viewBox="0 0 32 32">
      <path
        fill="#fff"
        style="fill: var(--color3, #fff)"
        d="M4.5 19.6l11.2-11.233c0.133-0.133 0.278-0.228 0.433-0.283s0.322-0.084 0.5-0.084c0.178 0 0.345 0.028 0.5 0.084s0.3 0.149 0.433 0.283l11.233 11.233c0.311 0.311 0.467 0.7 0.467 1.167s-0.167 0.867-0.5 1.2c-0.333 0.333-0.722 0.5-1.167 0.5s-0.833-0.167-1.167-0.5l-9.8-9.8-9.8 9.8c-0.311 0.311-0.694 0.467-1.149 0.467s-0.851-0.167-1.184-0.5-0.5-0.722-0.5-1.167c0-0.444 0.167-0.833 0.5-1.167z"
      ></path>
    </symbol>
    <symbol id="icon-user" viewBox="0 0 32 32">
      <path
        fill="#f6f6f6"
        style="fill: var(--color4, #f6f6f6)"
        d="M32 16c0 8.837-7.163 16-16 16s-16-7.163-16-16c0-8.837 7.163-16 16-16s16 7.163 16 16z"
      ></path>
      <path
        fill="#4f2ee8"
        style="fill: var(--color2, #4f2ee8)"
        d="M10.523 22.847c0-1.453 0.577-2.846 1.604-3.873s2.421-1.604 3.873-1.604 2.846 0.577 3.873 1.604c1.027 1.027 1.604 2.421 1.604 3.873h-10.955zM16 16.685c-2.27 0-4.108-1.838-4.108-4.108s1.838-4.108 4.108-4.108c2.27 0 4.108 1.838 4.108 4.108s-1.838 4.108-4.108 4.108z"
      ></path>
    </symbol>
    <symbol id="icon-close" viewBox="0 0 32 32">
      <path
        stroke-linejoin="round"
        stroke-linecap="round"
        stroke-miterlimit="4"
        stroke-width="3.4286"
        d="M24 8l-16 16M8 8l16 16"
      ></path>
    </symbol>
    <symbol id="icon-ukraine" viewBox="0 0 20 32">
      <path
        fill="#fff"
        style="fill: var(--color1, #fff)"
        d="M9.005 30.888c-1.738-1.262-2.991-3.156-3.414-5.351h-5.591v-23.117c2.991 1.443 5.153 4.599 5.388 7.876l0.846 6.493-0.407-0.045c-0.893 0-1.676 0.812-1.676 1.608 0 0.752 0.595 1.383 1.378 1.548l1.018 0.226c1.676-3.051 2.631-6.042 2.631-8.973 0-2.645-0.36-5.291-0.423-7.996 0-1.202 0.486-2.3 1.253-3.156 0.783 0.857 1.253 1.954 1.253 3.156 0 2.705-0.423 5.351-0.423 7.996 0 2.931 0.955 5.922 2.631 8.973l1.018-0.226c0.783-0.165 1.378-0.812 1.378-1.548 0-0.812-0.783-1.608-1.676-1.608l-0.423 0.060 0.846-6.493c0.423-3.277 2.396-6.448 5.388-7.876v23.117h-5.576c-0.423 2.179-1.613 4.148-3.414 5.351-0.423 0.286-0.783 0.631-1.018 1.097-0.219-0.466-0.579-0.812-0.987-1.112zM2.647 17.556c0.235-0.857 0.893-1.608 1.738-2.074l-0.658-5.351c-0.235-1.668-0.955-3.156-2.036-4.374v11.784h0.955v0.015zM5.466 23.929c0-0.812 0.125-1.548 0.298-2.3l-0.783-0.18c-1.143-0.346-2.036-1.203-2.334-2.3h-0.955v4.78h3.774zM9.178 23.929c0-0.977-0.783-1.834-1.801-1.954-0.172 0.631-0.298 1.263-0.298 1.954h2.099zM9.178 25.552h-1.864c0.298 1.263 0.955 2.42 1.864 3.397v-3.397zM11.809 20.547c-0.72-1.262-1.378-2.585-1.801-3.968-0.423 1.383-1.081 2.706-1.801 3.968 0.72 0.165 1.316 0.631 1.801 1.157 0.486-0.526 1.081-0.992 1.801-1.157zM12.952 23.929c0-0.691-0.125-1.323-0.297-1.954-1.018 0.12-1.801 0.977-1.801 1.954h2.099zM12.717 25.552h-1.864v3.397c0.908-0.992 1.566-2.134 1.864-3.397zM18.34 23.929v-4.78h-0.955c-0.298 1.097-1.206 1.954-2.334 2.3l-0.783 0.18c0.172 0.752 0.298 1.488 0.298 2.3h3.774zM18.34 17.556v-11.799c-1.081 1.202-1.864 2.706-2.036 4.374l-0.658 5.351c0.846 0.466 1.504 1.203 1.739 2.074h0.955z"
      ></path>
    </symbol>

    <!-- outline stroke -->

    <symbol id="icon-mail-new" viewBox="0 0 38 32">
      <path
        d="M27.782 30.982H10.037c-3.055 0-4.655 0-5.964-.727-1.309-.582-2.182-1.6-2.909-2.909-.727-1.455-.727-2.909-.727-5.964V7.127c.145-1.018.291-1.745.582-2.473.582-1.309 1.6-2.182 2.909-2.909 1.455-.727 2.909-.727 5.964-.727h17.6c3.055 0 4.655 0 5.964.727 1.309.582 2.182 1.6 2.909 2.909.436.727.582 1.455.582 2.473.145.291.145.582 0 .727v13.673c0 3.055 0 4.655-.727 5.964-.582 1.164-1.6 2.182-2.909 2.909-1.018.582-2.473.582-5.527.582zM4.218 26.764c.291.436.727.727 1.164.873.727.436 2.182.436 4.655.436h17.6c2.473 0 3.927 0 4.655-.436.436-.291.873-.582 1.164-.873l-9.891-9.018-.727.582c-1.164.873-1.891 1.309-2.764 1.6-.727.145-1.6.145-2.327 0-.873-.145-1.6-.727-2.764-1.6l-.727-.582L4.22 26.764zm-.873-16.437V23.709l8.291-7.564-8.291-5.818zm22.691 5.818 8.291 7.564V10.327l-8.291 5.818zm-11.054-1.309L16.727 16c.873.727 1.455 1.018 1.745 1.164s.582.145.873 0c.291-.145.873-.436 1.745-1.164l13.091-9.164c0-.436-.145-.727-.291-1.018a2.883 2.883 0 0 0-1.6-1.6c-.727-.436-2.182-.436-4.655-.436h-17.6c-2.473 0-3.927 0-4.655.436s-1.309 1.018-1.6 1.6c-.145.291-.145.582-.291 1.018l11.491 8c-.145 0-.145 0 0 0z"
      />
    </symbol>
    <symbol id="icon-lock-new" viewBox="0 0 32 32">
      <path
        d="M22.533 31.333H9.466c-2.8 0-4.267 0-5.467-.667-1.2-.533-2-1.467-2.667-2.667-.667-1.333-.667-2.667-.667-5.467v-.667c0-2.8 0-4.267.667-5.467.533-1.2 1.467-2 2.667-2.667.8-.4 1.6-.533 2.933-.533V9.731c0-5.067 4.133-9.067 9.067-9.067 5.067 0 9.067 4.133 9.067 9.067v3.333c1.2 0 2.133.267 2.933.667 1.2.533 2 1.467 2.667 2.667.667 1.333.667 2.667.667 5.467v.667c0 2.8 0 4.267-.667 5.467-.533 1.2-1.467 2-2.667 2.667s-2.667.667-5.467.667zm-13.066-15.6c-2.267 0-3.6 0-4.267.4-.667.267-1.2.8-1.467 1.467-.4.667-.4 2-.4 4.267v.667c0 2.267 0 3.6.4 4.267.267.667.8 1.2 1.467 1.467.667.4 2 .4 4.267.4h13.067c2.267 0 3.6 0 4.267-.4.667-.267 1.2-.8 1.467-1.467.4-.667.4-2 .4-4.267v-.667c0-2.267 0-3.6-.4-4.267-.267-.667-.8-1.2-1.467-1.467-.667-.4-2-.4-4.267-.4H9.467zm.133-2.666h12.933V9.734c0-3.6-2.933-6.4-6.4-6.4S9.6 6.267 9.6 9.734v3.333z"
      />
    </symbol>
    <symbol id="icon-close-new" viewBox="0 0 32 32">
      <path
        d="M28.444 31.111c-.711 0-1.422-.178-1.956-.711L15.999 19.733 5.51 30.222c-1.067 1.067-2.667 1.067-3.733 0s-1.067-2.667 0-3.733L12.266 16 1.599 5.511c-1.067-1.067-1.067-2.667 0-3.733s2.667-1.067 3.733 0l10.667 10.489L26.488 1.778c1.067-1.067 2.667-1.067 3.733 0s1.067 2.667 0 3.733L19.732 16l10.489 10.489c1.067 1.067 1.067 2.667 0 3.733-.356.711-1.067.889-1.778.889z"
      />
    </symbol>
  </defs>
</svg>
