<svg aria-hidden="true" style="position: absolute; width: 0; height: 0; overflow: hidden;" version="1.1" xmlns="http://www.w3.org/2000/svg" xmlns:xlink="http://www.w3.org/1999/xlink">
<defs>
<symbol id="icon-delete" viewBox="0 0 32 32">
<path d="M32 16c0 8.837-7.163 16-16 16s-16-7.163-16-16c0-8.837 7.163-16 16-16s16 7.163 16 16z"></path>
<path fill="none" stroke="#fff" style="stroke: var(--color2, #fff)" stroke-linejoin="round" stroke-linecap="round" stroke-miterlimit="4" stroke-width="1.4118" d="M13.882 9.647h4.235M9.647 11.765h12.706M20.941 11.765l-0.495 7.426c-0.074 1.113-0.111 1.671-0.352 2.093-0.215 0.372-0.528 0.666-0.904 0.851l-0.012 0.006c-0.438 0.213-0.996 0.213-2.112 0.213h-2.131c-1.116 0-1.675 0-2.112-0.212-0.389-0.191-0.702-0.485-0.911-0.847l-0.005-0.010c-0.241-0.423-0.278-0.979-0.352-2.093l-0.495-7.426M14.588 14.941v3.529M17.412 14.941v3.529"></path>
</symbol>
</defs>
</svg>
